<svg version="1.2" xmlns="http://www.w3.org/2000/svg" viewBox="0 0 1929 496" width="1929" height="496">
	<title>LogoWEB Header Horizontal Amarillo Transparente-svg</title>
	<style>
		.s0 { fill: #f6cc4d } 
	</style>
	<path id="Layer" fill-rule="evenodd" class="s0" d="m280.6 75.1q0.9-3.3 2.1-5.4 1.1-2.2 5-3.1l54.6-12.7q0.4 0 1-0.2 0.5-0.1 0.9-0.1 2.6 0 3.5 2.2 1.1 2.2 1.1 4.3 0 0.3-0.1 1.5 0 1.1-0.2 1.4l-76.8 233.9q-2.9 7.6-5 12.5-1.8 4.6-3.9 7.8-1.8 2.9-4.4 5-2.4 2-6.7 4.1-4.1 2-10.4 4.6-6.3 2.8-15.9 7.5-3.4 1.6-5.2 1.6-3 0-4.5-2.2-1.4-2.2-2.4-5l-31.7-113.2-39.6 82q-1 2.2-4.3 5.9-3.3 3.7-7.6 7.6-4.1 3.9-8.3 7.6-4.1 3.6-6.7 5.8-2.4 2.1-5.2 4.1-2.6 2-5.4 3.7-2.8 1.7-5.3 2.6-2.5 1.1-4.7 1.1-4.8 0-6.3-5.4l-71.9-254.3q-0.4-1.5-0.9-2.9-0.4-1.5-0.4-2.8 0-4.7 2.2-7.8 2.2-3.2 7.8-5.4 5.6-2.3 14.8-3.6 9.3-1.5 23.6-2.4 6.7-0.9 11.1-1.3 4.6-0.4 7.8-0.4 5.4 0 7 1.7 1.7 1.7 3 5.6l38.2 147.4 31.7-54.6-12.8-56q-1.1-4.5-0.9-6.7 0-4.3 2.2-6.9 2.2-2.6 7.4-4.2 5.2-1.7 13.5-3 8.6-1.3 20.8-3 5.4-0.7 9.3-1.1 3.9-0.4 6.6-0.4 5.6 0 7.6 1.7 2.1 1.7 3 5.4l25.2 114.5zm74.3 173.4q2.4-25.4 4.9-50.3 2.4-24.9 4.2-51.2 0.4-6.1 1.1-8.3 1-2.4 4.3-3.2 15.7-3.1 33-6.5 17.2-3.5 33.4-8.9 0.5-0.2 1.6-0.2 2.1 0 2.1 1.5l-16.7 181.1q-0.6 6.1-1.3 8.5-0.8 2.2-4.1 3-15.8 4.8-31.9 10.8-16.1 5.9-34.1 12.1-0.5 0.1-1.7 0.1-2 0-2-1.8 0-0.2 0.4-5 0.3-4.9 0.9-12.5 0.7-7.6 1.5-17.1 0.7-9.5 1.5-19 0.9-9.4 1.6-18.2 0.8-8.7 1.3-14.9zm13.9-148.3q0.6-8 0.8-12.3 0.4-4.2 0.5-6.3 0.2-2.2 0.2-2.8 0-0.5 0-0.7 0.2-0.4 0.2-1.1 0.2-1 0.4-3.6 0.2-2.8 0.5-8 0.4-5.2 1.1-14.3 0.4-6.1 1.2-8.3 0.9-2.5 4.2-3.2 15.8-3.2 33-6.5 17.3-3.5 33.4-8.9 0.5-0.2 1.6-0.2 0.6 1.1 1.5 1.5l0.6 0.3-4.1 51q-0.5 6.1-1.5 8.5-0.7 2.4-3.9 3-15.7 3-31.8 6.5-16.2 3.5-34.2 7.1-0.5 0.2-1.6 0.2-2.1 0-2.1-1.9zm107.5 69.9q2.3-25.5 3.6-50.4 1.5-24.9 3.1-51.1 0.4-6.1 1.1-8.4 1-2.4 4.3-3.1 17.2-3.2 34.5-6.4 17.4-3.3 34.8-8.7 0.6-0.2 1.7-0.2 2 0 2 1.9l-24.1 265.5v3.1q0 1.7-1.3 2.8-1.3 0.9-6.1 2.2l-48.5 17.9q-2.1 0.9-5.4 1.8-3.4 1.2-6.5 1.2-2.6 0-4.6-1.3-1.9-1.3-1.9-4.5v-1.1q1.5-18.8 2.8-36.6 1.5-18.1 2.9-37.2 1.7-19.2 3.6-40.6 1.8-21.3 4-46.8zm307.6 138.5q0 0.4-0.2 0.9 0 0.4 0 0.8 0 0.9 0 1.5 0.2 0.5 0.2 1.1 0 1.6-1.3 2.8-1.1 0.9-6.2 2.2l-49.6 16.2q-2.1 0.7-5.4 1.8-3.3 1.1-6.5 1.1-2.6 0-4.6-1.3-1.9-1.3-1.9-4.8 0-3.3 0-5.4 0.2-2 0.2-3.7 0.2-1.9 0.4-3.9 0.3-2.1 0.7-5.4-13.9 11.2-28.7 17.8-14.7 6.7-31 6.7-17.8 0-31.7-8.5-13.7-8.4-23.1-22.5-9.5-14.3-14.5-32.5-4.8-18.4-4.8-38.3 0-25.9 8.3-47.1 8.6-21.3 23-36.4 14.5-15.3 33.7-23.4 19.3-8.4 41-8.4 11.7 0 22.3 6.1 10.7 6.2 20.2 15.8 0.5-9.1 1.3-19.7 0.7-10.7 1.4-21.7 0.8-11.2 1.5-22 0.8-10.7 1.3-19.7 0-1.6 1.1-2.6 1.3-1.1 6.3-2.4l52.1-12.4q2.1-0.4 5.4-1.7 3.3-1.3 6.5-1.3 2.4 0 4.4 1.1 2.3 1.1 2.3 4.3 0 0.4-0.2 1.7 0 1.1 0 1.4zm-64.7-87q0.5-5.9 1.1-12.4 0.7-6.5 1.7-13.6-4.3-11.1-12.1-18-7.8-7.1-19.4-7.1-11.5 0-19.5 6.7-8 6.5-12.8 16.2-4.8 9.7-7 20.4-2.1 10.6-2.1 18.8 0 10 1.1 19.9 1.3 9.9 3.9 17.8 2.8 8 7.2 13.1 4.5 4.8 11.2 4.8 16.3-0.6 26.5-7.4 10.2-6.9 16.3-16.8zm287.5 90.9q-0.2 1.7-0.8 3.4-0.3 1.5-2.4 2.4-0.7 0.4-7.4 2.8-6.5 2.2-15.2 5.4-8.5 3-17 5.9-8.4 3.2-12.8 4.9-2.2 0.9-5.6 1.8-3.1 1.1-6.3 1.1-2.6 0-4.6-1.3-1.9-1.3-1.9-4.8 0-8.2 0.4-14.9 0.6-6.9 1.3-14.3 0.7-7.4 1.5-16.3 0.9-9.2 1.6-21.6 1-16.4 2.1-31.4 1.1-15.3 2.2-31.6l2.6-31.8q0.6-7.8 1.1-15.8 0.6-8.2 1.1-16.8l2.1-22.6q0-0.4-1.1-0.4-1.5 0-5 0.7-3.6 0.6-8.4 1.5-4.8 1-10.7 2.1-5.8 0.9-11.9 1.8-1.5 0-3-0.5-1.3-0.8-1.3-1.7 0-0.7 0.4-1.1l30-52.6q10.2-2.3 21.9-4.5 11.9-2.4 25.4-4.3 13.5-1.8 28.7-2.9 15.2-1.3 32.3-1.3 19.3 0.3 37.4 3.9 18.4 3.3 32.5 11.5 14.2 8 22.8 21.9 8.7 13.8 8.7 35 0 11.7-4.1 21.5-3.9 9.9-10.2 17.9-6.1 7.8-13.5 13.9-7.4 6-14.3 10.3-6.7 4.2-11.9 6.8-5.1 2.4-7 3.2 0 0.4 0.2 0.9 0.4 0.6 1.3 2.3 0.9 1.4 2.6 4.4 1.8 2.8 4.6 7.8 3 4.5 7.1 11.9 4 7.5 9.6 17.7 5.7 10 13.1 22.5 7.5 12.4 17.1 26.7 3.2 2.8 7.2 3.6 4.1 0.5 7.6 0.7 3.6 0 6 0.4 2.4 0.2 2.4 2.2 0 1.5-3.2 3.6-2.9 1.8-7 3.9-4.1 2-8.4 3.9-4 1.8-6.3 2.9-4.4 2.3-9.2 4.3-4.9 2.1-10.4 4.7-5.6 2.4-12.4 5.7-6.7 3.4-15.2 8-2.3 1.3-4.3 1.7-1.8 0.5-3.5 0.5-3.3 0-5.8-1.6-2.4-1.5-4-3.7-1.7-2.3-2.8-4.7-0.9-2.2-1.7-3.7l-55.2-116.8zm11.3-125.8q9.4 0 19.6-4.8 10.2-4.9 18.6-12.5 8.3-7.6 13.7-17.3 5.4-9.7 5.4-19.5 0-27-32.3-27-6.1 0-10.2 1-4.1 0.7-7.4 1.1zm167 61.9q2.4-25.5 4.8-50.4 2.4-24.9 4.3-51.1 0.4-6.2 1.1-8.4 0.9-2.4 4.3-3.1 15.7-3.2 33-6.6 17.2-3.5 33.3-8.9 0.6-0.2 1.7-0.2 2 0 2 1.5l-16.7 181.1q-0.5 6.1-1.3 8.5-0.7 2.3-4 3-15.8 4.9-31.9 10.8-16.1 6-34.1 12.1-0.6 0.2-1.7 0.2-2 0-2-1.9 0-0.2 0.4-5 0.3-4.8 0.9-12.5 0.7-7.6 1.5-17.1 0.7-9.4 1.4-18.9 1-9.5 1.7-18.2 0.8-8.8 1.3-14.9zm13.9-148.4q0.6-8 0.7-12.2 0.4-4.3 0.6-6.4 0.2-2.2 0.2-2.7 0-0.6 0-0.8 0.2-0.4 0.2-1.1 0.2-0.9 0.3-3.5 0.2-2.8 0.6-8 0.4-5.2 1.1-14.3 0.4-6.2 1.1-8.4 1-2.4 4.3-3.2 15.7-3.1 33-6.5 17.2-3.5 33.3-8.9 0.6-0.2 1.7-0.2 0.6 1.1 1.5 1.5l0.6 0.4-4.1 50.9q-0.6 6.1-1.5 8.6-0.7 2.4-3.9 2.9-15.8 3-31.9 6.5-16.1 3.6-34.1 7.1-0.5 0.2-1.7 0.2-2 0-2-1.9zm299.7 208.4q0 0.4-0.1 1 0 0.3 0 0.7 0 0.9 0 1.5 0.1 0.5 0.1 1.1 0 1.7-1.3 2.8-1.1 0.9-6.1 2.2l-49.7 16.2q-2 0.7-5.3 1.9-3.4 1.1-6.5 1.1-2.6 0-4.6-1.3-1.9-1.3-1.9-4.9 0-3.3 0-5.4 0.2-2 0.2-3.7 0.2-1.8 0.4-3.9 0.3-2 0.7-5.4-13.9 11.2-28.7 17.9-14.7 6.7-31 6.7-17.8 0-31.7-8.6-13.7-8.3-23.2-22.5-9.4-14.3-14.4-32.5-4.8-18.4-4.8-38.3 0-25.8 8.3-47 8.5-21.4 23-36.5 14.4-15.2 33.7-23.4 19.3-8.4 41-8.4 11.7 0 22.2 6.2 10.8 6.1 20.2 15.8 0.6-9.1 1.3-19.7 0.8-10.8 1.5-21.8 0.8-11.1 1.5-21.9 0.7-10.8 1.3-19.7 0-1.7 1.1-2.6 1.3-1.1 6.3-2.4l52.1-12.5q2-0.4 5.4-1.7 3.3-1.3 6.5-1.3 2.4 0 4.4 1.1 2.2 1.2 2.2 4.3 0 0.4-0.2 1.7 0 1.1 0 1.5zm-64.6-87q0.5-6 1.1-12.5 0.7-6.5 1.6-13.5-4.2-11.2-12-18.1-7.8-7-19.5-7-11.5 0-19.4 6.6-8 6.6-12.8 16.2-4.8 9.7-7.1 20.5-2 10.6-2 18.7 0 10.1 1.1 19.9 1.3 9.9 3.9 17.9 2.8 8 7.2 13 4.5 4.8 11.1 4.8 16.4-0.5 26.5-7.4 10.2-6.9 16.4-16.7zm216.7-101.7q17.6 0 31.8 6.7 14.5 6.5 24.7 17.1 10.4 10.4 15.9 23.4 5.6 13 5.6 26 0 11.5-7 23.3-7.1 11.5-19.9 20.8-12.6 9.3-30.4 15-17.8 5.8-39.1 5.8-11.1 0-23.3-2.2 0.7 8 4.6 13.7 3.9 5.8 9.8 9.5 5.9 3.7 13.4 5.6 7.5 1.7 15.5 1.7 8.9 0 17.1-1.5 8.3-1.7 15.9-4.3 7.6-2.6 14.7-5.8 7-3.1 13.3-6.3 1.7-0.4 2.8-0.5 1.3-0.4 2.4-0.4 0 0-0.2 3 0 2.9 0 8.3 0 5.4-0.2 13 0 7.7-0.2 17 0.6 0.9 0.8 1.8 0.2 0.9 0.2 1.5 0 2.2-4.1 4.8-4.1 2.6-10.8 5.4-6.5 2.8-15 5.4-8.3 2.6-17 4.7-8.7 2.2-16.9 3.3-8.2 1.3-14.3 1.3-20 0-38.9-7.1-18.7-6.8-33.4-19.8-14.4-13.1-23.1-31.6-8.7-18.6-8.7-41.9 0-24.3 8.3-45.5 8.3-21.4 23.4-37.2 15.2-15.8 36.1-24.9 20.9-9.1 46.2-9.1zm-2.3 49.4q-7.6 0-14.1 3.4-6.3 3.1-11.6 9.3-5.2 5.9-9.1 14.5-3.9 8.3-6.3 18.6 19.1-3.4 31.7-7.1 12.6-3.7 20.2-7.4 7.6-3.9 10.7-7.7 3.2-3.9 3.2-7.4 0-3.3-2.6-6.3-2.4-3-6.1-5.2-3.7-2.3-8.2-3.4-4.3-1.3-7.8-1.3zm255.1 6.7q-3.9-0.4-8.7-0.7-4.8-0.6-10.2-0.6-8.2 0-16.7 1.5-8.3 1.3-15.6 5.4-7.2 4.1-12.4 11.3-5.2 7.1-6.7 18.4-1.3 13.8-2.2 22.7-0.7 8.8-1.1 14.5-0.4 5.6-0.7 9.1-0.2 3.4-0.4 6.4 0 0.7-0.4 4-0.2 3.4-0.7 7.8-0.6 4.5-1.1 9.7-0.4 5.2-1 9.7-0.5 4.4-0.9 7.8-0.2 3.3-0.2 4.1 0 1.5 0 2.6 0.2 0.9 0.2 1.8 0 1.5-1.5 2.6-1.3 1-6.1 2.3l-49.1 17.6q-2 0.8-5.4 1.9-3.3 1.1-6.5 1.1-2.6 0-4.6-1.3-1.9-1.3-1.9-4.5l16-184.2q0.5-6.1 1.3-8.3 0.9-2.5 4.2-3.2 16.9-3.4 34.9-6.7 18-3.5 34.8-8.9 1.5 0 1.7 0.5 0.4 0.4 0.4 1.3 0 0.4-0.2 1.1 0 0.8-0.6 3.4-0.3 2.6-1.3 8-0.7 5.2-2.2 14.7 8.5-6.7 18.7-12.3 10.4-5.6 20.8-9.5 10.4-4.1 20-6.3 9.7-2.4 16.9-2.4zm-1845.9 280.6v-14l35-55.3h22.2v55.1h10.4v14.2h-10.4v14.8h-16.9v-14.8zm39.9-49.9l-22.1 35v0.7h22.8v-35.7zm52.7 53l-10.7-10.7 19.1-19.2 10.7 10.8zm38.2-59.9l10.8 10.9-19.1 19.1-10.8-10.8zm0 59.9l-19.1-19.1 10.8-10.8 19.1 19.1zm-19.1-40.7l-10.8 10.8-19-19.1 10.7-10.9zm44.7 37.6v-14l35-55.3h22.2v55.1h10.4v14.2h-10.4v14.8h-16.9v-14.8zm39.9-49.9l-22.1 35v0.7h22.8v-35.7zm140.6 10.1h-17.9q-0.5-3.5-2-6.2-1.5-2.8-3.9-4.7-2.4-2-5.5-3-3-1-6.7-1-6.5 0-11.3 3.2-4.8 3.2-7.5 9.4-2.7 6.1-2.7 14.9 0 9 2.7 15.1 2.7 6.1 7.5 9.2 4.9 3.1 11.2 3.1 3.6 0 6.6-0.9 3.1-1 5.5-2.8 2.3-1.8 3.9-4.4 1.6-2.7 2.2-6l17.9 0.1q-0.7 5.7-3.4 11.1-2.8 5.4-7.4 9.6-4.7 4.2-11.1 6.6-6.4 2.5-14.5 2.5-11.2 0-20-5.1-8.8-5.1-13.9-14.8-5.1-9.6-5.1-23.3 0-13.8 5.1-23.4 5.2-9.7 14-14.8 8.9-5 19.9-5 7.3 0 13.6 2 6.2 2.1 11.1 6 4.8 3.9 7.8 9.6 3.1 5.6 3.9 13zm30.4 55.8q-6.1 0-10.8-2.1-4.7-2.1-7.4-6.3-2.7-4.2-2.7-10.4 0-5.3 1.9-8.8 1.9-3.6 5.2-5.8 3.4-2.2 7.6-3.3 4.2-1.1 8.9-1.5 5.5-0.6 8.9-1.1 3.3-0.5 4.8-1.6 1.5-1 1.5-3v-0.2q0-3.9-2.4-6.1-2.4-2.1-6.9-2.1-4.7 0-7.5 2.1-2.8 2-3.7 5.2l-16.1-1.4q1.2-5.7 4.8-9.9 3.6-4.2 9.3-6.5 5.8-2.3 13.3-2.3 5.2 0 10 1.2 4.9 1.3 8.6 3.9 3.7 2.6 5.9 6.6 2.2 4 2.2 9.7v42.5h-16.6v-8.7h-0.4q-1.6 2.9-4.1 5.2-2.5 2.2-6.1 3.5-3.6 1.2-8.2 1.2zm5-12.1q3.8 0 6.8-1.5 2.9-1.5 4.6-4.2 1.7-2.6 1.7-5.9v-6.7q-0.9 0.5-2.3 1-1.4 0.4-3.1 0.7-1.8 0.4-3.6 0.7-1.7 0.2-3.2 0.4-3 0.5-5.3 1.4-2.3 1-3.6 2.7-1.3 1.7-1.3 4.1 0 3.6 2.6 5.5 2.7 1.8 6.7 1.8zm43.9 10.9v-63.1h16.9v11h0.7q1.7-5.8 5.8-8.8 4-3.1 9.3-3.1 1.3 0 2.8 0.2 1.5 0.2 2.7 0.4v15.6q-1.2-0.4-3.4-0.7-2.2-0.3-4-0.3-3.8 0-6.9 1.7-3 1.7-4.7 4.6-1.7 3-1.7 6.8v35.7zm74.2 0v-84.1h33.1q9.5 0 16.2 3.4 6.7 3.4 10.3 9.6 3.5 6.1 3.5 14.5 0 8.4-3.6 14.4-3.6 6-10.4 9.2-0.4 0.2-0.8 0.3l17.8 32.7h-19.6l-15.9-29.8h-12.9v29.8zm17.7-29.8v-14.3h-7.2v14.3zm12-14.3q5.1 0 8.5-1.4 3.3-1.4 5-4.2 1.6-2.8 1.6-6.9 0-4.2-1.6-7.1-1.7-2.9-5.1-4.3-3.3-1.6-8.5-1.6h-11.9v25.5zm73.2 45.3q-9.7 0-16.7-3.9-7-4-10.7-11.2-3.8-7.4-3.8-17.3 0-9.8 3.8-17.1 3.7-7.4 10.6-11.5 6.9-4.1 16.1-4.1 6.2 0 11.6 2 5.4 2 9.4 6 4.1 4 6.3 10 2.3 6 2.3 14v4.9h-42.9q0 4.7 1.8 8.1 1.7 3.4 4.9 5.2 3.2 1.9 7.6 1.9 2.9 0 5.3-0.8 2.4-0.9 4.2-2.5 1.7-1.6 2.6-4l16.1 1q-1.2 5.9-5 10.2-3.8 4.3-9.8 6.8-5.9 2.3-13.7 2.3zm-14-28.2v-10.3q0.1-0.3 0.1-0.6h-10.3v10.9zm26.4-10.9q0-3.8-1.7-6.7-1.6-2.9-4.5-4.5-2.9-1.7-6.7-1.7-3.9 0-7 1.8-3 1.8-4.8 4.9-1.6 2.8-1.7 6.2zm45.2 1.4v36.5h-17.4v-63.1h16.6v11.2h0.8q2-5.5 7-8.7 4.9-3.3 11.9-3.3 6.5 0 11.4 2.9 4.9 2.9 7.6 8.2 2.7 5.3 2.7 12.7v40.1h-17.5v-37q0.1-5.8-2.9-9.1-3-3.2-8.2-3.2-3.6 0-6.3 1.5-2.6 1.5-4.1 4.4-1.5 2.9-1.6 6.9zm49.9-26.6h8.6v-15.1h17.4v15.1h11.9v13.2h-11.9v30.5q0 2.5 0.8 3.8 0.7 1.3 2 1.9 1.4 0.5 3.1 0.5 1.3 0 2.5-0.2 1.2-0.3 1.9-0.4l2.7 13q-1.3 0.4-3.7 1-2.3 0.6-5.7 0.7-6.3 0.2-11.1-1.7-4.7-1.9-7.3-6-2.6-4.1-2.6-10.3v-32.8h-8.6zm67.2 64.3q-6 0-10.7-2.1-4.8-2.2-7.5-6.3-2.7-4.2-2.7-10.5 0-5.2 1.9-8.8 1.9-3.6 5.3-5.7 3.3-2.2 7.5-3.3 4.3-1.1 8.9-1.6 5.5-0.6 8.9-1.1 3.3-0.5 4.8-1.5 1.6-1 1.6-3.1v-0.2q0-3.9-2.5-6-2.4-2.2-6.9-2.2-4.7 0-7.5 2.1-2.8 2.1-3.7 5.2l-16.1-1.3q1.2-5.8 4.8-10 3.6-4.2 9.3-6.4 5.8-2.3 13.3-2.3 5.2 0 10 1.2 4.9 1.2 8.6 3.8 3.8 2.6 5.9 6.7 2.2 4 2.2 9.6v42.6h-16.5v-8.8h-0.5q-1.5 3-4.1 5.2-2.5 2.2-6.1 3.5-3.5 1.3-8.2 1.3zm5-12.1q3.8 0 6.8-1.5 2.9-1.6 4.6-4.2 1.7-2.7 1.7-6v-6.7q-0.8 0.6-2.3 1-1.4 0.4-3.1 0.8-1.8 0.3-3.5 0.6-1.8 0.2-3.2 0.5-3.1 0.4-5.4 1.4-2.3 1-3.6 2.7-1.2 1.6-1.2 4.1 0 3.5 2.5 5.4 2.7 1.9 6.7 1.9zm43.9-73.3h17.5v84.2h-17.5zm83.9 85.3q-8.7 0-15-3.1-6.3-3.1-9.7-8.5-3.4-5.4-3.4-12 0-4.9 2-8.7 1.9-3.8 5.5-7 3.4-3.2 7.8-6.2-0.2-0.3-0.4-0.6-3.3-4.1-5.4-8.7-2.2-4.6-2.2-10 0-6.2 2.8-11.1 2.9-4.8 8.1-7.7 5.1-2.8 12-2.8 6.7 0 11.6 2.7 4.9 2.7 7.5 7.2 2.7 4.5 2.7 9.9 0 5.9-3 10.8-2.9 4.8-8.2 8.6l-4.9 3.6 13.8 15.9q0.8-1.5 1.5-3.1 2.1-5.2 2.1-11.5h14.5q0 7.8-1.7 14-1.7 6.1-4.7 10.7-0.6 1-1.2 1.8l12.6 14.6h-18.2l-5.1-5.7q-4.5 3.6-10.1 5.2-5.7 1.7-11.3 1.7zm-12.8-45.5q3.1 3.7 6.1 7.2l2.8 3.1 11.7-8.4-2.9-3.4q-2.9-3.5-5.3-6.5-0.1 0-0.2-0.1l-11.8 7.8q-0.2 0.1-0.4 0.3zm16.6-11q3.2-2 4.6-4.2 1.5-2.3 1.5-4.9 0-2.5-2-4.7-2-2.1-5.7-2.1-2.4 0-4.2 1.1-1.8 1.1-2.9 2.9-1 1.7-1 3.8 0.1 2.7 1.5 5.4 1.5 2.6 3.8 5.6zm-8.2 21.7q-3.4 2.5-5.1 5.2-1.7 2.6-1.7 5 0 3 1.5 5.4 1.5 2.4 4.2 3.8 2.7 1.3 6.3 1.3 4.5 0 8.8-2 1.2-0.6 2.4-1.3l-15.9-17.8zm16.4 17.4l9.4 10.5q0.2-0.1 0.4-0.2 1.2-0.8 2.3-1.5 1.2-0.7 2.4-1.5 3.1-2.3 5.6-5.6l-10.4-12q-1.8 3.3-4.3 5.9-2.5 2.6-5.4 4.4zm63.8-53.2v-14.7h68.8v14.7h-25.6v69.4h-17.5v-69.4zm73.3 69.4v-63.1h16.9v11h0.7q1.7-5.8 5.8-8.8 4-3.1 9.3-3.1 1.3 0 2.8 0.2 1.5 0.2 2.7 0.4v15.6q-1.3-0.4-3.4-0.7-2.2-0.3-4-0.3-3.8 0-6.9 1.7-3 1.6-4.7 4.6-1.7 3-1.7 6.8v35.7zm63.3 1.2q-6 0-10.8-2.1-4.7-2.1-7.4-6.3-2.7-4.2-2.7-10.4 0-5.3 1.9-8.8 1.9-3.6 5.3-5.8 3.3-2.2 7.5-3.3 4.3-1.1 8.9-1.5 5.5-0.6 8.9-1.1 3.3-0.5 4.8-1.6 1.6-1 1.6-3v-0.3q0-3.9-2.5-6-2.4-2.1-6.9-2.1-4.7 0-7.5 2.1-2.8 2-3.7 5.1l-16.1-1.3q1.2-5.7 4.8-9.9 3.6-4.2 9.3-6.5 5.8-2.3 13.3-2.3 5.2 0 10 1.2 4.9 1.3 8.6 3.9 3.8 2.5 5.9 6.6 2.2 4 2.2 9.7v42.5h-16.5v-8.7h-0.5q-1.5 2.9-4.1 5.2-2.5 2.2-6.1 3.5-3.6 1.2-8.2 1.2zm5-12.1q3.8 0 6.8-1.5 2.9-1.6 4.6-4.2 1.7-2.6 1.7-5.9v-6.7q-0.8 0.5-2.3 1-1.4 0.4-3.1 0.7-1.8 0.4-3.5 0.6-1.8 0.3-3.2 0.5-3.1 0.5-5.4 1.4-2.3 1-3.6 2.7-1.2 1.7-1.2 4.1 0 3.6 2.5 5.5 2.7 1.8 6.7 1.8zm100.3-52.2l-22 63.1h-19.6l-22-63.1h18.4l13.1 45.2h0.6l13.1-45.2zm35.5 64.3q-9.7 0-16.7-3.9-6.9-4-10.7-11.3-3.8-7.3-3.8-17.2 0-9.8 3.8-17.1 3.8-7.4 10.6-11.5 6.9-4.1 16.1-4.1 6.3 0 11.6 2 5.4 2 9.4 6 4.1 4 6.3 10 2.3 6 2.3 14v4.8h-42.8v0.1q0 4.7 1.7 8.1 1.7 3.4 4.9 5.2 3.2 1.9 7.6 1.9 2.9 0 5.3-0.8 2.5-0.9 4.2-2.5 1.7-1.6 2.6-4l16.1 1q-1.2 5.9-5 10.2-3.8 4.3-9.8 6.8-5.9 2.3-13.7 2.3zm-13.9-28.3v-10.2q0-0.3 0-0.6h-10.3v10.8zm26.4-10.8q0-3.8-1.6-6.7-1.7-2.9-4.6-4.6-2.9-1.6-6.7-1.6-3.9 0-7 1.8-3 1.8-4.8 4.9-1.5 2.8-1.7 6.2zm27.8-46.2h17.5v84.1h-17.5zm58.4 84.1v-84.1h33.1q9.6 0 16.3 3.7 6.7 3.6 10.2 10 3.6 6.4 3.6 14.8 0 8.4-3.6 14.8-3.6 6.4-10.4 10-6.9 3.5-16.5 3.5h-14.9v27.3zm17.7-27.3v-14.2h-6.2v14.2zm12.1-14.2q5.1 0 8.4-1.8 3.4-1.8 5-4.9 1.7-3.2 1.7-7.4 0-4.2-1.7-7.3-1.6-3.2-5-4.9-3.3-1.8-8.5-1.8h-12v28.1zm44.6-42.6h17.4v84.1h-17.4zm49.3 85.3q-6 0-10.7-2.1-4.7-2.1-7.4-6.3-2.7-4.1-2.7-10.4 0-5.2 1.9-8.8 1.9-3.6 5.2-5.8 3.3-2.1 7.6-3.3 4.2-1.1 8.9-1.5 5.5-0.6 8.8-1.1 3.4-0.5 4.9-1.5 1.5-1.1 1.5-3.1v-0.2q0-3.9-2.4-6.1-2.4-2.1-6.9-2.1-4.7 0-7.5 2.1-2.8 2-3.7 5.2l-16.1-1.3q1.2-5.8 4.8-10 3.6-4.2 9.3-6.5 5.7-2.3 13.3-2.3 5.2 0 10 1.3 4.8 1.2 8.6 3.8 3.7 2.6 5.9 6.6 2.2 4.1 2.2 9.7v42.5h-16.6v-8.7h-0.5q-1.5 2.9-4 5.2-2.6 2.2-6.1 3.5-3.6 1.2-8.3 1.2zm5-12.1q3.9 0 6.9-1.5 2.9-1.5 4.6-4.2 1.6-2.6 1.7-5.9v-6.7q-0.9 0.5-2.3 1-1.4 0.4-3.2 0.8-1.7 0.3-3.5 0.6-1.7 0.2-3.2 0.4-3 0.5-5.3 1.5-2.3 0.9-3.6 2.6-1.3 1.7-1.3 4.1 0 3.6 2.6 5.5 2.6 1.8 6.6 1.8zm61.5-25.5v36.4h-17.5v-63.1h16.6v11.2h0.8q2.1-5.5 7-8.7 4.9-3.3 11.9-3.3 6.5 0 11.4 2.9 4.9 2.9 7.6 8.2 2.7 5.3 2.7 12.7v40.1h-17.4v-37q0-5.8-3-9-3-3.3-8.2-3.3-3.6 0-6.3 1.5-2.6 1.5-4.1 4.4-1.5 2.9-1.5 7zm71.7 0v36.4h-17.5v-63.1h16.7v11.2h0.7q2.1-5.5 7-8.7 4.9-3.3 11.9-3.3 6.6 0 11.5 2.9 4.8 2.9 7.5 8.2 2.7 5.3 2.7 12.7v40.1h-17.4v-37q0-5.8-3-9-3-3.3-8.2-3.3-3.5 0-6.2 1.5-2.7 1.5-4.2 4.4-1.5 2.9-1.5 7zm82.9 37.7q-9.7 0-16.7-4-6.9-4-10.7-11.2-3.8-7.3-3.8-17.3 0-9.8 3.8-17.1 3.8-7.4 10.6-11.5 6.9-4.1 16.2-4.1 6.2 0 11.5 2 5.4 2 9.5 6 4 4 6.3 10 2.2 6 2.2 14.1v4.8h-42.8q0 4.7 1.7 8.1 1.8 3.4 5 5.3 3.1 1.8 7.5 1.8 2.9 0 5.4-0.8 2.4-0.8 4.1-2.5 1.7-1.6 2.6-4l16.1 1.1q-1.2 5.8-5 10.1-3.8 4.4-9.7 6.8-6 2.4-13.8 2.4zm-13.9-28.3v-10.3q0-0.3 0-0.6h-10.3v10.9zm26.4-10.9q0-3.8-1.6-6.7-1.7-2.9-4.6-4.5-2.8-1.7-6.7-1.7-3.9 0-7 1.8-3 1.8-4.7 4.9-1.6 2.8-1.8 6.2zm27.8 37.9v-63.1h16.9v11.1h0.7q1.7-5.9 5.8-8.9 4-3.1 9.3-3.1 1.3 0 2.8 0.2 1.5 0.2 2.7 0.5v15.5q-1.2-0.4-3.4-0.7-2.2-0.3-4-0.3-3.8 0-6.9 1.7-3 1.7-4.7 4.6-1.7 3-1.7 6.8v35.7z"/>
</svg>