<svg width="1930" height="730" viewBox="0 0 1930 730" fill="none" xmlns="http://www.w3.org/2000/svg">
<path d="M429.314 234.008C429.798 232.265 430.331 230.862 430.912 229.797C431.493 228.635 432.8 227.812 434.833 227.328L477.674 217.452C477.868 217.452 478.11 217.404 478.4 217.307C478.691 217.21 478.933 217.162 479.126 217.162C480.482 217.162 481.402 217.743 481.886 218.905C482.467 220.067 482.757 221.18 482.757 222.245C482.757 222.439 482.709 222.826 482.612 223.407C482.612 223.988 482.563 224.375 482.467 224.569L422.343 407.261C420.794 411.231 419.487 414.474 418.422 416.991C417.454 419.412 416.438 421.445 415.373 423.091C414.404 424.64 413.243 425.947 411.887 427.012C410.629 428.077 408.886 429.142 406.659 430.207C404.529 431.272 401.818 432.482 398.527 433.838C395.235 435.29 391.072 437.226 386.037 439.646C384.295 440.518 382.939 440.954 381.971 440.954C380.422 440.954 379.26 440.373 378.486 439.211C377.711 438.049 377.082 436.742 376.598 435.29L351.764 346.848L320.686 410.892C320.202 412.054 319.089 413.603 317.346 415.539C315.603 417.476 313.618 419.46 311.392 421.493C309.262 423.527 307.083 425.511 304.857 427.448C302.727 429.287 300.984 430.788 299.628 431.95C298.37 433.015 297.014 434.08 295.562 435.145C294.207 436.209 292.803 437.178 291.351 438.049C289.898 438.92 288.495 439.598 287.139 440.082C285.88 440.663 284.67 440.954 283.508 440.954C280.991 440.954 279.345 439.55 278.571 436.742L222.224 238.074C222.03 237.3 221.788 236.525 221.497 235.751C221.304 234.976 221.207 234.25 221.207 233.572C221.207 231.152 221.788 229.119 222.95 227.473C224.112 225.827 226.145 224.423 229.049 223.261C231.954 222.1 235.826 221.18 240.667 220.502C245.508 219.728 251.656 219.098 259.111 218.614C262.596 218.13 265.501 217.791 267.824 217.598C270.245 217.404 272.278 217.307 273.924 217.307C276.731 217.307 278.571 217.743 279.442 218.614C280.314 219.486 281.088 220.938 281.766 222.971L311.682 338.134L336.516 295.438L326.495 251.726C325.914 249.402 325.672 247.659 325.769 246.497C325.769 244.271 326.35 242.48 327.512 241.124C328.673 239.769 330.61 238.655 333.321 237.784C336.031 236.913 339.565 236.138 343.922 235.46C348.376 234.783 353.797 234.008 360.187 233.137C362.995 232.75 365.415 232.459 367.448 232.265C369.482 232.072 371.224 231.975 372.677 231.975C375.581 231.975 377.566 232.411 378.631 233.282C379.696 234.153 380.47 235.557 380.954 237.494L400.705 326.952L429.314 234.008Z" fill="#1A1A1A"/>
<path d="M487.549 369.503C488.808 356.239 490.067 343.12 491.325 330.147C492.584 317.174 493.697 303.861 494.665 290.21C494.859 287.015 495.149 284.837 495.537 283.675C496.021 282.416 497.134 281.593 498.877 281.206C507.106 279.56 515.723 277.866 524.727 276.123C533.731 274.284 542.444 271.96 550.867 269.153C551.158 269.056 551.594 269.007 552.174 269.007C553.239 269.007 553.772 269.395 553.772 270.169L540.702 411.618C540.411 414.813 540.072 417.04 539.685 418.298C539.298 419.46 538.233 420.235 536.49 420.622C528.261 423.139 519.935 425.947 511.511 429.045C503.088 432.143 494.181 435.29 484.79 438.485C484.5 438.582 484.064 438.63 483.483 438.63C482.418 438.63 481.886 438.146 481.886 437.178C481.886 437.081 481.982 435.774 482.176 433.257C482.37 430.739 482.612 427.496 482.902 423.527C483.289 419.557 483.677 415.103 484.064 410.166C484.451 405.228 484.839 400.291 485.226 395.353C485.71 390.415 486.146 385.671 486.533 381.121C486.92 376.571 487.259 372.698 487.549 369.503ZM498.441 253.613C498.732 249.45 498.925 246.255 499.022 244.029C499.216 241.802 499.361 240.156 499.458 239.091C499.555 237.929 499.603 237.203 499.603 236.913C499.603 236.622 499.603 236.429 499.603 236.332C499.7 236.138 499.748 235.848 499.748 235.46C499.845 234.976 499.942 234.057 500.039 232.701C500.136 231.249 500.281 229.167 500.474 226.456C500.668 223.746 500.958 220.018 501.346 215.274C501.539 212.079 501.83 209.901 502.217 208.739C502.701 207.48 503.815 206.657 505.557 206.27C513.787 204.624 522.403 202.93 531.407 201.187C540.411 199.348 549.125 197.024 557.548 194.217C557.838 194.12 558.274 194.071 558.855 194.071C559.145 194.652 559.533 195.039 560.017 195.233L560.452 195.524L557.257 235.315C556.967 238.51 556.58 240.737 556.096 241.995C555.708 243.254 554.692 244.029 553.046 244.319C544.816 245.868 536.49 247.562 528.067 249.402C519.644 251.241 510.737 253.081 501.346 254.92C501.055 255.017 500.62 255.066 500.039 255.066C498.974 255.066 498.441 254.582 498.441 253.613Z" fill="#1A1A1A"/>
<path d="M582.672 308.218C583.833 294.954 584.753 281.836 585.431 268.862C586.205 255.889 587.028 242.576 587.9 228.925C588.093 225.73 588.384 223.552 588.771 222.39C589.255 221.132 590.369 220.309 592.111 219.921C601.115 218.275 610.119 216.63 619.123 214.984C628.224 213.241 637.325 210.966 646.425 208.158C646.716 208.061 647.151 208.013 647.732 208.013C648.797 208.013 649.33 208.497 649.33 209.465L630.451 416.846V419.315C630.451 420.186 630.112 420.912 629.434 421.493C628.756 421.977 627.159 422.558 624.642 423.236L586.593 437.178C585.528 437.662 584.124 438.146 582.381 438.63C580.638 439.211 578.944 439.501 577.298 439.501C575.943 439.501 574.733 439.162 573.668 438.485C572.7 437.807 572.215 436.645 572.215 434.999V434.128C572.99 424.349 573.716 414.813 574.394 405.519C575.168 396.127 575.943 386.446 576.717 376.474C577.589 366.502 578.509 355.949 579.477 344.815C580.445 333.681 581.51 321.482 582.672 308.218Z" fill="#1A1A1A"/>
<path d="M772.916 348.445C773.207 345.347 773.497 342.104 773.788 338.715C774.175 335.327 774.61 331.793 775.095 328.114C772.868 322.305 769.721 317.609 765.655 314.027C761.589 310.348 756.506 308.508 750.406 308.508C744.404 308.508 739.321 310.251 735.158 313.737C730.995 317.125 727.654 321.337 725.137 326.371C722.62 331.406 720.78 336.73 719.619 342.346C718.554 347.864 718.021 352.754 718.021 357.014C718.021 362.242 718.312 367.421 718.893 372.553C719.57 377.684 720.587 382.331 721.942 386.494C723.395 390.657 725.282 394.046 727.606 396.66C729.93 399.177 732.834 400.436 736.32 400.436C744.839 400.145 751.762 398.209 757.087 394.627C762.412 391.045 766.672 386.688 769.866 381.557L772.916 348.445ZM823.6 416.411C823.6 416.604 823.551 416.846 823.454 417.137C823.454 417.33 823.454 417.524 823.454 417.718C823.454 418.202 823.454 418.589 823.454 418.879C823.551 419.17 823.6 419.46 823.6 419.751C823.6 420.622 823.261 421.348 822.583 421.929C822.002 422.413 820.405 422.994 817.791 423.672L778.87 436.306C777.805 436.694 776.402 437.178 774.659 437.759C772.916 438.339 771.222 438.63 769.576 438.63C768.221 438.63 767.01 438.291 765.945 437.613C764.977 436.936 764.493 435.677 764.493 433.838C764.493 432.095 764.493 430.691 764.493 429.626C764.59 428.561 764.638 427.593 764.638 426.721C764.735 425.753 764.832 424.737 764.929 423.672C765.122 422.607 765.316 421.203 765.51 419.46C758.248 425.269 750.745 429.916 743 433.402C735.351 436.887 727.267 438.63 718.747 438.63C709.453 438.63 701.175 436.403 693.914 431.95C686.749 427.593 680.698 421.735 675.761 414.377C670.823 406.922 667.047 398.451 664.433 388.963C661.916 379.378 660.657 369.406 660.657 359.047C660.657 345.589 662.836 333.342 667.192 322.305C671.646 311.171 677.649 301.683 685.2 293.841C692.752 285.902 701.562 279.802 711.631 275.542C721.7 271.186 732.398 269.007 743.726 269.007C749.825 269.007 755.634 270.605 761.153 273.8C766.768 276.995 772.045 281.109 776.982 286.144C777.273 281.4 777.612 276.269 777.999 270.75C778.386 265.135 778.774 259.471 779.161 253.759C779.548 247.95 779.935 242.238 780.323 236.622C780.71 231.007 781.049 225.876 781.339 221.228C781.339 220.357 781.63 219.679 782.211 219.195C782.888 218.614 784.534 217.985 787.148 217.307L827.956 207.577C829.021 207.384 830.425 206.948 832.168 206.27C833.911 205.592 835.605 205.254 837.251 205.254C838.509 205.254 839.671 205.544 840.736 206.125C841.898 206.706 842.479 207.819 842.479 209.465C842.479 209.659 842.43 210.094 842.334 210.772C842.334 211.353 842.334 211.74 842.334 211.934L823.6 416.411Z" fill="#1A1A1A"/>
<path d="M998.16 419.46C998.063 420.332 997.869 421.203 997.579 422.074C997.385 422.849 996.756 423.478 995.691 423.962C995.304 424.156 993.367 424.882 989.882 426.141C986.493 427.302 982.524 428.706 977.974 430.352C973.52 431.901 969.067 433.45 964.613 434.999C960.256 436.645 956.916 437.904 954.592 438.775C953.431 439.259 951.978 439.743 950.236 440.227C948.59 440.808 946.944 441.099 945.298 441.099C943.943 441.099 942.732 440.76 941.667 440.082C940.699 439.404 940.215 438.146 940.215 436.306C940.215 432.046 940.312 428.174 940.506 424.688C940.796 421.106 941.135 417.379 941.522 413.506C941.909 409.633 942.297 405.373 942.684 400.726C943.168 395.982 943.604 390.367 943.991 383.88C944.475 375.36 945.008 367.179 945.589 359.337C946.169 351.398 946.75 343.169 947.331 334.649L949.364 309.815C949.655 305.749 949.945 301.634 950.236 297.471C950.526 293.211 950.817 288.855 951.107 284.401L952.705 266.684C952.705 266.49 952.414 266.393 951.833 266.393C951.059 266.393 949.752 266.587 947.912 266.974C946.073 267.265 943.894 267.652 941.377 268.136C938.86 268.62 936.052 269.153 932.954 269.733C929.953 270.218 926.855 270.702 923.66 271.186C922.885 271.186 922.111 271.04 921.336 270.75C920.658 270.363 920.319 269.927 920.319 269.443C920.319 269.056 920.416 268.765 920.61 268.572L944.136 227.473C949.461 226.311 955.173 225.149 961.273 223.988C967.469 222.729 974.101 221.616 981.169 220.647C988.236 219.679 995.74 218.905 1003.68 218.324C1011.62 217.646 1020.04 217.307 1028.95 217.307C1039.02 217.501 1048.79 218.517 1058.28 220.357C1067.87 222.1 1076.34 225.101 1083.7 229.361C1091.15 233.524 1097.11 239.236 1101.56 246.497C1106.11 253.662 1108.39 262.763 1108.39 273.8C1108.39 279.899 1107.32 285.515 1105.19 290.646C1103.16 295.777 1100.5 300.424 1097.2 304.587C1094.01 308.654 1090.47 312.284 1086.6 315.479C1082.73 318.577 1079 321.24 1075.42 323.467C1071.93 325.693 1068.84 327.485 1066.13 328.84C1063.41 330.099 1061.57 330.921 1060.61 331.309C1060.61 331.502 1060.66 331.744 1060.75 332.035C1060.95 332.325 1061.28 332.906 1061.77 333.778C1062.25 334.552 1062.93 335.714 1063.8 337.263C1064.77 338.715 1065.98 340.748 1067.43 343.362C1068.98 345.686 1070.82 348.784 1072.95 352.657C1075.08 356.529 1077.6 361.128 1080.5 366.453C1083.5 371.681 1086.94 377.539 1090.81 384.025C1094.69 390.512 1099.14 397.483 1104.17 404.938C1105.82 406.39 1107.71 407.31 1109.84 407.697C1111.97 407.987 1113.95 408.181 1115.79 408.278C1117.63 408.278 1119.18 408.375 1120.44 408.568C1121.7 408.665 1122.33 409.246 1122.33 410.311C1122.33 411.086 1121.5 412.005 1119.86 413.07C1118.31 414.039 1116.47 415.055 1114.34 416.12C1112.21 417.185 1110.03 418.202 1107.8 419.17C1105.67 420.138 1104.03 420.912 1102.87 421.493C1100.54 422.655 1098.12 423.769 1095.61 424.834C1093.09 425.899 1090.38 427.109 1087.47 428.464C1084.57 429.723 1081.33 431.223 1077.74 432.966C1074.26 434.709 1070.29 436.79 1065.83 439.211C1064.67 439.889 1063.56 440.324 1062.49 440.518C1061.53 440.808 1060.61 440.954 1059.74 440.954C1057.99 440.954 1056.49 440.518 1055.23 439.646C1053.97 438.872 1052.91 437.904 1052.04 436.742C1051.17 435.58 1050.44 434.37 1049.86 433.111C1049.38 431.95 1048.94 430.981 1048.55 430.207L1005.28 339.006L998.16 419.46ZM1007.02 321.143C1011.96 321.143 1017.09 319.884 1022.41 317.367C1027.74 314.85 1032.58 311.607 1036.93 307.637C1041.29 303.668 1044.87 299.166 1047.68 294.131C1050.49 289.097 1051.89 284.014 1051.89 278.883C1051.89 264.844 1043.47 257.825 1026.62 257.825C1023.43 257.825 1020.77 258.067 1018.64 258.551C1016.51 258.938 1014.57 259.229 1012.83 259.422L1007.02 321.143Z" fill="#1A1A1A"/>
<path d="M1137.87 369.503C1139.12 356.239 1140.38 343.12 1141.64 330.147C1142.9 317.174 1144.01 303.861 1144.98 290.21C1145.18 287.015 1145.47 284.837 1145.85 283.675C1146.34 282.416 1147.45 281.593 1149.19 281.206C1157.42 279.56 1166.04 277.866 1175.04 276.123C1184.05 274.284 1192.76 271.96 1201.18 269.153C1201.47 269.056 1201.91 269.007 1202.49 269.007C1203.56 269.007 1204.09 269.395 1204.09 270.169L1191.02 411.618C1190.73 414.813 1190.39 417.04 1190 418.298C1189.61 419.46 1188.55 420.235 1186.81 420.622C1178.58 423.139 1170.25 425.947 1161.83 429.045C1153.41 432.143 1144.5 435.29 1135.11 438.485C1134.82 438.582 1134.38 438.63 1133.8 438.63C1132.73 438.63 1132.2 438.146 1132.2 437.178C1132.2 437.081 1132.3 435.774 1132.49 433.257C1132.69 430.739 1132.93 427.496 1133.22 423.527C1133.61 419.557 1133.99 415.103 1134.38 410.166C1134.77 405.228 1135.16 400.291 1135.54 395.353C1136.03 390.415 1136.46 385.671 1136.85 381.121C1137.24 376.571 1137.58 372.698 1137.87 369.503ZM1148.76 253.613C1149.05 249.45 1149.24 246.255 1149.34 244.029C1149.53 241.802 1149.68 240.156 1149.77 239.091C1149.87 237.929 1149.92 237.203 1149.92 236.913C1149.92 236.622 1149.92 236.429 1149.92 236.332C1150.02 236.138 1150.07 235.848 1150.07 235.46C1150.16 234.976 1150.26 234.057 1150.36 232.701C1150.45 231.249 1150.6 229.167 1150.79 226.456C1150.98 223.746 1151.28 220.018 1151.66 215.274C1151.86 212.079 1152.15 209.901 1152.53 208.739C1153.02 207.48 1154.13 206.657 1155.87 206.27C1164.1 204.624 1172.72 202.93 1181.72 201.187C1190.73 199.348 1199.44 197.024 1207.86 194.217C1208.16 194.12 1208.59 194.071 1209.17 194.071C1209.46 194.652 1209.85 195.039 1210.33 195.233L1210.77 195.524L1207.57 235.315C1207.28 238.51 1206.9 240.737 1206.41 241.995C1206.03 243.254 1205.01 244.029 1203.36 244.319C1195.13 245.868 1186.81 247.562 1178.38 249.402C1169.96 251.241 1161.05 253.081 1151.66 254.92C1151.37 255.017 1150.94 255.066 1150.36 255.066C1149.29 255.066 1148.76 254.582 1148.76 253.613Z" fill="#1A1A1A"/>
<path d="M1332.9 348.445C1333.19 345.347 1333.48 342.104 1333.77 338.715C1334.16 335.327 1334.6 331.793 1335.08 328.114C1332.85 322.305 1329.71 317.609 1325.64 314.027C1321.58 310.348 1316.49 308.508 1310.39 308.508C1304.39 308.508 1299.31 310.251 1295.14 313.737C1290.98 317.125 1287.64 321.337 1285.12 326.371C1282.61 331.406 1280.77 336.73 1279.61 342.346C1278.54 347.864 1278.01 352.754 1278.01 357.014C1278.01 362.242 1278.3 367.421 1278.88 372.553C1279.56 377.684 1280.57 382.331 1281.93 386.494C1283.38 390.657 1285.27 394.046 1287.59 396.66C1289.92 399.177 1292.82 400.436 1296.31 400.436C1304.83 400.145 1311.75 398.209 1317.07 394.627C1322.4 391.045 1326.66 386.688 1329.85 381.557L1332.9 348.445ZM1383.59 416.411C1383.59 416.604 1383.54 416.846 1383.44 417.137C1383.44 417.33 1383.44 417.524 1383.44 417.718C1383.44 418.202 1383.44 418.589 1383.44 418.879C1383.54 419.17 1383.59 419.46 1383.59 419.751C1383.59 420.622 1383.25 421.348 1382.57 421.929C1381.99 422.413 1380.39 422.994 1377.78 423.672L1338.86 436.306C1337.79 436.694 1336.39 437.178 1334.65 437.759C1332.9 438.339 1331.21 438.63 1329.56 438.63C1328.21 438.63 1327 438.291 1325.93 437.613C1324.96 436.936 1324.48 435.677 1324.48 433.838C1324.48 432.095 1324.48 430.691 1324.48 429.626C1324.58 428.561 1324.63 427.593 1324.63 426.721C1324.72 425.753 1324.82 424.737 1324.92 423.672C1325.11 422.607 1325.3 421.203 1325.5 419.46C1318.24 425.269 1310.73 429.916 1302.99 433.402C1295.34 436.887 1287.25 438.63 1278.73 438.63C1269.44 438.63 1261.16 436.403 1253.9 431.95C1246.74 427.593 1240.69 421.735 1235.75 414.377C1230.81 406.922 1227.03 398.451 1224.42 388.963C1221.9 379.378 1220.64 369.406 1220.64 359.047C1220.64 345.589 1222.82 333.342 1227.18 322.305C1231.63 311.171 1237.64 301.683 1245.19 293.841C1252.74 285.902 1261.55 279.802 1271.62 275.542C1281.69 271.186 1292.39 269.007 1303.71 269.007C1309.81 269.007 1315.62 270.605 1321.14 273.8C1326.76 276.995 1332.03 281.109 1336.97 286.144C1337.26 281.4 1337.6 276.269 1337.99 270.75C1338.37 265.135 1338.76 259.471 1339.15 253.759C1339.54 247.95 1339.92 242.238 1340.31 236.622C1340.7 231.007 1341.04 225.876 1341.33 221.228C1341.33 220.357 1341.62 219.679 1342.2 219.195C1342.88 218.614 1344.52 217.985 1347.14 217.307L1387.94 207.577C1389.01 207.384 1390.41 206.948 1392.15 206.27C1393.9 205.592 1395.59 205.254 1397.24 205.254C1398.5 205.254 1399.66 205.544 1400.72 206.125C1401.88 206.706 1402.47 207.819 1402.47 209.465C1402.47 209.659 1402.42 210.094 1402.32 210.772C1402.32 211.353 1402.32 211.74 1402.32 211.934L1383.59 416.411Z" fill="#1A1A1A"/>
<path d="M1502.67 269.007C1511.87 269.007 1520.19 270.75 1527.65 274.235C1535.2 277.624 1541.64 282.078 1546.96 287.596C1552.39 293.018 1556.55 299.117 1559.45 305.894C1562.36 312.672 1563.81 319.449 1563.81 326.226C1563.81 332.229 1561.97 338.28 1558.29 344.379C1554.61 350.382 1549.43 355.803 1542.75 360.644C1536.17 365.485 1528.23 369.406 1518.94 372.407C1509.64 375.409 1499.43 376.909 1488.29 376.909C1482.48 376.909 1476.39 376.328 1470 375.167C1470.38 379.33 1471.59 382.912 1473.63 385.913C1475.66 388.915 1478.22 391.383 1481.32 393.32C1484.42 395.256 1487.91 396.708 1491.78 397.677C1495.75 398.548 1499.81 398.984 1503.98 398.984C1508.63 398.984 1513.08 398.596 1517.34 397.822C1521.7 396.95 1525.86 395.837 1529.83 394.482C1533.8 393.126 1537.62 391.625 1541.3 389.98C1544.98 388.334 1548.47 386.688 1551.76 385.042C1552.63 384.848 1553.35 384.703 1553.94 384.606C1554.61 384.413 1555.24 384.316 1555.82 384.316C1555.82 384.316 1555.77 385.09 1555.68 386.639C1555.68 388.188 1555.68 390.367 1555.68 393.175C1555.68 395.982 1555.63 399.371 1555.53 403.34C1555.53 407.31 1555.48 411.715 1555.39 416.556C1555.68 417.04 1555.87 417.524 1555.97 418.008C1556.07 418.492 1556.11 418.879 1556.11 419.17C1556.11 420.332 1555.05 421.59 1552.92 422.946C1550.79 424.301 1547.98 425.705 1544.5 427.157C1541.11 428.609 1537.19 430.013 1532.73 431.369C1528.38 432.724 1523.92 433.934 1519.37 434.999C1514.82 436.161 1510.42 437.032 1506.16 437.613C1501.9 438.291 1498.17 438.63 1494.97 438.63C1484.52 438.63 1474.35 436.79 1464.48 433.111C1454.7 429.529 1445.98 424.349 1438.34 417.572C1430.78 410.795 1424.73 402.566 1420.18 392.884C1415.63 383.202 1413.36 372.311 1413.36 360.208C1413.36 347.526 1415.54 335.666 1419.89 324.628C1424.25 313.495 1430.35 303.813 1438.19 295.583C1446.13 287.354 1455.57 280.867 1466.51 276.123C1477.45 271.379 1489.5 269.007 1502.67 269.007ZM1500.93 307.637C1496.96 307.637 1493.28 308.508 1489.89 310.251C1486.6 311.897 1483.55 314.317 1480.74 317.512C1478.03 320.611 1475.66 324.386 1473.63 328.84C1471.59 333.197 1469.95 338.038 1468.69 343.362C1478.66 341.62 1486.94 339.78 1493.52 337.844C1500.11 335.908 1505.38 333.971 1509.35 332.035C1513.32 330.002 1516.13 328.017 1517.77 326.081C1519.42 324.048 1520.24 322.111 1520.24 320.272C1520.24 318.529 1519.57 316.883 1518.21 315.334C1516.95 313.785 1515.35 312.43 1513.42 311.268C1511.48 310.106 1509.35 309.235 1507.03 308.654C1504.8 307.976 1502.77 307.637 1500.93 307.637Z" fill="#1A1A1A"/>
<path d="M1700.76 312.865C1698.72 312.672 1696.45 312.478 1693.93 312.284C1691.41 311.994 1688.75 311.849 1685.94 311.849C1681.68 311.849 1677.33 312.236 1672.87 313.01C1668.52 313.688 1664.45 315.092 1660.68 317.222C1656.9 319.352 1653.66 322.305 1650.95 326.081C1648.23 329.76 1646.49 334.552 1645.72 340.458C1645.04 347.622 1644.46 353.528 1643.97 358.175C1643.59 362.726 1643.3 366.502 1643.1 369.503C1642.91 372.407 1642.72 374.779 1642.52 376.619C1642.43 378.362 1642.33 380.007 1642.23 381.557C1642.23 381.944 1642.14 383.009 1641.94 384.752C1641.84 386.494 1641.65 388.527 1641.36 390.851C1641.07 393.175 1640.78 395.692 1640.49 398.403C1640.3 401.114 1640.05 403.631 1639.76 405.954C1639.47 408.278 1639.23 410.311 1639.04 412.054C1638.94 413.796 1638.89 414.861 1638.89 415.249C1638.89 416.023 1638.89 416.701 1638.89 417.282C1638.99 417.766 1639.04 418.25 1639.04 418.734C1639.04 419.509 1638.65 420.186 1637.88 420.767C1637.2 421.251 1635.6 421.832 1633.08 422.51L1594.6 436.306C1593.53 436.694 1592.13 437.178 1590.39 437.759C1588.64 438.339 1586.95 438.63 1585.3 438.63C1583.95 438.63 1582.74 438.291 1581.67 437.613C1580.71 436.936 1580.22 435.774 1580.22 434.128L1592.71 290.21C1593 287.015 1593.34 284.837 1593.73 283.675C1594.21 282.416 1595.32 281.593 1597.07 281.206C1605.88 279.463 1614.98 277.721 1624.37 275.978C1633.76 274.139 1642.86 271.815 1651.67 269.007C1652.45 269.007 1652.88 269.153 1652.98 269.443C1653.17 269.637 1653.27 269.975 1653.27 270.46C1653.27 270.653 1653.22 270.944 1653.12 271.331C1653.12 271.718 1652.98 272.59 1652.69 273.945C1652.49 275.3 1652.16 277.382 1651.67 280.19C1651.28 282.9 1650.7 286.725 1649.93 291.662C1654.38 288.177 1659.27 284.982 1664.6 282.078C1670.02 279.173 1675.44 276.704 1680.86 274.671C1686.28 272.541 1691.51 270.895 1696.55 269.733C1701.58 268.475 1705.99 267.846 1709.76 267.846L1700.76 312.865Z" fill="#1A1A1A"/>
<path d="M434.988 525.657V517.557L455.295 485.564H462.278V496.775H458.145L445.343 517.035V517.415H474.202V525.657H434.988ZM458.335 534.207V523.187L458.525 519.6V485.564H468.169V534.207H458.335Z" fill="#1A1A1A"/>
<path d="M510.91 527.462L482.526 499.126L488.749 492.832L517.156 521.239L510.91 527.462ZM488.749 527.462L482.526 521.239L510.91 492.832L517.156 499.126L488.749 527.462Z" fill="#1A1A1A"/>
<path d="M525.778 525.657V517.557L546.086 485.564H553.069V496.775H548.936L536.134 517.035V517.415H564.992V525.657H525.778ZM549.126 534.207V523.187L549.316 519.6V485.564H558.959V534.207H549.126Z" fill="#1A1A1A"/>
<path d="M630.529 502.594H620.125C619.935 501.248 619.547 500.053 618.962 499.007C618.376 497.947 617.623 497.044 616.705 496.3C615.787 495.556 614.726 494.986 613.522 494.59C612.335 494.194 611.044 493.996 609.651 493.996C607.133 493.996 604.94 494.621 603.072 495.872C601.203 497.107 599.754 498.912 598.725 501.288C597.696 503.647 597.181 506.513 597.181 509.886C597.181 513.353 597.696 516.267 598.725 518.626C599.77 520.986 601.227 522.767 603.095 523.97C604.964 525.174 607.125 525.776 609.58 525.776C610.957 525.776 612.232 525.593 613.404 525.229C614.591 524.865 615.644 524.335 616.563 523.638C617.481 522.925 618.241 522.062 618.843 521.049C619.46 520.036 619.888 518.88 620.125 517.581L630.529 517.629C630.259 519.861 629.586 522.015 628.51 524.089C627.449 526.148 626.016 527.992 624.211 529.623C622.421 531.238 620.284 532.521 617.798 533.471C615.328 534.405 612.533 534.872 609.413 534.872C605.075 534.872 601.195 533.891 597.775 531.927C594.371 529.964 591.679 527.121 589.7 523.4C587.736 519.679 586.754 515.174 586.754 509.886C586.754 504.581 587.752 500.068 589.747 496.347C591.742 492.626 594.45 489.792 597.87 487.844C601.29 485.881 605.138 484.899 609.413 484.899C612.232 484.899 614.845 485.295 617.251 486.087C619.674 486.878 621.82 488.034 623.688 489.554C625.557 491.059 627.077 492.903 628.248 495.088C629.436 497.274 630.196 499.775 630.529 502.594Z" fill="#1A1A1A"/>
<path d="M648.117 534.896C645.789 534.896 643.715 534.492 641.894 533.685C640.073 532.861 638.632 531.65 637.571 530.051C636.526 528.436 636.003 526.425 636.003 524.018C636.003 521.991 636.375 520.289 637.12 518.911C637.864 517.534 638.877 516.425 640.16 515.586C641.442 514.747 642.899 514.113 644.53 513.686C646.177 513.258 647.903 512.958 649.708 512.783C651.83 512.562 653.54 512.356 654.838 512.166C656.137 511.96 657.079 511.659 657.665 511.263C658.251 510.867 658.544 510.282 658.544 509.506V509.363C658.544 507.859 658.068 506.695 657.118 505.872C656.184 505.048 654.854 504.637 653.128 504.637C651.307 504.637 649.858 505.04 648.782 505.848C647.705 506.64 646.992 507.637 646.644 508.841L637.286 508.081C637.761 505.864 638.695 503.948 640.089 502.333C641.482 500.702 643.279 499.451 645.48 498.58C647.697 497.693 650.262 497.25 653.176 497.25C655.202 497.25 657.142 497.487 658.995 497.962C660.863 498.437 662.518 499.174 663.959 500.171C665.416 501.169 666.564 502.451 667.403 504.019C668.242 505.571 668.662 507.431 668.662 509.601V534.207H659.066V529.148H658.781C658.195 530.288 657.411 531.294 656.43 532.165C655.448 533.02 654.268 533.693 652.891 534.184C651.513 534.659 649.922 534.896 648.117 534.896ZM651.014 527.913C652.503 527.913 653.817 527.62 654.957 527.034C656.097 526.433 656.992 525.625 657.641 524.612C658.29 523.598 658.615 522.45 658.615 521.168V517.296C658.298 517.502 657.863 517.692 657.308 517.866C656.77 518.025 656.16 518.175 655.48 518.318C654.799 518.444 654.118 518.563 653.437 518.674C652.756 518.769 652.139 518.856 651.584 518.935C650.397 519.109 649.36 519.386 648.473 519.766C647.586 520.146 646.897 520.661 646.406 521.31C645.916 521.944 645.67 522.735 645.67 523.685C645.67 525.063 646.169 526.116 647.166 526.844C648.18 527.557 649.463 527.913 651.014 527.913Z" fill="#1A1A1A"/>
<path d="M676.512 534.207V497.725H686.321V504.09H686.701C687.366 501.826 688.482 500.116 690.05 498.96C691.618 497.788 693.423 497.202 695.465 497.202C695.972 497.202 696.518 497.234 697.104 497.297C697.69 497.361 698.205 497.448 698.648 497.559V506.537C698.173 506.394 697.516 506.268 696.677 506.157C695.837 506.046 695.069 505.99 694.373 505.99C692.884 505.99 691.554 506.315 690.383 506.964C689.227 507.598 688.308 508.484 687.627 509.624C686.962 510.765 686.63 512.079 686.63 513.567V534.207H676.512Z" fill="#1A1A1A"/>
<path d="M719.549 534.207V485.564H738.741C742.414 485.564 745.55 486.221 748.146 487.535C750.759 488.834 752.746 490.679 754.108 493.07C755.486 495.445 756.174 498.24 756.174 501.454C756.174 504.684 755.478 507.463 754.084 509.791C752.691 512.103 750.672 513.876 748.028 515.111C745.399 516.346 742.216 516.964 738.479 516.964H725.63V508.698H736.817C738.78 508.698 740.411 508.429 741.71 507.891C743.008 507.352 743.974 506.545 744.607 505.468C745.257 504.391 745.581 503.053 745.581 501.454C745.581 499.839 745.257 498.477 744.607 497.369C743.974 496.26 743 495.421 741.686 494.851C740.388 494.265 738.749 493.972 736.769 493.972H729.834V534.207H719.549ZM745.819 512.071L757.908 534.207H746.555L734.727 512.071H745.819Z" fill="#1A1A1A"/>
<path d="M779.291 534.92C775.538 534.92 772.308 534.16 769.6 532.64C766.908 531.104 764.834 528.934 763.377 526.132C761.92 523.313 761.192 519.98 761.192 516.132C761.192 512.38 761.92 509.086 763.377 506.252C764.834 503.417 766.884 501.208 769.529 499.625C772.189 498.042 775.308 497.25 778.887 497.25C781.294 497.25 783.534 497.638 785.609 498.414C787.699 499.174 789.52 500.322 791.071 501.858C792.639 503.394 793.858 505.325 794.729 507.653C795.6 509.965 796.036 512.673 796.036 515.776V518.555H765.23V512.285H786.511C786.511 510.828 786.194 509.537 785.561 508.413C784.928 507.289 784.049 506.41 782.925 505.777C781.816 505.127 780.526 504.803 779.053 504.803C777.517 504.803 776.155 505.159 774.968 505.872C773.796 506.568 772.878 507.511 772.213 508.698C771.548 509.87 771.207 511.176 771.191 512.617V518.579C771.191 520.384 771.524 521.944 772.189 523.258C772.87 524.572 773.828 525.586 775.063 526.298C776.298 527.011 777.763 527.367 779.457 527.367C780.581 527.367 781.61 527.209 782.545 526.892C783.479 526.575 784.278 526.1 784.944 525.467C785.609 524.833 786.115 524.057 786.464 523.139L795.822 523.757C795.347 526.005 794.373 527.969 792.9 529.647C791.444 531.31 789.559 532.608 787.247 533.542C784.951 534.461 782.299 534.92 779.291 534.92Z" fill="#1A1A1A"/>
<path d="M812.757 513.116V534.207H802.638V497.725H812.282V504.162H812.709C813.517 502.04 814.871 500.361 816.771 499.126C818.671 497.875 820.975 497.25 823.682 497.25C826.216 497.25 828.425 497.804 830.309 498.912C832.193 500.021 833.658 501.604 834.703 503.663C835.748 505.705 836.271 508.144 836.271 510.978V534.207H826.153V512.783C826.168 510.551 825.598 508.809 824.442 507.558C823.287 506.291 821.695 505.658 819.668 505.658C818.307 505.658 817.103 505.951 816.058 506.537C815.029 507.123 814.221 507.978 813.635 509.102C813.065 510.21 812.772 511.548 812.757 513.116Z" fill="#1A1A1A"/>
<path d="M863.65 497.725V505.325H841.68V497.725H863.65ZM846.668 488.984H856.786V522.997C856.786 523.931 856.929 524.659 857.214 525.182C857.499 525.688 857.895 526.045 858.401 526.251C858.924 526.456 859.525 526.559 860.206 526.559C860.681 526.559 861.156 526.52 861.631 526.441C862.106 526.346 862.471 526.274 862.724 526.227L864.315 533.756C863.809 533.914 863.096 534.097 862.178 534.302C861.259 534.524 860.143 534.659 858.829 534.706C856.39 534.801 854.253 534.477 852.416 533.732C850.595 532.988 849.178 531.832 848.164 530.265C847.151 528.697 846.652 526.718 846.668 524.327V488.984Z" fill="#1A1A1A"/>
<path d="M880.645 534.896C878.317 534.896 876.243 534.492 874.422 533.685C872.601 532.861 871.16 531.65 870.099 530.051C869.054 528.436 868.531 526.425 868.531 524.018C868.531 521.991 868.903 520.289 869.648 518.911C870.392 517.534 871.405 516.425 872.688 515.586C873.97 514.747 875.427 514.113 877.058 513.686C878.705 513.258 880.431 512.958 882.236 512.783C884.358 512.562 886.068 512.356 887.366 512.166C888.665 511.96 889.607 511.659 890.193 511.263C890.779 510.867 891.072 510.282 891.072 509.506V509.363C891.072 507.859 890.596 506.695 889.646 505.872C888.712 505.048 887.382 504.637 885.656 504.637C883.835 504.637 882.386 505.04 881.31 505.848C880.233 506.64 879.52 507.637 879.172 508.841L869.814 508.081C870.289 505.864 871.223 503.948 872.617 502.333C874.01 500.702 875.807 499.451 878.008 498.58C880.225 497.693 882.79 497.25 885.704 497.25C887.73 497.25 889.67 497.487 891.523 497.962C893.391 498.437 895.046 499.174 896.487 500.171C897.944 501.169 899.092 502.451 899.931 504.019C900.77 505.571 901.19 507.431 901.19 509.601V534.207H891.594V529.148H891.309C890.723 530.288 889.939 531.294 888.958 532.165C887.976 533.02 886.796 533.693 885.419 534.184C884.041 534.659 882.45 534.896 880.645 534.896ZM883.542 527.913C885.031 527.913 886.345 527.62 887.485 527.034C888.625 526.433 889.52 525.625 890.169 524.612C890.818 523.598 891.143 522.45 891.143 521.168V517.296C890.826 517.502 890.391 517.692 889.836 517.866C889.298 518.025 888.688 518.175 888.008 518.318C887.327 518.444 886.646 518.563 885.965 518.674C885.284 518.769 884.667 518.856 884.112 518.935C882.925 519.109 881.888 519.386 881.001 519.766C880.114 520.146 879.425 520.661 878.934 521.31C878.444 521.944 878.198 522.735 878.198 523.685C878.198 525.063 878.697 526.116 879.695 526.844C880.708 527.557 881.991 527.913 883.542 527.913Z" fill="#1A1A1A"/>
<path d="M919.158 485.564V534.207H909.04V485.564H919.158Z" fill="#1A1A1A"/>
<path d="M957.659 534.92C954.302 534.92 951.405 534.318 948.966 533.115C946.528 531.911 944.651 530.28 943.337 528.222C942.038 526.148 941.389 523.836 941.389 521.286C941.389 519.386 941.769 517.7 942.529 516.227C943.289 514.755 944.35 513.401 945.712 512.166C947.074 510.915 948.657 509.672 950.462 508.437L959.892 502.238C961.111 501.462 962.006 500.646 962.576 499.791C963.146 498.92 963.431 497.978 963.431 496.965C963.431 495.999 963.043 495.104 962.267 494.281C961.491 493.458 960.391 493.054 958.965 493.07C958.015 493.07 957.192 493.283 956.495 493.711C955.799 494.123 955.252 494.669 954.856 495.35C954.476 496.015 954.286 496.759 954.286 497.582C954.286 498.596 954.571 499.625 955.141 500.67C955.711 501.715 956.472 502.824 957.422 503.995C958.372 505.151 959.409 506.402 960.533 507.748L983.596 534.207H973.05L953.811 512.783C952.545 511.342 951.278 509.838 950.011 508.271C948.76 506.687 947.715 505.009 946.876 503.235C946.037 501.446 945.617 499.506 945.617 497.416C945.617 495.057 946.163 492.935 947.256 491.051C948.364 489.166 949.916 487.678 951.911 486.585C953.906 485.477 956.234 484.923 958.894 484.923C961.491 484.923 963.732 485.453 965.616 486.514C967.516 487.559 968.973 488.953 969.986 490.694C971.015 492.42 971.53 494.321 971.53 496.395C971.53 498.691 970.96 500.773 969.82 502.641C968.696 504.494 967.112 506.157 965.07 507.629L955.141 514.779C953.796 515.76 952.798 516.766 952.149 517.795C951.515 518.808 951.199 519.782 951.199 520.716C951.199 521.872 951.484 522.909 952.054 523.828C952.624 524.746 953.431 525.475 954.476 526.013C955.521 526.536 956.749 526.797 958.158 526.797C959.868 526.797 961.554 526.409 963.217 525.633C964.895 524.841 966.416 523.725 967.777 522.284C969.155 520.827 970.255 519.101 971.079 517.106C971.902 515.111 972.314 512.902 972.314 510.479H980.698C980.698 513.456 980.374 516.14 979.724 518.531C979.075 520.906 978.173 522.981 977.017 524.754C975.861 526.512 974.539 527.953 973.05 529.077C972.575 529.378 972.116 529.663 971.673 529.932C971.229 530.201 970.77 530.486 970.295 530.787C968.49 532.244 966.471 533.297 964.238 533.946C962.022 534.595 959.828 534.92 957.659 534.92Z" fill="#1A1A1A"/>
<path d="M1001.63 494.043V485.564H1041.58V494.043H1026.69V534.207H1016.52V494.043H1001.63Z" fill="#1A1A1A"/>
<path d="M1044.18 534.207V497.725H1053.99V504.09H1054.37C1055.03 501.826 1056.15 500.116 1057.72 498.96C1059.29 497.788 1061.09 497.202 1063.13 497.202C1063.64 497.202 1064.19 497.234 1064.77 497.297C1065.36 497.361 1065.87 497.448 1066.32 497.559V506.537C1065.84 506.394 1065.18 506.268 1064.35 506.157C1063.51 506.046 1062.74 505.99 1062.04 505.99C1060.55 505.99 1059.22 506.315 1058.05 506.964C1056.9 507.598 1055.98 508.484 1055.3 509.624C1054.63 510.765 1054.3 512.079 1054.3 513.567V534.207H1044.18Z" fill="#1A1A1A"/>
<path d="M1080.91 534.896C1078.58 534.896 1076.5 534.492 1074.68 533.685C1072.86 532.861 1071.42 531.65 1070.36 530.051C1069.32 528.436 1068.79 526.425 1068.79 524.018C1068.79 521.991 1069.16 520.289 1069.91 518.911C1070.65 517.534 1071.67 516.425 1072.95 515.586C1074.23 514.747 1075.69 514.113 1077.32 513.686C1078.97 513.258 1080.69 512.958 1082.5 512.783C1084.62 512.562 1086.33 512.356 1087.63 512.166C1088.93 511.96 1089.87 511.659 1090.45 511.263C1091.04 510.867 1091.33 510.282 1091.33 509.506V509.363C1091.33 507.859 1090.86 506.695 1089.91 505.872C1088.97 505.048 1087.64 504.637 1085.92 504.637C1084.1 504.637 1082.65 505.04 1081.57 505.848C1080.49 506.64 1079.78 507.637 1079.43 508.841L1070.08 508.081C1070.55 505.864 1071.48 503.948 1072.88 502.333C1074.27 500.702 1076.07 499.451 1078.27 498.58C1080.49 497.693 1083.05 497.25 1085.97 497.25C1087.99 497.25 1089.93 497.487 1091.78 497.962C1093.65 498.437 1095.31 499.174 1096.75 500.171C1098.21 501.169 1099.35 502.451 1100.19 504.019C1101.03 505.571 1101.45 507.431 1101.45 509.601V534.207H1091.86V529.148H1091.57C1090.98 530.288 1090.2 531.294 1089.22 532.165C1088.24 533.02 1087.06 533.693 1085.68 534.184C1084.3 534.659 1082.71 534.896 1080.91 534.896ZM1083.8 527.913C1085.29 527.913 1086.61 527.62 1087.75 527.034C1088.89 526.433 1089.78 525.625 1090.43 524.612C1091.08 523.598 1091.4 522.45 1091.4 521.168V517.296C1091.09 517.502 1090.65 517.692 1090.1 517.866C1089.56 518.025 1088.95 518.175 1088.27 518.318C1087.59 518.444 1086.91 518.563 1086.23 518.674C1085.55 518.769 1084.93 518.856 1084.37 518.935C1083.19 519.109 1082.15 519.386 1081.26 519.766C1080.38 520.146 1079.69 520.661 1079.2 521.31C1078.71 521.944 1078.46 522.735 1078.46 523.685C1078.46 525.063 1078.96 526.116 1079.96 526.844C1080.97 527.557 1082.25 527.913 1083.8 527.913Z" fill="#1A1A1A"/>
<path d="M1142.01 497.725L1129.25 534.207H1117.85L1105.1 497.725H1115.79L1123.36 523.828H1123.74L1131.3 497.725H1142.01Z" fill="#1A1A1A"/>
<path d="M1162.64 534.92C1158.88 534.92 1155.65 534.16 1152.94 532.64C1150.25 531.104 1148.18 528.934 1146.72 526.132C1145.27 523.313 1144.54 519.98 1144.54 516.132C1144.54 512.38 1145.27 509.086 1146.72 506.252C1148.18 503.417 1150.23 501.208 1152.87 499.625C1155.53 498.042 1158.65 497.25 1162.23 497.25C1164.64 497.25 1166.88 497.638 1168.95 498.414C1171.04 499.174 1172.86 500.322 1174.42 501.858C1175.98 503.394 1177.2 505.325 1178.07 507.653C1178.94 509.965 1179.38 512.673 1179.38 515.776V518.555H1148.57V512.285H1169.86C1169.86 510.828 1169.54 509.537 1168.91 508.413C1168.27 507.289 1167.39 506.41 1166.27 505.777C1165.16 505.127 1163.87 504.803 1162.4 504.803C1160.86 504.803 1159.5 505.159 1158.31 505.872C1157.14 506.568 1156.22 507.511 1155.56 508.698C1154.89 509.87 1154.55 511.176 1154.54 512.617V518.579C1154.54 520.384 1154.87 521.944 1155.53 523.258C1156.21 524.572 1157.17 525.586 1158.41 526.298C1159.64 527.011 1161.11 527.367 1162.8 527.367C1163.93 527.367 1164.96 527.209 1165.89 526.892C1166.82 526.575 1167.62 526.1 1168.29 525.467C1168.95 524.833 1169.46 524.057 1169.81 523.139L1179.17 523.757C1178.69 526.005 1177.72 527.969 1176.24 529.647C1174.79 531.31 1172.9 532.608 1170.59 533.542C1168.3 534.461 1165.64 534.92 1162.64 534.92Z" fill="#1A1A1A"/>
<path d="M1196.1 485.564V534.207H1185.98V485.564H1196.1Z" fill="#1A1A1A"/>
<path d="M1219.88 534.207V485.564H1239.07C1242.76 485.564 1245.9 486.269 1248.5 487.678C1251.09 489.071 1253.07 491.011 1254.44 493.497C1255.81 495.967 1256.5 498.817 1256.5 502.048C1256.5 505.278 1255.8 508.128 1254.41 510.598C1253.02 513.068 1251 514.992 1248.35 516.37C1245.73 517.747 1242.54 518.436 1238.81 518.436H1226.57V510.194H1237.14C1239.12 510.194 1240.75 509.854 1242.04 509.173C1243.34 508.476 1244.3 507.518 1244.93 506.299C1245.58 505.064 1245.91 503.647 1245.91 502.048C1245.91 500.433 1245.58 499.023 1244.93 497.82C1244.3 496.601 1243.34 495.659 1242.04 494.993C1240.74 494.313 1239.09 493.972 1237.1 493.972H1230.16V534.207H1219.88Z" fill="#1A1A1A"/>
<path d="M1273.11 485.564V534.207H1262.99V485.564H1273.11Z" fill="#1A1A1A"/>
<path d="M1291.62 534.896C1289.29 534.896 1287.22 534.492 1285.4 533.685C1283.57 532.861 1282.13 531.65 1281.07 530.051C1280.03 528.436 1279.5 526.425 1279.5 524.018C1279.5 521.991 1279.88 520.289 1280.62 518.911C1281.37 517.534 1282.38 516.425 1283.66 515.586C1284.94 514.747 1286.4 514.113 1288.03 513.686C1289.68 513.258 1291.4 512.958 1293.21 512.783C1295.33 512.562 1297.04 512.356 1298.34 512.166C1299.64 511.96 1300.58 511.659 1301.17 511.263C1301.75 510.867 1302.05 510.282 1302.05 509.506V509.363C1302.05 507.859 1301.57 506.695 1300.62 505.872C1299.69 505.048 1298.36 504.637 1296.63 504.637C1294.81 504.637 1293.36 505.04 1292.28 505.848C1291.21 506.64 1290.49 507.637 1290.15 508.841L1280.79 508.081C1281.26 505.864 1282.2 503.948 1283.59 502.333C1284.98 500.702 1286.78 499.451 1288.98 498.58C1291.2 497.693 1293.76 497.25 1296.68 497.25C1298.7 497.25 1300.64 497.487 1302.5 497.962C1304.37 498.437 1306.02 499.174 1307.46 500.171C1308.92 501.169 1310.07 502.451 1310.9 504.019C1311.74 505.571 1312.16 507.431 1312.16 509.601V534.207H1302.57V529.148H1302.28C1301.7 530.288 1300.91 531.294 1299.93 532.165C1298.95 533.02 1297.77 533.693 1296.39 534.184C1295.01 534.659 1293.42 534.896 1291.62 534.896ZM1294.52 527.913C1296 527.913 1297.32 527.62 1298.46 527.034C1299.6 526.433 1300.49 525.625 1301.14 524.612C1301.79 523.598 1302.12 522.45 1302.12 521.168V517.296C1301.8 517.502 1301.36 517.692 1300.81 517.866C1300.27 518.025 1299.66 518.175 1298.98 518.318C1298.3 518.444 1297.62 518.563 1296.94 518.674C1296.26 518.769 1295.64 518.856 1295.09 518.935C1293.9 519.109 1292.86 519.386 1291.97 519.766C1291.09 520.146 1290.4 520.661 1289.91 521.31C1289.42 521.944 1289.17 522.735 1289.17 523.685C1289.17 525.063 1289.67 526.116 1290.67 526.844C1291.68 527.557 1292.96 527.913 1294.52 527.913Z" fill="#1A1A1A"/>
<path d="M1330.13 513.116V534.207H1320.01V497.725H1329.66V504.162H1330.08C1330.89 502.04 1332.25 500.361 1334.15 499.126C1336.05 497.875 1338.35 497.25 1341.06 497.25C1343.59 497.25 1345.8 497.804 1347.68 498.912C1349.57 500.021 1351.03 501.604 1352.08 503.663C1353.12 505.705 1353.65 508.144 1353.65 510.978V534.207H1343.53V512.783C1343.54 510.551 1342.97 508.809 1341.82 507.558C1340.66 506.291 1339.07 505.658 1337.04 505.658C1335.68 505.658 1334.48 505.951 1333.43 506.537C1332.4 507.123 1331.6 507.978 1331.01 509.102C1330.44 510.21 1330.15 511.548 1330.13 513.116Z" fill="#1A1A1A"/>
<path d="M1371.74 513.116V534.207H1361.62V497.725H1371.26V504.162H1371.69C1372.5 502.04 1373.85 500.361 1375.75 499.126C1377.65 497.875 1379.96 497.25 1382.66 497.25C1385.2 497.25 1387.41 497.804 1389.29 498.912C1391.17 500.021 1392.64 501.604 1393.68 503.663C1394.73 505.705 1395.25 508.144 1395.25 510.978V534.207H1385.13V512.783C1385.15 510.551 1384.58 508.809 1383.42 507.558C1382.27 506.291 1380.68 505.658 1378.65 505.658C1377.29 505.658 1376.08 505.951 1375.04 506.537C1374.01 507.123 1373.2 507.978 1372.62 509.102C1372.05 510.21 1371.75 511.548 1371.74 513.116Z" fill="#1A1A1A"/>
<path d="M1419.85 534.92C1416.1 534.92 1412.87 534.16 1410.16 532.64C1407.47 531.104 1405.4 528.934 1403.94 526.132C1402.48 523.313 1401.75 519.98 1401.75 516.132C1401.75 512.38 1402.48 509.086 1403.94 506.252C1405.4 503.417 1407.45 501.208 1410.09 499.625C1412.75 498.042 1415.87 497.25 1419.45 497.25C1421.86 497.25 1424.1 497.638 1426.17 498.414C1428.26 499.174 1430.08 500.322 1431.63 501.858C1433.2 503.394 1434.42 505.325 1435.29 507.653C1436.16 509.965 1436.6 512.673 1436.6 515.776V518.555H1405.79V512.285H1427.07C1427.07 510.828 1426.76 509.537 1426.12 508.413C1425.49 507.289 1424.61 506.41 1423.49 505.777C1422.38 505.127 1421.09 504.803 1419.62 504.803C1418.08 504.803 1416.72 505.159 1415.53 505.872C1414.36 506.568 1413.44 507.511 1412.78 508.698C1412.11 509.87 1411.77 511.176 1411.75 512.617V518.579C1411.75 520.384 1412.09 521.944 1412.75 523.258C1413.43 524.572 1414.39 525.586 1415.63 526.298C1416.86 527.011 1418.33 527.367 1420.02 527.367C1421.14 527.367 1422.17 527.209 1423.11 526.892C1424.04 526.575 1424.84 526.1 1425.51 525.467C1426.17 524.833 1426.68 524.057 1427.03 523.139L1436.38 523.757C1435.91 526.005 1434.94 527.969 1433.46 529.647C1432.01 531.31 1430.12 532.608 1427.81 533.542C1425.51 534.461 1422.86 534.92 1419.85 534.92Z" fill="#1A1A1A"/>
<path d="M1443.2 534.207V497.725H1453.01V504.09H1453.39C1454.06 501.826 1455.17 500.116 1456.74 498.96C1458.31 497.788 1460.11 497.202 1462.15 497.202C1462.66 497.202 1463.21 497.234 1463.79 497.297C1464.38 497.361 1464.89 497.448 1465.34 497.559V506.537C1464.86 506.394 1464.21 506.268 1463.37 506.157C1462.53 506.046 1461.76 505.99 1461.06 505.99C1459.57 505.99 1458.24 506.315 1457.07 506.964C1455.92 507.598 1455 508.484 1454.32 509.624C1453.65 510.765 1453.32 512.079 1453.32 513.567V534.207H1443.2Z" fill="#1A1A1A"/>
</svg>
