<?xml version="1.0" encoding="utf-8"?>
<!-- Generator: Adobe Illustrator 26.1.0, SVG Export Plug-In . SVG Version: 6.00 Build 0)  -->
<svg version="1.1" id="Capa_1" xmlns="http://www.w3.org/2000/svg" xmlns:xlink="http://www.w3.org/1999/xlink" x="0px" y="0px"
	 viewBox="0 0 1704.2 393.4" style="enable-background:new 0 0 1704.2 393.4;" xml:space="preserve">
<style type="text/css">
	.st0{fill:#F6CC4D;}
</style>
<g>
	<path class="st0" d="M313.1,42.8c0.5-1.8,1-3.2,1.6-4.2c0.6-1.2,1.9-2,4-2.5l43.2-10c0.2,0,0.4,0,0.7-0.1c0.3-0.1,0.5-0.1,0.7-0.1
		c1.4,0,2.3,0.6,2.8,1.8c0.6,1.2,0.9,2.3,0.9,3.4c0,0.2,0,0.6-0.1,1.2c0,0.6,0,1-0.1,1.2l-60.7,184.1c-1.6,4-2.9,7.3-4,9.8
		c-1,2.4-2,4.5-3.1,6.1c-1,1.6-2.2,2.9-3.5,4c-1.3,1.1-3,2.1-5.3,3.2c-2.1,1.1-4.9,2.3-8.2,3.7c-3.3,1.5-7.5,3.4-12.6,5.9
		c-1.8,0.9-3.1,1.3-4.1,1.3c-1.6,0-2.7-0.6-3.5-1.8c-0.8-1.2-1.4-2.5-1.9-4l-25.1-89.1l-31.4,64.5c-0.5,1.2-1.6,2.7-3.4,4.7
		c-1.8,2-3.8,4-6,6c-2.1,2-4.3,4-6.6,6c-2.1,1.9-3.9,3.4-5.3,4.5c-1.3,1.1-2.6,2.1-4.1,3.2c-1.4,1.1-2.8,2-4.2,2.9
		c-1.5,0.9-2.9,1.6-4.3,2c-1.3,0.6-2.5,0.9-3.7,0.9c-2.5,0-4.2-1.4-5-4.2L104.1,46.9c-0.2-0.8-0.4-1.6-0.7-2.3
		c-0.2-0.8-0.3-1.5-0.3-2.2c0-2.4,0.6-4.5,1.8-6.1c1.2-1.7,3.2-3.1,6.2-4.2c2.9-1.2,6.8-2.1,11.7-2.8c4.9-0.8,11.1-1.4,18.6-1.9
		c3.5-0.5,6.4-0.8,8.8-1c2.4-0.2,4.5-0.3,6.2-0.3c2.8,0,4.7,0.4,5.6,1.3c0.9,0.9,1.7,2.3,2.3,4.4l30.2,116.1l25.1-43l-10.1-44.1
		c-0.6-2.3-0.8-4.1-0.7-5.3c0-2.2,0.6-4,1.8-5.4c1.2-1.4,3.1-2.5,5.9-3.4c2.7-0.9,6.3-1.7,10.7-2.3c4.5-0.7,10-1.5,16.4-2.3
		c2.8-0.4,5.3-0.7,7.3-0.9c2.1-0.2,3.8-0.3,5.3-0.3c2.9,0,4.9,0.4,6,1.3c1.1,0.9,1.9,2.3,2.3,4.2l19.9,90.2L313.1,42.8z"/>
	<path class="st0" d="M371.9,179.3c1.3-13.4,2.5-26.6,3.8-39.7c1.3-13.1,2.4-26.5,3.4-40.2c0.2-3.2,0.5-5.4,0.9-6.6
		c0.5-1.3,1.6-2.1,3.4-2.5c8.3-1.7,17-3.4,26.1-5.1c9.1-1.9,17.9-4.2,26.4-7c0.3-0.1,0.7-0.1,1.3-0.1c1.1,0,1.6,0.4,1.6,1.2
		l-13.2,142.6c-0.3,3.2-0.6,5.5-1,6.7c-0.4,1.2-1.5,2-3.2,2.3c-8.3,2.5-16.7,5.4-25.2,8.5c-8.5,3.1-17.5,6.3-27,9.5
		c-0.3,0.1-0.7,0.1-1.3,0.1c-1.1,0-1.6-0.5-1.6-1.5c0-0.1,0.1-1.4,0.3-4c0.2-2.5,0.4-5.8,0.7-9.8c0.4-4,0.8-8.5,1.2-13.5
		c0.4-5,0.8-10,1.2-14.9c0.5-5,0.9-9.8,1.3-14.3C371.3,186.5,371.6,182.6,371.9,179.3z M382.9,62.5c0.3-4.2,0.5-7.4,0.6-9.7
		c0.2-2.2,0.3-3.9,0.4-5c0.1-1.2,0.1-1.9,0.1-2.2c0-0.3,0-0.5,0-0.6c0.1-0.2,0.1-0.5,0.1-0.9c0.1-0.5,0.2-1.4,0.3-2.8
		c0.1-1.5,0.2-3.6,0.4-6.3c0.2-2.7,0.5-6.5,0.9-11.3c0.2-3.2,0.5-5.4,0.9-6.6c0.5-1.3,1.6-2.1,3.4-2.5c8.3-1.7,17-3.4,26.1-5.1
		c9.1-1.9,17.9-4.2,26.4-7c0.3-0.1,0.7-0.1,1.3-0.1c0.3,0.6,0.7,1,1.2,1.2l0.4,0.3l-3.2,40.1c-0.3,3.2-0.7,5.5-1.2,6.7
		c-0.4,1.3-1.4,2-3.1,2.3c-8.3,1.6-16.7,3.3-25.2,5.1c-8.5,1.9-17.5,3.7-27,5.6c-0.3,0.1-0.7,0.1-1.3,0.1
		C383.4,64,382.9,63.5,382.9,62.5z"/>
	<path class="st0" d="M467.9,117.6c1.2-13.4,2.1-26.6,2.8-39.7c0.8-13.1,1.6-26.5,2.5-40.2c0.2-3.2,0.5-5.4,0.9-6.6
		c0.5-1.3,1.6-2.1,3.4-2.5c9.1-1.7,18.2-3.3,27.3-5c9.2-1.8,18.4-4,27.6-6.9c0.3-0.1,0.7-0.1,1.3-0.1c1.1,0,1.6,0.5,1.6,1.5
		l-19.1,209v2.5c0,0.9-0.3,1.6-1,2.2c-0.7,0.5-2.3,1.1-4.8,1.8l-38.4,14.1c-1.1,0.5-2.5,1-4.3,1.5c-1.8,0.6-3.5,0.9-5.1,0.9
		c-1.4,0-2.6-0.3-3.7-1c-1-0.7-1.5-1.9-1.5-3.5v-0.9c0.8-9.9,1.5-19.5,2.2-28.8c0.8-9.5,1.6-19.2,2.3-29.3c0.9-10,1.8-20.7,2.8-31.9
		S466.7,130.9,467.9,117.6z"/>
	<path class="st0" d="M659.9,158.1c0.3-3.1,0.6-6.4,0.9-9.8c0.4-3.4,0.8-7,1.3-10.7c-2.2-5.9-5.4-10.6-9.5-14.2
		c-4.1-3.7-9.2-5.6-15.4-5.6c-6.1,0-11.2,1.8-15.4,5.3c-4.2,3.4-7.6,7.7-10.1,12.7c-2.5,5.1-4.4,10.4-5.6,16.1
		c-1.1,5.6-1.6,10.5-1.6,14.8c0,5.3,0.3,10.5,0.9,15.7c0.7,5.2,1.7,9.9,3.1,14.1c1.5,4.2,3.4,7.6,5.7,10.2c2.3,2.5,5.3,3.8,8.8,3.8
		c8.6-0.3,15.6-2.2,21-5.9c5.4-3.6,9.7-8,12.9-13.2L659.9,158.1z M711.1,226.6c0,0.2,0,0.4-0.1,0.7c0,0.2,0,0.4,0,0.6
		c0,0.5,0,0.9,0,1.2c0.1,0.3,0.1,0.6,0.1,0.9c0,0.9-0.3,1.6-1,2.2c-0.6,0.5-2.2,1.1-4.8,1.8l-39.3,12.7c-1.1,0.4-2.5,0.9-4.2,1.5
		c-1.8,0.6-3.5,0.9-5.1,0.9c-1.4,0-2.6-0.3-3.7-1c-1-0.7-1.5-2-1.5-3.8c0-1.8,0-3.2,0-4.2c0.1-1.1,0.1-2,0.1-2.9
		c0.1-1,0.2-2,0.3-3.1c0.2-1.1,0.4-2.5,0.6-4.2c-7.3,5.9-14.9,10.5-22.7,14c-7.7,3.5-15.9,5.3-24.5,5.3c-9.4,0-17.7-2.2-25.1-6.7
		c-7.2-4.4-13.3-10.3-18.3-17.7c-5-7.5-8.8-16.1-11.4-25.6c-2.5-9.7-3.8-19.7-3.8-30.1c0-13.6,2.2-25.9,6.6-37
		c4.5-11.2,10.6-20.8,18.2-28.7c7.6-8,16.5-14.1,26.7-18.4c10.2-4.4,21-6.6,32.4-6.6c6.2,0,12,1.6,17.6,4.8c5.7,3.2,11,7.4,16,12.4
		c0.3-4.8,0.6-10,1-15.5c0.4-5.7,0.8-11.4,1.2-17.1c0.4-5.9,0.8-11.6,1.2-17.3c0.4-5.7,0.7-10.8,1-15.5c0-0.9,0.3-1.6,0.9-2
		c0.7-0.6,2.3-1.2,5-1.9l41.2-9.8c1.1-0.2,2.5-0.6,4.2-1.3c1.8-0.7,3.5-1,5.1-1c1.3,0,2.4,0.3,3.5,0.9c1.2,0.6,1.8,1.7,1.8,3.4
		c0,0.2,0,0.6-0.1,1.3c0,0.6,0,1,0,1.2L711.1,226.6z"/>
	<path class="st0" d="M887.2,229.7c-0.1,0.9-0.3,1.8-0.6,2.6c-0.2,0.8-0.8,1.4-1.9,1.9c-0.4,0.2-2.3,0.9-5.9,2.2
		c-3.4,1.2-7.4,2.6-12,4.2c-4.5,1.6-9,3.1-13.5,4.7c-4.4,1.7-7.8,2.9-10.1,3.8c-1.2,0.5-2.6,1-4.4,1.5c-1.7,0.6-3.3,0.9-5,0.9
		c-1.4,0-2.6-0.3-3.7-1c-1-0.7-1.5-2-1.5-3.8c0-4.3,0.1-8.2,0.3-11.7c0.3-3.6,0.6-7.4,1-11.3c0.4-3.9,0.8-8.2,1.2-12.9
		c0.5-4.8,0.9-10.4,1.3-17c0.5-8.6,1-16.8,1.6-24.7c0.6-8,1.2-16.3,1.8-24.9l2.1-25c0.3-4.1,0.6-8.2,0.9-12.4
		c0.3-4.3,0.6-8.7,0.9-13.2l1.6-17.9c0-0.2-0.3-0.3-0.9-0.3c-0.8,0-2.1,0.2-4,0.6c-1.9,0.3-4.1,0.7-6.6,1.2c-2.5,0.5-5.4,1-8.5,1.6
		c-3,0.5-6.2,1-9.4,1.5c-0.8,0-1.6-0.1-2.3-0.4c-0.7-0.4-1-0.8-1-1.3c0-0.4,0.1-0.7,0.3-0.9l23.7-41.4c5.4-1.2,11.1-2.3,17.3-3.5
		c6.3-1.3,12.9-2.4,20.1-3.4s14.7-1.8,22.7-2.3c8-0.7,16.5-1,25.5-1c10.2,0.2,20,1.2,29.6,3.1c9.7,1.8,18.2,4.8,25.7,9.1
		c7.5,4.2,13.5,10,18,17.3c4.6,7.2,6.9,16.4,6.9,27.5c0,6.1-1.1,11.8-3.2,17c-2,5.2-4.7,9.9-8.1,14.1c-3.2,4.1-6.8,7.8-10.7,11
		c-3.9,3.1-7.7,5.8-11.3,8c-3.5,2.2-6.6,4.1-9.4,5.4c-2.7,1.3-4.6,2.1-5.6,2.5c0,0.2,0.1,0.4,0.2,0.7c0.2,0.3,0.5,0.9,1,1.8
		c0.5,0.8,1.2,2,2,3.5c1,1.5,2.2,3.5,3.7,6.1c1.6,2.3,3.4,5.5,5.6,9.4c2.1,3.9,4.7,8.5,7.6,13.9c3,5.3,6.5,11.2,10.4,17.7
		c3.9,6.5,8.4,13.6,13.5,21.1c1.7,1.5,3.6,2.4,5.7,2.8c2.2,0.3,4.2,0.5,6,0.6c1.9,0,3.4,0.1,4.7,0.3c1.3,0.1,1.9,0.7,1.9,1.8
		c0,0.8-0.8,1.7-2.5,2.8c-1.6,1-3.4,2-5.6,3.1c-2.1,1.1-4.3,2.1-6.6,3.1c-2.2,1-3.8,1.8-5,2.3c-2.3,1.2-4.8,2.3-7.3,3.4
		c-2.5,1.1-5.3,2.3-8.2,3.7c-2.9,1.3-6.2,2.8-9.8,4.5c-3.5,1.8-7.5,3.9-12,6.3c-1.2,0.7-2.3,1.1-3.4,1.3c-1,0.3-1.9,0.4-2.8,0.4
		c-1.8,0-3.3-0.4-4.5-1.3c-1.3-0.8-2.3-1.8-3.2-2.9c-0.9-1.2-1.6-2.4-2.2-3.7c-0.5-1.2-0.9-2.1-1.3-2.9l-43.7-91.9L887.2,229.7z
		 M896.2,130.6c5,0,10.2-1.3,15.5-3.8c5.4-2.5,10.3-5.8,14.6-9.8c4.4-4,8-8.5,10.9-13.6c2.8-5.1,4.2-10.2,4.2-15.4
		c0-14.1-8.5-21.2-25.5-21.2c-3.2,0-5.9,0.2-8.1,0.7c-2.1,0.4-4.1,0.7-5.9,0.9L896.2,130.6z"/>
	<path class="st0" d="M1028.2,179.3c1.3-13.4,2.5-26.6,3.8-39.7c1.3-13.1,2.4-26.5,3.4-40.2c0.2-3.2,0.5-5.4,0.9-6.6
		c0.5-1.3,1.6-2.1,3.4-2.5c8.3-1.7,17-3.4,26.1-5.1c9.1-1.9,17.9-4.2,26.4-7c0.3-0.1,0.7-0.1,1.3-0.1c1.1,0,1.6,0.4,1.6,1.2
		l-13.2,142.6c-0.3,3.2-0.6,5.5-1,6.7c-0.4,1.2-1.5,2-3.2,2.3c-8.3,2.5-16.7,5.4-25.2,8.5c-8.5,3.1-17.5,6.3-27,9.5
		c-0.3,0.1-0.7,0.1-1.3,0.1c-1.1,0-1.6-0.5-1.6-1.5c0-0.1,0.1-1.4,0.3-4c0.2-2.5,0.4-5.8,0.7-9.8c0.4-4,0.8-8.5,1.2-13.5
		c0.4-5,0.8-10,1.2-14.9c0.5-5,0.9-9.8,1.3-14.3S1027.9,182.6,1028.2,179.3z M1039.2,62.5c0.3-4.2,0.5-7.4,0.6-9.7
		c0.2-2.2,0.3-3.9,0.4-5c0.1-1.2,0.1-1.9,0.1-2.2c0-0.3,0-0.5,0-0.6c0.1-0.2,0.2-0.5,0.2-0.9c0.1-0.5,0.2-1.4,0.3-2.8
		c0.1-1.5,0.2-3.6,0.4-6.3c0.2-2.7,0.5-6.5,0.9-11.3c0.2-3.2,0.5-5.4,0.9-6.6c0.5-1.3,1.6-2.1,3.4-2.5c8.3-1.7,17-3.4,26.1-5.1
		c9.1-1.9,17.9-4.2,26.4-7c0.3-0.1,0.7-0.1,1.3-0.1c0.3,0.6,0.7,1,1.2,1.2l0.4,0.3l-3.2,40.1c-0.3,3.2-0.7,5.5-1.2,6.7
		c-0.4,1.3-1.4,2-3.1,2.3c-8.3,1.6-16.7,3.3-25.2,5.1c-8.5,1.9-17.5,3.7-27,5.6c-0.3,0.1-0.7,0.1-1.3,0.1
		C1039.8,64,1039.2,63.5,1039.2,62.5z"/>
	<path class="st0" d="M1225.1,158.1c0.3-3.1,0.6-6.4,0.9-9.8c0.4-3.4,0.8-7,1.3-10.7c-2.2-5.9-5.4-10.6-9.5-14.2
		c-4.1-3.7-9.2-5.6-15.4-5.6c-6.1,0-11.2,1.8-15.4,5.3c-4.2,3.4-7.6,7.7-10.1,12.7c-2.5,5.1-4.4,10.4-5.6,16.1
		c-1.1,5.6-1.6,10.5-1.6,14.8c0,5.3,0.3,10.5,0.9,15.7c0.7,5.2,1.7,9.9,3.1,14.1c1.5,4.2,3.4,7.6,5.7,10.2c2.3,2.5,5.3,3.8,8.8,3.8
		c8.6-0.3,15.6-2.2,21-5.9c5.4-3.6,9.7-8,12.9-13.2L1225.1,158.1z M1276.2,226.6c0,0.2-0.1,0.4-0.2,0.7c0,0.2,0,0.4,0,0.6
		c0,0.5,0,0.9,0,1.2c0.1,0.3,0.2,0.6,0.2,0.9c0,0.9-0.3,1.6-1,2.2c-0.6,0.5-2.2,1.1-4.8,1.8l-39.3,12.7c-1.1,0.4-2.5,0.9-4.2,1.5
		c-1.8,0.6-3.5,0.9-5.1,0.9c-1.4,0-2.6-0.3-3.7-1c-1-0.7-1.5-2-1.5-3.8c0-1.8,0-3.2,0-4.2c0.1-1.1,0.1-2,0.1-2.9
		c0.1-1,0.2-2,0.3-3.1c0.2-1.1,0.4-2.5,0.6-4.2c-7.3,5.9-14.9,10.5-22.7,14c-7.7,3.5-15.9,5.3-24.5,5.3c-9.4,0-17.7-2.2-25.1-6.7
		c-7.2-4.4-13.3-10.3-18.3-17.7c-5-7.5-8.8-16.1-11.4-25.6c-2.5-9.7-3.8-19.7-3.8-30.1c0-13.6,2.2-25.9,6.6-37
		c4.5-11.2,10.6-20.8,18.2-28.7c7.6-8,16.5-14.1,26.7-18.4c10.2-4.4,20.9-6.6,32.4-6.6c6.2,0,12,1.6,17.6,4.8
		c5.7,3.2,11,7.4,16,12.4c0.3-4.8,0.6-10,1-15.5c0.4-5.7,0.8-11.4,1.2-17.1c0.4-5.9,0.8-11.6,1.2-17.3c0.4-5.7,0.7-10.8,1-15.5
		c0-0.9,0.3-1.6,0.9-2c0.7-0.6,2.3-1.2,5-1.9l41.2-9.8c1.1-0.2,2.5-0.6,4.2-1.3s3.5-1,5.1-1c1.3,0,2.4,0.3,3.5,0.9
		c1.2,0.6,1.8,1.7,1.8,3.4c0,0.2,0,0.6-0.1,1.3c0,0.6,0,1,0,1.2L1276.2,226.6z"/>
	<path class="st0" d="M1396.4,78.1c9.3,0,17.7,1.8,25.2,5.3c7.6,3.4,14.1,7.9,19.5,13.5c5.5,5.5,9.7,11.6,12.6,18.4
		c2.9,6.8,4.4,13.7,4.4,20.5c0,6.1-1.9,12.1-5.6,18.3c-3.7,6-8.9,11.5-15.7,16.4c-6.6,4.9-14.7,8.8-24,11.9s-19.7,4.5-30.9,4.5
		c-5.9,0-12-0.6-18.5-1.8c0.4,4.2,1.6,7.8,3.7,10.8c2,3,4.6,5.5,7.8,7.5c3.1,2,6.6,3.4,10.6,4.4c4,0.9,8.1,1.3,12.3,1.3
		c4.7,0,9.2-0.4,13.5-1.2c4.4-0.9,8.6-2,12.6-3.4c4-1.4,7.9-2.9,11.6-4.5c3.7-1.7,7.2-3.3,10.6-5c0.9-0.2,1.6-0.3,2.2-0.4
		c0.7-0.2,1.3-0.3,1.9-0.3c0,0-0.1,0.8-0.2,2.3c0,1.6,0,3.8,0,6.6c0,2.8,0,6.2-0.2,10.2c0,4,0,8.4-0.1,13.3c0.3,0.5,0.5,1,0.6,1.5
		c0.1,0.5,0.2,0.9,0.2,1.2c0,1.2-1.1,2.4-3.2,3.8c-2.1,1.4-5,2.8-8.5,4.2c-3.4,1.5-7.4,2.9-11.9,4.2c-4.4,1.4-8.9,2.6-13.5,3.7
		c-4.6,1.2-9,2-13.3,2.6c-4.3,0.7-8.1,1-11.3,1c-10.6,0-20.8-1.9-30.8-5.6c-9.9-3.6-18.7-8.8-26.4-15.7
		c-7.6-6.8-13.7-15.1-18.3-24.9c-4.6-9.8-6.9-20.7-6.9-32.9c0-12.8,2.2-24.7,6.6-35.9c4.4-11.2,10.6-21,18.5-29.3
		c8-8.3,17.5-14.8,28.6-19.6S1383.1,78.1,1396.4,78.1z M1394.7,117c-4,0-7.7,0.9-11.1,2.6c-3.3,1.7-6.4,4.1-9.2,7.3
		c-2.7,3.1-5.1,6.9-7.2,11.4c-2.1,4.4-3.7,9.3-5,14.6c10.1-1.8,18.4-3.6,25.1-5.6c6.6-2,12-3.9,16-5.9c4-2.1,6.8-4.1,8.5-6
		c1.7-2,2.5-4,2.5-5.9c0-1.8-0.7-3.4-2-5c-1.3-1.6-2.9-2.9-4.8-4.1c-1.9-1.2-4.1-2-6.4-2.6C1398.6,117.3,1396.5,117,1394.7,117z"/>
	<path class="st0" d="M1596.3,122.3c-2.1-0.2-4.3-0.4-6.9-0.6c-2.5-0.3-5.2-0.4-8.1-0.4c-4.3,0-8.7,0.4-13.2,1.2
		c-4.4,0.7-8.5,2.1-12.3,4.2c-3.8,2.1-7.1,5.1-9.8,8.9c-2.7,3.7-4.5,8.5-5.3,14.5c-0.7,7.2-1.3,13.2-1.8,17.9
		c-0.4,4.6-0.7,8.4-0.9,11.4c-0.2,2.9-0.4,5.3-0.6,7.2c-0.1,1.8-0.2,3.4-0.3,5c0,0.4-0.1,1.5-0.3,3.2c-0.1,1.8-0.3,3.8-0.6,6.1
		c-0.3,2.3-0.6,4.9-0.9,7.6c-0.2,2.7-0.4,5.3-0.7,7.6c-0.3,2.3-0.5,4.4-0.7,6.1c-0.1,1.8-0.2,2.8-0.2,3.2c0,0.8,0,1.5,0,2
		c0.1,0.5,0.2,1,0.2,1.5c0,0.8-0.4,1.5-1.2,2c-0.7,0.5-2.3,1.1-4.8,1.8l-38.8,13.9c-1.1,0.4-2.5,0.9-4.2,1.5
		c-1.8,0.6-3.5,0.9-5.1,0.9c-1.4,0-2.6-0.3-3.7-1c-1-0.7-1.5-1.9-1.5-3.5l12.6-145c0.3-3.2,0.6-5.4,1-6.6c0.5-1.3,1.6-2.1,3.4-2.5
		c8.9-1.8,18.1-3.5,27.6-5.3c9.5-1.9,18.7-4.2,27.6-7c0.8,0,1.2,0.1,1.3,0.4c0.2,0.2,0.3,0.5,0.3,1c0,0.2,0,0.5-0.1,0.9
		c0,0.4-0.1,1.3-0.4,2.6c-0.2,1.4-0.5,3.5-1,6.3c-0.4,2.7-1,6.6-1.8,11.6c4.5-3.5,9.4-6.7,14.8-9.7c5.5-2.9,10.9-5.4,16.4-7.5
		c5.5-2.1,10.8-3.8,15.8-5c5.1-1.3,9.5-1.9,13.3-1.9L1596.3,122.3z"/>
	<path class="st0" d="M2.7,375.6v-13.3l33.5-52.7h11.5V328h-6.8l-21.1,33.4v0.6h47.6v13.6H2.7z M41.2,389.7v-18.1l0.3-5.9v-56h15.9
		v80.1H41.2z"/>
	<path class="st0" d="M127.9,378.5l-46.8-46.7l10.3-10.4l46.8,46.8L127.9,378.5z M91.3,378.5l-10.3-10.2l46.8-46.8l10.3,10.4
		L91.3,378.5z"/>
	<path class="st0" d="M152.4,375.6v-13.3l33.5-52.7h11.5V328h-6.8l-21.1,33.4v0.6H217v13.6H152.4z M190.9,389.7v-18.1l0.3-5.9v-56
		h15.9v80.1H190.9z"/>
	<path class="st0" d="M325.1,337.6h-17.2c-0.3-2.2-1-4.2-1.9-5.9c-1-1.7-2.2-3.2-3.7-4.5c-1.5-1.2-3.3-2.2-5.2-2.8
		c-2-0.7-4.1-1-6.4-1c-4.2,0-7.8,1-10.8,3.1c-3.1,2-5.5,5-7.2,8.9c-1.7,3.9-2.5,8.6-2.5,14.2c0,5.7,0.8,10.5,2.5,14.4
		c1.7,3.9,4.1,6.8,7.2,8.8c3.1,2,6.6,3,10.7,3c2.3,0,4.4-0.3,6.3-0.9c2-0.6,3.7-1.5,5.2-2.6c1.5-1.2,2.8-2.6,3.8-4.3
		c1-1.7,1.7-3.6,2.1-5.7l17.2,0.1c-0.4,3.7-1.6,7.2-3.3,10.6c-1.7,3.4-4.1,6.4-7.1,9.1c-2.9,2.7-6.5,4.8-10.6,6.3
		c-4.1,1.5-8.7,2.3-13.8,2.3c-7.2,0-13.5-1.6-19.2-4.8c-5.6-3.2-10.1-7.9-13.3-14c-3.2-6.1-4.9-13.5-4.9-22.3
		c0-8.7,1.6-16.2,4.9-22.3c3.3-6.1,7.8-10.8,13.4-14c5.6-3.2,12-4.9,19-4.9c4.6,0,9,0.7,12.9,2c4,1.3,7.5,3.2,10.6,5.7
		c3.1,2.5,5.6,5.5,7.5,9.1C323.3,328.8,324.6,333,325.1,337.6z"/>
	<path class="st0" d="M354.1,390.8c-3.8,0-7.3-0.7-10.3-2c-3-1.4-5.4-3.4-7.1-6c-1.7-2.7-2.6-6-2.6-9.9c0-3.3,0.6-6.1,1.8-8.4
		c1.2-2.3,2.9-4.1,5-5.5c2.1-1.4,4.5-2.4,7.2-3.1c2.7-0.7,5.6-1.2,8.5-1.5c3.5-0.4,6.3-0.7,8.5-1c2.1-0.3,3.7-0.8,4.7-1.5
		c1-0.7,1.4-1.6,1.4-2.9v-0.2c0-2.5-0.8-4.4-2.4-5.7c-1.5-1.4-3.7-2-6.6-2c-3,0-5.4,0.7-7.2,2c-1.8,1.3-2.9,2.9-3.5,4.9l-15.4-1.3
		c0.8-3.7,2.3-6.8,4.6-9.5c2.3-2.7,5.3-4.7,8.9-6.2c3.7-1.5,7.9-2.2,12.7-2.2c3.3,0,6.5,0.4,9.6,1.2c3.1,0.8,5.8,2,8.2,3.6
		c2.4,1.6,4.3,3.8,5.7,6.3c1.4,2.6,2.1,5.6,2.1,9.2v40.5h-15.8v-8.3h-0.5c-1,1.9-2.3,3.5-3.9,5c-1.6,1.4-3.6,2.5-5.8,3.3
		C359.7,390.4,357.1,390.8,354.1,390.8z M358.9,379.3c2.5,0,4.6-0.5,6.5-1.4c1.9-1,3.4-2.3,4.4-4c1.1-1.7,1.6-3.6,1.6-5.7v-6.4
		c-0.5,0.3-1.2,0.7-2.2,0.9c-0.9,0.3-1.9,0.5-3,0.7c-1.1,0.2-2.2,0.4-3.4,0.6c-1.1,0.2-2.1,0.3-3.1,0.4c-2,0.3-3.7,0.7-5.1,1.4
		c-1.5,0.6-2.6,1.5-3.4,2.5c-0.8,1-1.2,2.3-1.2,3.9c0,2.3,0.8,4,2.5,5.2C354.2,378.7,356.3,379.3,358.9,379.3z"/>
	<path class="st0" d="M400.9,389.7v-60.1h16.2v10.5h0.6c1.1-3.7,2.9-6.5,5.5-8.4c2.6-1.9,5.6-2.9,8.9-2.9c0.8,0,1.7,0.1,2.7,0.2
		s1.8,0.2,2.5,0.4v14.8c-0.8-0.2-1.9-0.4-3.3-0.6c-1.4-0.2-2.7-0.3-3.8-0.3c-2.5,0-4.6,0.5-6.6,1.6c-1.9,1-3.4,2.5-4.5,4.4
		c-1.1,1.9-1.6,4-1.6,6.5v34H400.9z"/>
	<path class="st0" d="M471.9,389.7v-80.1h31.6c6.1,0,11.2,1.1,15.5,3.2c4.3,2.1,7.6,5.2,9.8,9.1c2.3,3.9,3.4,8.5,3.4,13.8
		c0,5.3-1.1,9.9-3.4,13.7c-2.3,3.8-5.6,6.7-10,8.8c-4.3,2-9.6,3.1-15.7,3.1h-21.2v-13.6h18.4c3.2,0,5.9-0.4,8.1-1.3
		c2.1-0.9,3.7-2.2,4.8-4c1.1-1.8,1.6-4,1.6-6.6c0-2.7-0.5-4.9-1.6-6.7c-1-1.8-2.7-3.2-4.8-4.1c-2.1-1-4.8-1.4-8.1-1.4h-11.4v66.2
		H471.9z M515.2,353.2l19.9,36.4h-18.7l-19.5-36.4H515.2z"/>
	<path class="st0" d="M570.4,390.8c-6.2,0-11.5-1.3-16-3.8c-4.4-2.5-7.9-6.1-10.3-10.7c-2.4-4.6-3.6-10.1-3.6-16.5
		c0-6.2,1.2-11.6,3.6-16.3c2.4-4.7,5.8-8.3,10.1-10.9c4.4-2.6,9.5-3.9,15.4-3.9c4,0,7.7,0.6,11.1,1.9c3.4,1.3,6.4,3.1,9,5.7
		c2.6,2.5,4.6,5.7,6,9.5c1.4,3.8,2.2,8.3,2.2,13.4v4.6h-50.8v-10.3h35.1c0-2.4-0.5-4.5-1.6-6.4c-1-1.9-2.5-3.3-4.3-4.3
		c-1.8-1.1-4-1.6-6.4-1.6c-2.5,0-4.8,0.6-6.7,1.8c-1.9,1.1-3.4,2.7-4.5,4.7c-1.1,1.9-1.7,4.1-1.7,6.5v9.8c0,3,0.5,5.5,1.6,7.7
		c1.1,2.2,2.7,3.8,4.7,5c2,1.2,4.5,1.8,7.2,1.8c1.9,0,3.6-0.3,5.1-0.8c1.5-0.5,2.9-1.3,4-2.3c1.1-1,1.9-2.3,2.5-3.8l15.4,1
		c-0.8,3.7-2.4,6.9-4.8,9.7c-2.4,2.7-5.5,4.9-9.3,6.4C579.7,390.1,575.3,390.8,570.4,390.8z"/>
	<path class="st0" d="M625.6,354.9v34.7h-16.7v-60.1h15.9v10.6h0.7c1.3-3.5,3.6-6.3,6.7-8.3c3.1-2.1,6.9-3.1,11.4-3.1
		c4.2,0,7.8,0.9,10.9,2.7c3.1,1.8,5.5,4.4,7.2,7.8c1.7,3.4,2.6,7.4,2.6,12v38.2h-16.7v-35.3c0-3.7-0.9-6.5-2.8-8.6
		c-1.9-2.1-4.5-3.1-7.9-3.1c-2.2,0-4.2,0.5-6,1.4c-1.7,1-3,2.4-4,4.2C626.1,350.1,625.6,352.3,625.6,354.9z"/>
	<path class="st0" d="M709.5,329.6v12.5h-36.2v-12.5H709.5z M681.5,315.2h16.7v56c0,1.5,0.2,2.7,0.7,3.6c0.5,0.8,1.1,1.4,2,1.8
		c0.9,0.3,1.9,0.5,3,0.5c0.8,0,1.6-0.1,2.3-0.2c0.8-0.2,1.4-0.3,1.8-0.4l2.6,12.4c-0.8,0.3-2,0.6-3.5,0.9c-1.5,0.4-3.4,0.6-5.5,0.7
		c-4,0.2-7.5-0.4-10.6-1.6c-3-1.2-5.3-3.1-7-5.7c-1.7-2.6-2.5-5.8-2.5-9.8V315.2z"/>
	<path class="st0" d="M737.5,390.8c-3.8,0-7.3-0.7-10.3-2c-3-1.4-5.4-3.4-7.1-6c-1.7-2.7-2.6-6-2.6-9.9c0-3.3,0.6-6.1,1.8-8.4
		s2.9-4.1,5-5.5c2.1-1.4,4.5-2.4,7.2-3.1c2.7-0.7,5.6-1.2,8.5-1.5c3.5-0.4,6.3-0.7,8.5-1c2.1-0.3,3.7-0.8,4.7-1.5
		c1-0.7,1.4-1.6,1.4-2.9v-0.2c0-2.5-0.8-4.4-2.4-5.7c-1.5-1.4-3.7-2-6.6-2c-3,0-5.4,0.7-7.2,2c-1.8,1.3-3,2.9-3.5,4.9l-15.4-1.3
		c0.8-3.7,2.3-6.8,4.6-9.5c2.3-2.7,5.3-4.7,8.9-6.2c3.7-1.5,7.9-2.2,12.7-2.2c3.3,0,6.5,0.4,9.6,1.2c3.1,0.8,5.8,2,8.2,3.6
		c2.4,1.6,4.3,3.8,5.7,6.3c1.4,2.6,2.1,5.6,2.1,9.2v40.5h-15.8v-8.3h-0.5c-1,1.9-2.3,3.5-3.9,5c-1.6,1.4-3.6,2.5-5.8,3.3
		C743.1,390.4,740.5,390.8,737.5,390.8z M742.3,379.3c2.5,0,4.6-0.5,6.5-1.4c1.9-1,3.4-2.3,4.4-4c1.1-1.7,1.6-3.6,1.6-5.7v-6.4
		c-0.5,0.3-1.2,0.7-2.2,0.9c-0.9,0.3-1.9,0.5-3,0.7c-1.1,0.2-2.2,0.4-3.4,0.6c-1.1,0.2-2.1,0.3-3.1,0.4c-2,0.3-3.7,0.7-5.1,1.4
		c-1.5,0.6-2.6,1.5-3.4,2.5c-0.8,1-1.2,2.3-1.2,3.9c0,2.3,0.8,4,2.5,5.2C737.6,378.7,739.7,379.3,742.3,379.3z"/>
	<path class="st0" d="M801,309.6v80.1h-16.7v-80.1H801z"/>
	<path class="st0" d="M864.5,390.8c-5.5,0-10.3-1-14.3-3c-4-2-7.1-4.7-9.3-8.1c-2.1-3.4-3.2-7.2-3.2-11.4c0-3.1,0.6-5.9,1.9-8.3
		s3-4.7,5.2-6.7c2.2-2.1,4.9-4.1,7.8-6.1l15.5-10.2c2-1.3,3.5-2.6,4.4-4c0.9-1.4,1.4-3,1.4-4.7c0-1.6-0.6-3.1-1.9-4.4
		c-1.3-1.4-3.1-2-5.4-2c-1.6,0-2.9,0.4-4.1,1.1c-1.1,0.7-2,1.6-2.7,2.7c-0.6,1.1-0.9,2.3-0.9,3.7c0,1.7,0.5,3.4,1.4,5.1
		c0.9,1.7,2.2,3.5,3.8,5.5c1.6,1.9,3.3,4,5.1,6.2l38,43.6h-17.4l-31.7-35.3c-2.1-2.4-4.2-4.9-6.3-7.4c-2.1-2.6-3.8-5.4-5.2-8.3
		c-1.4-2.9-2.1-6.1-2.1-9.6c0-3.9,0.9-7.4,2.7-10.5c1.8-3.1,4.4-5.6,7.7-7.4c3.3-1.8,7.1-2.7,11.5-2.7c4.3,0,8,0.9,11.1,2.6
		c3.1,1.7,5.5,4,7.2,6.9c1.7,2.8,2.5,6,2.5,9.4c0,3.8-0.9,7.2-2.8,10.3c-1.9,3-4.5,5.8-7.8,8.2l-16.4,11.8c-2.2,1.6-3.9,3.3-4.9,5
		c-1,1.7-1.6,3.3-1.6,4.8c0,1.9,0.5,3.6,1.4,5.1c0.9,1.5,2.3,2.7,4,3.6c1.7,0.9,3.7,1.3,6.1,1.3c2.8,0,5.6-0.6,8.3-1.9
		c2.8-1.3,5.3-3.1,7.5-5.5c2.3-2.4,4.1-5.2,5.4-8.5c1.4-3.3,2-6.9,2-10.9h13.8c0,4.9-0.5,9.3-1.6,13.3c-1.1,3.9-2.6,7.3-4.5,10.2
		c-1.9,2.9-4.1,5.3-6.5,7.1c-0.8,0.5-1.5,1-2.3,1.4c-0.7,0.4-1.5,0.9-2.3,1.4c-3,2.4-6.3,4.1-10,5.2
		C871.7,390.3,868.1,390.8,864.5,390.8z"/>
	<path class="st0" d="M937,323.5v-14h65.9v14h-24.6v66.1h-16.8v-66.1H937z"/>
	<path class="st0" d="M1007.1,389.7v-60.1h16.2v10.5h0.6c1.1-3.7,2.9-6.5,5.5-8.4c2.6-1.9,5.6-2.9,8.9-2.9c0.8,0,1.7,0.1,2.7,0.2
		c1,0.1,1.8,0.2,2.5,0.4v14.8c-0.8-0.2-1.9-0.4-3.2-0.6c-1.4-0.2-2.7-0.3-3.8-0.3c-2.5,0-4.7,0.5-6.6,1.6c-1.9,1-3.4,2.5-4.5,4.4
		c-1.1,1.9-1.6,4-1.6,6.5v34H1007.1z"/>
	<path class="st0" d="M1067.7,390.8c-3.8,0-7.3-0.7-10.3-2c-3-1.4-5.4-3.4-7.1-6c-1.7-2.7-2.6-6-2.6-9.9c0-3.3,0.6-6.1,1.8-8.4
		c1.2-2.3,2.9-4.1,5-5.5c2.1-1.4,4.5-2.4,7.2-3.1c2.7-0.7,5.6-1.2,8.5-1.5c3.5-0.4,6.3-0.7,8.5-1c2.1-0.3,3.7-0.8,4.7-1.5
		c1-0.7,1.4-1.6,1.4-2.9v-0.2c0-2.5-0.8-4.4-2.3-5.7c-1.5-1.4-3.7-2-6.6-2c-3,0-5.4,0.7-7.2,2c-1.8,1.3-2.9,2.9-3.5,4.9l-15.4-1.3
		c0.8-3.7,2.3-6.8,4.6-9.5c2.3-2.7,5.3-4.7,8.9-6.2c3.6-1.5,7.9-2.2,12.7-2.2c3.3,0,6.5,0.4,9.6,1.2c3.1,0.8,5.8,2,8.2,3.6
		c2.4,1.6,4.3,3.8,5.7,6.3c1.4,2.6,2.1,5.6,2.1,9.2v40.5h-15.8v-8.3h-0.5c-1,1.9-2.3,3.5-3.9,5c-1.6,1.4-3.6,2.5-5.8,3.3
		C1073.3,390.4,1070.7,390.8,1067.7,390.8z M1072.5,379.3c2.5,0,4.6-0.5,6.5-1.4c1.9-1,3.4-2.3,4.4-4c1.1-1.7,1.6-3.6,1.6-5.7v-6.4
		c-0.5,0.3-1.2,0.7-2.2,0.9c-0.9,0.3-1.9,0.5-3,0.7c-1.1,0.2-2.2,0.4-3.4,0.6c-1.1,0.2-2.1,0.3-3.1,0.4c-1.9,0.3-3.7,0.7-5.1,1.4
		c-1.5,0.6-2.6,1.5-3.4,2.5c-0.8,1-1.2,2.3-1.2,3.9c0,2.3,0.8,4,2.5,5.2C1067.8,378.7,1069.9,379.3,1072.5,379.3z"/>
	<path class="st0" d="M1168.4,329.6l-21,60.1h-18.8l-21-60.1h17.6l12.5,43h0.6l12.5-43H1168.4z"/>
	<path class="st0" d="M1202.4,390.8c-6.2,0-11.5-1.3-16-3.8c-4.4-2.5-7.9-6.1-10.3-10.7c-2.4-4.6-3.6-10.1-3.6-16.5
		c0-6.2,1.2-11.6,3.6-16.3c2.4-4.7,5.8-8.3,10.2-10.9c4.4-2.6,9.5-3.9,15.4-3.9c4,0,7.7,0.6,11.1,1.9c3.5,1.3,6.5,3.1,9,5.7
		c2.6,2.5,4.6,5.7,6,9.5c1.4,3.8,2.2,8.3,2.2,13.4v4.6h-50.8v-10.3h35.1c0-2.4-0.5-4.5-1.6-6.4c-1-1.9-2.5-3.3-4.3-4.3
		c-1.8-1.1-4-1.6-6.4-1.6c-2.5,0-4.8,0.6-6.7,1.8c-1.9,1.1-3.4,2.7-4.5,4.7c-1.1,1.9-1.7,4.1-1.7,6.5v9.8c0,3,0.5,5.5,1.6,7.7
		c1.1,2.2,2.7,3.8,4.7,5c2,1.2,4.4,1.8,7.2,1.8c1.8,0,3.5-0.3,5.1-0.8s2.9-1.3,3.9-2.3c1.1-1,1.9-2.3,2.5-3.8l15.4,1
		c-0.8,3.7-2.4,6.9-4.8,9.7c-2.4,2.7-5.5,4.9-9.3,6.4C1211.8,390.1,1207.4,390.8,1202.4,390.8z"/>
	<path class="st0" d="M1257.6,309.6v80.1h-16.7v-80.1H1257.6z"/>
	<path class="st0" d="M1296.8,389.7v-80.1h31.7c6.1,0,11.3,1.2,15.5,3.5c4.3,2.3,7.6,5.5,9.8,9.6c2.3,4.1,3.4,8.8,3.4,14.1
		c0,5.3-1.2,10-3.5,14.1c-2.3,4.1-5.6,7.2-10,9.5c-4.3,2.3-9.6,3.4-15.8,3.4h-20.2v-13.6h17.4c3.3,0,6-0.6,8.1-1.7
		c2.1-1.1,3.7-2.7,4.8-4.7c1.1-2,1.6-4.4,1.6-7c0-2.7-0.5-5-1.6-7c-1-2-2.6-3.6-4.8-4.7c-2.1-1.1-4.9-1.7-8.1-1.7h-11.4v66.2H1296.8
		z"/>
	<path class="st0" d="M1384.6,309.6v80.1h-16.7v-80.1H1384.6z"/>
	<path class="st0" d="M1415.1,390.8c-3.8,0-7.3-0.7-10.3-2c-3-1.4-5.4-3.4-7.1-6c-1.7-2.7-2.6-6-2.6-9.9c0-3.3,0.6-6.1,1.8-8.4
		c1.2-2.3,2.9-4.1,5-5.5c2.1-1.4,4.5-2.4,7.2-3.1c2.7-0.7,5.6-1.2,8.5-1.5c3.5-0.4,6.3-0.7,8.5-1c2.1-0.3,3.7-0.8,4.7-1.5
		c1-0.7,1.4-1.6,1.4-2.9v-0.2c0-2.5-0.8-4.4-2.3-5.7c-1.5-1.4-3.7-2-6.6-2c-3,0-5.4,0.7-7.2,2c-1.8,1.3-3,2.9-3.5,4.9l-15.4-1.3
		c0.8-3.7,2.3-6.8,4.6-9.5c2.3-2.7,5.3-4.7,8.9-6.2c3.7-1.5,7.9-2.2,12.7-2.2c3.3,0,6.5,0.4,9.6,1.2c3.1,0.8,5.8,2,8.2,3.6
		c2.4,1.6,4.3,3.8,5.7,6.3c1.4,2.6,2.1,5.6,2.1,9.2v40.5h-15.8v-8.3h-0.5c-1,1.9-2.2,3.5-3.9,5c-1.6,1.4-3.6,2.5-5.8,3.3
		C1420.7,390.4,1418.1,390.8,1415.1,390.8z M1419.9,379.3c2.5,0,4.6-0.5,6.5-1.4c1.9-1,3.3-2.3,4.4-4c1.1-1.7,1.6-3.6,1.6-5.7v-6.4
		c-0.5,0.3-1.2,0.7-2.2,0.9c-0.9,0.3-1.9,0.5-3,0.7c-1.1,0.2-2.2,0.4-3.4,0.6c-1.1,0.2-2.1,0.3-3,0.4c-2,0.3-3.7,0.7-5.1,1.4
		c-1.5,0.6-2.6,1.5-3.4,2.5c-0.8,1-1.2,2.3-1.2,3.9c0,2.3,0.8,4,2.5,5.2C1415.2,378.7,1417.3,379.3,1419.9,379.3z"/>
	<path class="st0" d="M1478.6,354.9v34.7h-16.7v-60.1h15.9v10.6h0.7c1.3-3.5,3.6-6.3,6.7-8.3c3.1-2.1,6.9-3.1,11.4-3.1
		c4.2,0,7.8,0.9,10.9,2.7c3.1,1.8,5.5,4.4,7.2,7.8c1.7,3.4,2.6,7.4,2.6,12v38.2h-16.7v-35.3c0-3.7-0.9-6.5-2.8-8.6
		c-1.9-2.1-4.5-3.1-7.9-3.1c-2.2,0-4.2,0.5-5.9,1.4c-1.7,1-3,2.4-4,4.2C1479.1,350.1,1478.6,352.3,1478.6,354.9z"/>
	<path class="st0" d="M1547.2,354.9v34.7h-16.7v-60.1h15.9v10.6h0.7c1.3-3.5,3.6-6.3,6.7-8.3c3.1-2.1,6.9-3.1,11.4-3.1
		c4.2,0,7.8,0.9,10.9,2.7c3.1,1.8,5.5,4.4,7.2,7.8c1.7,3.4,2.6,7.4,2.6,12v38.2h-16.7v-35.3c0-3.7-0.9-6.5-2.8-8.6
		c-1.9-2.1-4.5-3.1-7.9-3.1c-2.2,0-4.2,0.5-5.9,1.4c-1.7,1-3,2.4-4,4.2C1547.7,350.1,1547.2,352.3,1547.2,354.9z"/>
	<path class="st0" d="M1626.6,390.8c-6.2,0-11.5-1.3-16-3.8c-4.4-2.5-7.9-6.1-10.3-10.7c-2.4-4.6-3.6-10.1-3.6-16.5
		c0-6.2,1.2-11.6,3.6-16.3c2.4-4.7,5.8-8.3,10.1-10.9c4.4-2.6,9.5-3.9,15.4-3.9c4,0,7.7,0.6,11.1,1.9c3.4,1.3,6.4,3.1,9,5.7
		c2.6,2.5,4.6,5.7,6,9.5c1.4,3.8,2.2,8.3,2.2,13.4v4.6h-50.8v-10.3h35.1c0-2.4-0.5-4.5-1.6-6.4c-1-1.9-2.5-3.3-4.3-4.3
		c-1.8-1.1-4-1.6-6.4-1.6c-2.5,0-4.8,0.6-6.7,1.8c-1.9,1.1-3.4,2.7-4.5,4.7c-1.1,1.9-1.7,4.1-1.7,6.5v9.8c0,3,0.5,5.5,1.7,7.7
		c1.1,2.2,2.7,3.8,4.7,5c2,1.2,4.4,1.8,7.2,1.8c1.8,0,3.5-0.3,5.1-0.8s2.9-1.3,4-2.3c1.1-1,1.9-2.3,2.5-3.8l15.4,1
		c-0.8,3.7-2.4,6.9-4.8,9.7c-2.4,2.7-5.5,4.9-9.3,6.4C1635.9,390.1,1631.5,390.8,1626.6,390.8z"/>
	<path class="st0" d="M1665,389.7v-60.1h16.2v10.5h0.6c1.1-3.7,2.9-6.5,5.5-8.4c2.6-1.9,5.6-2.9,8.9-2.9c0.8,0,1.7,0.1,2.7,0.2
		c1,0.1,1.8,0.2,2.5,0.4v14.8c-0.8-0.2-1.9-0.4-3.2-0.6c-1.4-0.2-2.7-0.3-3.8-0.3c-2.4,0-4.6,0.5-6.6,1.6c-1.9,1-3.4,2.5-4.5,4.4
		c-1.1,1.9-1.6,4-1.6,6.5v34H1665z"/>
</g>
</svg>
