<svg width="1929" height="730" viewBox="0 0 1929 730" fill="none" xmlns="http://www.w3.org/2000/svg">
<path d="M424.586 211.405C425.074 209.649 425.612 208.234 426.198 207.161C426.784 205.99 428.103 205.16 430.155 204.673L473.392 194.72C473.588 194.72 473.832 194.671 474.125 194.574C474.418 194.476 474.663 194.427 474.858 194.427C476.226 194.427 477.154 195.013 477.643 196.184C478.229 197.355 478.522 198.477 478.522 199.55C478.522 199.745 478.473 200.135 478.376 200.721C478.376 201.306 478.327 201.697 478.229 201.892L417.55 386.013C415.987 390.014 414.668 393.283 413.593 395.819C412.616 398.259 411.59 400.308 410.515 401.967C409.538 403.528 408.365 404.845 406.998 405.918C405.727 406.992 403.968 408.065 401.721 409.138C399.571 410.212 396.836 411.431 393.513 412.797C390.191 414.261 385.99 416.212 380.909 418.652C379.15 419.53 377.782 419.969 376.805 419.969C375.241 419.969 374.069 419.383 373.287 418.213C372.505 417.042 371.87 415.724 371.382 414.261L346.319 325.127L314.953 389.672C314.465 390.843 313.341 392.404 311.582 394.356C309.823 396.307 307.82 398.308 305.573 400.357C303.423 402.406 301.225 404.406 298.977 406.357C296.828 408.211 295.069 409.724 293.701 410.895C292.431 411.968 291.063 413.041 289.597 414.115C288.229 415.188 286.812 416.164 285.347 417.042C283.881 417.92 282.464 418.603 281.096 419.091C279.826 419.676 278.605 419.969 277.432 419.969C274.892 419.969 273.23 418.554 272.449 415.724L215.581 215.503C215.385 214.723 215.141 213.942 214.848 213.161C214.652 212.381 214.555 211.649 214.555 210.966C214.555 208.527 215.141 206.478 216.313 204.819C217.486 203.16 219.538 201.745 222.469 200.574C225.401 199.404 229.309 198.477 234.195 197.794C239.08 197.013 245.285 196.379 252.809 195.891C256.326 195.403 259.258 195.062 261.603 194.866C264.046 194.671 266.098 194.574 267.759 194.574C270.592 194.574 272.449 195.013 273.328 195.891C274.208 196.769 274.989 198.233 275.673 200.282L305.866 316.346L330.929 273.316L320.816 229.261C320.23 226.919 319.985 225.163 320.083 223.992C320.083 221.748 320.669 219.943 321.842 218.577C323.014 217.211 324.969 216.089 327.705 215.211C330.441 214.332 334.007 213.552 338.404 212.869C342.899 212.186 348.371 211.405 354.82 210.527C357.653 210.137 360.096 209.844 362.148 209.649C364.2 209.454 365.959 209.356 367.424 209.356C370.356 209.356 372.359 209.795 373.434 210.673C374.508 211.552 375.29 212.966 375.779 214.918L395.712 305.076L424.586 211.405Z" fill="#F6CC4D"/>
<path d="M483.359 347.96C484.629 334.592 485.9 321.371 487.17 308.296C488.44 295.221 489.564 281.805 490.541 268.047C490.736 264.827 491.029 262.631 491.42 261.46C491.909 260.192 493.032 259.363 494.791 258.972C503.097 257.314 511.793 255.606 520.88 253.85C529.967 251.996 538.761 249.654 547.262 246.824C547.556 246.727 547.995 246.678 548.581 246.678C549.656 246.678 550.194 247.068 550.194 247.849L537.003 390.404C536.71 393.624 536.368 395.868 535.977 397.137C535.586 398.308 534.511 399.088 532.752 399.478C524.447 402.015 516.044 404.845 507.543 407.967C499.042 411.09 490.052 414.261 480.574 417.481C480.281 417.578 479.841 417.627 479.255 417.627C478.18 417.627 477.643 417.139 477.643 416.164C477.643 416.066 477.741 414.749 477.936 412.212C478.131 409.675 478.376 406.406 478.669 402.406C479.06 398.405 479.451 393.917 479.841 388.941C480.232 383.964 480.623 378.988 481.014 374.012C481.503 369.035 481.942 364.254 482.333 359.668C482.724 355.082 483.066 351.179 483.359 347.96ZM494.352 231.164C494.645 226.968 494.84 223.748 494.938 221.504C495.133 219.26 495.28 217.601 495.378 216.528C495.475 215.357 495.524 214.625 495.524 214.332C495.524 214.04 495.524 213.844 495.524 213.747C495.622 213.552 495.671 213.259 495.671 212.869C495.768 212.381 495.866 211.454 495.964 210.088C496.062 208.624 496.208 206.526 496.404 203.794C496.599 201.062 496.892 197.306 497.283 192.525C497.478 189.305 497.772 187.109 498.162 185.938C498.651 184.67 499.775 183.841 501.533 183.45C509.839 181.792 518.535 180.084 527.622 178.328C536.71 176.474 545.504 174.132 554.004 171.302C554.298 171.205 554.737 171.156 555.324 171.156C555.617 171.741 556.008 172.132 556.496 172.327L556.936 172.62L553.711 212.722C553.418 215.942 553.027 218.187 552.539 219.455C552.148 220.723 551.122 221.504 549.461 221.797C541.155 223.358 532.752 225.065 524.251 226.919C515.75 228.773 506.761 230.627 497.283 232.481C496.99 232.579 496.55 232.627 495.964 232.627C494.889 232.627 494.352 232.14 494.352 231.164Z" fill="#F6CC4D"/>
<path d="M579.361 286.195C580.533 272.828 581.461 259.607 582.145 246.532C582.927 233.457 583.758 220.04 584.637 206.283C584.832 203.063 585.126 200.867 585.516 199.696C586.005 198.428 587.129 197.598 588.887 197.208C597.975 195.549 607.062 193.891 616.149 192.232C625.334 190.476 634.519 188.183 643.704 185.353C643.997 185.255 644.436 185.207 645.023 185.207C646.098 185.207 646.635 185.694 646.635 186.67L627.581 395.673V398.161C627.581 399.039 627.239 399.771 626.555 400.357C625.871 400.844 624.259 401.43 621.719 402.113L583.318 416.164C582.243 416.651 580.826 417.139 579.067 417.627C577.309 418.213 575.599 418.505 573.938 418.505C572.57 418.505 571.348 418.164 570.273 417.481C569.296 416.798 568.808 415.627 568.808 413.968V413.09C569.589 403.235 570.322 393.624 571.006 384.257C571.788 374.792 572.57 365.035 573.351 354.985C574.231 344.935 575.159 334.299 576.136 323.078C577.113 311.857 578.188 299.563 579.361 286.195Z" fill="#F6CC4D"/>
<path d="M771.364 326.737C771.657 323.615 771.95 320.346 772.243 316.931C772.634 313.516 773.074 309.955 773.562 306.247C771.315 300.392 768.139 295.66 764.035 292.05C759.931 288.342 754.802 286.488 748.646 286.488C742.588 286.488 737.458 288.244 733.256 291.757C729.055 295.172 725.684 299.417 723.143 304.49C720.603 309.564 718.746 314.931 717.573 320.59C716.499 326.152 715.961 331.079 715.961 335.373C715.961 340.642 716.254 345.862 716.841 351.033C717.525 356.205 718.551 360.888 719.919 365.084C721.384 369.279 723.29 372.694 725.635 375.329C727.98 377.866 730.911 379.134 734.429 379.134C743.027 378.842 750.014 376.89 755.388 373.28C760.762 369.67 765.061 365.279 768.286 360.107L771.364 326.737ZM822.516 395.234C822.516 395.429 822.467 395.673 822.369 395.966C822.369 396.161 822.369 396.356 822.369 396.551C822.369 397.039 822.369 397.429 822.369 397.722C822.467 398.015 822.516 398.308 822.516 398.6C822.516 399.478 822.174 400.21 821.49 400.796C820.903 401.284 819.291 401.869 816.653 402.552L777.373 415.285C776.298 415.676 774.881 416.164 773.123 416.749C771.364 417.334 769.654 417.627 767.993 417.627C766.625 417.627 765.403 417.286 764.328 416.603C763.351 415.92 762.863 414.651 762.863 412.797C762.863 411.041 762.863 409.626 762.863 408.553C762.961 407.479 763.009 406.504 763.009 405.626C763.107 404.65 763.205 403.625 763.303 402.552C763.498 401.479 763.693 400.064 763.889 398.308C756.56 404.162 748.988 408.846 741.171 412.358C733.452 415.871 725.293 417.627 716.694 417.627C707.314 417.627 698.959 415.383 691.631 410.895C684.4 406.504 678.293 400.601 673.31 393.185C668.327 385.672 664.516 377.134 661.878 367.572C659.337 357.912 658.067 347.862 658.067 337.422C658.067 323.859 660.266 311.516 664.663 300.392C669.158 289.171 675.216 279.609 682.837 271.706C690.459 263.705 699.35 257.558 709.512 253.264C719.674 248.873 730.471 246.678 741.904 246.678C748.06 246.678 753.922 248.288 759.492 251.508C765.159 254.728 770.484 258.875 775.468 263.949C775.761 259.167 776.103 253.996 776.494 248.434C776.884 242.775 777.275 237.067 777.666 231.31C778.057 225.456 778.448 219.699 778.839 214.04C779.229 208.38 779.571 203.209 779.865 198.525C779.865 197.647 780.158 196.964 780.744 196.476C781.428 195.891 783.089 195.257 785.727 194.574L826.913 184.768C827.988 184.572 829.404 184.133 831.163 183.45C832.922 182.767 834.632 182.426 836.293 182.426C837.563 182.426 838.736 182.718 839.811 183.304C840.983 183.889 841.569 185.011 841.569 186.67C841.569 186.865 841.521 187.304 841.423 187.987C841.423 188.573 841.423 188.963 841.423 189.158L822.516 395.234Z" fill="#F6CC4D"/>
<path d="M998.69 398.308C998.592 399.186 998.396 400.064 998.103 400.942C997.908 401.723 997.273 402.357 996.198 402.845C995.807 403.04 993.853 403.772 990.335 405.04C986.915 406.211 982.909 407.626 978.317 409.285C973.822 410.846 969.327 412.407 964.833 413.968C960.436 415.627 957.064 416.895 954.719 417.774C953.547 418.261 952.081 418.749 950.322 419.237C948.661 419.823 947 420.115 945.339 420.115C943.971 420.115 942.75 419.774 941.675 419.091C940.698 418.408 940.209 417.139 940.209 415.285C940.209 410.992 940.307 407.089 940.502 403.577C940.795 399.966 941.138 396.21 941.528 392.307C941.919 388.404 942.31 384.111 942.701 379.427C943.189 374.646 943.629 368.987 944.02 362.449C944.509 353.863 945.046 345.618 945.632 337.714C946.219 329.713 946.805 321.42 947.391 312.833L949.443 287.805C949.736 283.707 950.029 279.56 950.322 275.365C950.615 271.071 950.909 266.681 951.202 262.192L952.814 244.336C952.814 244.141 952.521 244.044 951.935 244.044C951.153 244.044 949.834 244.239 947.977 244.629C946.121 244.922 943.922 245.312 941.382 245.8C938.841 246.288 936.008 246.824 932.881 247.41C929.852 247.898 926.725 248.386 923.501 248.873C922.719 248.873 921.937 248.727 921.155 248.434C920.471 248.044 920.129 247.605 920.129 247.117C920.129 246.727 920.227 246.434 920.423 246.239L944.167 204.819C949.541 203.648 955.306 202.477 961.462 201.306C967.715 200.038 974.408 198.916 981.541 197.94C988.674 196.964 996.247 196.184 1004.26 195.598C1012.27 194.915 1020.77 194.574 1029.76 194.574C1039.92 194.769 1049.79 195.793 1059.37 197.647C1069.04 199.404 1077.59 202.428 1085.02 206.722C1092.54 210.917 1098.55 216.674 1103.05 223.992C1107.64 231.213 1109.93 240.385 1109.93 251.508C1109.93 257.655 1108.86 263.314 1106.71 268.486C1104.66 273.657 1101.97 278.341 1098.65 282.536C1095.42 286.634 1091.86 290.293 1087.95 293.513C1084.04 296.636 1080.28 299.319 1076.66 301.563C1073.15 303.807 1070.02 305.613 1067.28 306.979C1064.55 308.247 1062.69 309.076 1061.71 309.467C1061.71 309.662 1061.76 309.906 1061.86 310.199C1062.06 310.491 1062.4 311.077 1062.89 311.955C1063.37 312.735 1064.06 313.906 1064.94 315.468C1065.92 316.931 1067.14 318.98 1068.6 321.615C1070.17 323.956 1072.02 327.079 1074.17 330.982C1076.32 334.885 1078.86 339.519 1081.79 344.886C1084.82 350.155 1088.29 356.058 1092.2 362.596C1096.11 369.133 1100.6 376.158 1105.68 383.672C1107.34 385.135 1109.25 386.062 1111.4 386.452C1113.55 386.745 1115.55 386.94 1117.41 387.038C1119.27 387.038 1120.83 387.135 1122.1 387.331C1123.37 387.428 1124 388.014 1124 389.087C1124 389.867 1123.17 390.794 1121.51 391.868C1119.95 392.843 1118.09 393.868 1115.94 394.941C1113.79 396.015 1111.6 397.039 1109.35 398.015C1107.2 398.991 1105.54 399.771 1104.36 400.357C1102.02 401.527 1099.58 402.65 1097.04 403.723C1094.5 404.796 1091.76 406.016 1088.83 407.382C1085.9 408.65 1082.62 410.163 1079.01 411.919C1075.49 413.675 1071.48 415.773 1066.99 418.213C1065.82 418.896 1064.69 419.335 1063.62 419.53C1062.64 419.823 1061.71 419.969 1060.83 419.969C1059.08 419.969 1057.56 419.53 1056.29 418.652C1055.02 417.871 1053.95 416.895 1053.07 415.724C1052.19 414.554 1051.45 413.334 1050.87 412.065C1050.38 410.895 1049.94 409.919 1049.55 409.138L1005.87 317.224L998.69 398.308ZM1007.63 299.221C1012.61 299.221 1017.79 297.953 1023.17 295.416C1028.54 292.879 1033.43 289.61 1037.82 285.61C1042.22 281.609 1045.84 277.072 1048.67 271.998C1051.5 266.925 1052.92 261.802 1052.92 256.631C1052.92 242.482 1044.42 235.408 1027.42 235.408C1024.19 235.408 1021.51 235.652 1019.36 236.14C1017.21 236.53 1015.25 236.823 1013.49 237.018L1007.63 299.221Z" fill="#F6CC4D"/>
<path d="M1139.69 347.96C1140.96 334.592 1142.23 321.371 1143.5 308.296C1144.77 295.221 1145.89 281.805 1146.87 268.047C1147.06 264.827 1147.36 262.631 1147.75 261.46C1148.24 260.192 1149.36 259.363 1151.12 258.972C1159.43 257.314 1168.12 255.606 1177.21 253.85C1186.3 251.996 1195.09 249.654 1203.59 246.824C1203.88 246.727 1204.32 246.678 1204.91 246.678C1205.98 246.678 1206.52 247.068 1206.52 247.849L1193.33 390.404C1193.04 393.624 1192.7 395.868 1192.3 397.137C1191.91 398.308 1190.84 399.088 1189.08 399.478C1180.77 402.015 1172.37 404.845 1163.87 407.967C1155.37 411.09 1146.38 414.261 1136.9 417.481C1136.61 417.578 1136.17 417.627 1135.58 417.627C1134.51 417.627 1133.97 417.139 1133.97 416.164C1133.97 416.066 1134.07 414.749 1134.26 412.212C1134.46 409.675 1134.7 406.406 1135 402.406C1135.39 398.405 1135.78 393.917 1136.17 388.941C1136.56 383.964 1136.95 378.988 1137.34 374.012C1137.83 369.035 1138.27 364.254 1138.66 359.668C1139.05 355.082 1139.39 351.179 1139.69 347.96ZM1150.68 231.164C1150.97 226.968 1151.17 223.748 1151.27 221.504C1151.46 219.26 1151.61 217.601 1151.71 216.528C1151.8 215.357 1151.85 214.625 1151.85 214.332C1151.85 214.04 1151.85 213.844 1151.85 213.747C1151.95 213.552 1152 213.259 1152 212.869C1152.1 212.381 1152.19 211.454 1152.29 210.088C1152.39 208.624 1152.54 206.526 1152.73 203.794C1152.93 201.062 1153.22 197.306 1153.61 192.525C1153.81 189.305 1154.1 187.109 1154.49 185.938C1154.98 184.67 1156.1 183.841 1157.86 183.45C1166.17 181.792 1174.86 180.084 1183.95 178.328C1193.04 176.474 1201.83 174.132 1210.33 171.302C1210.63 171.205 1211.07 171.156 1211.65 171.156C1211.94 171.741 1212.34 172.132 1212.82 172.327L1213.26 172.62L1210.04 212.722C1209.75 215.942 1209.36 218.187 1208.87 219.455C1208.48 220.723 1207.45 221.504 1205.79 221.797C1197.48 223.358 1189.08 225.065 1180.58 226.919C1172.08 228.773 1163.09 230.627 1153.61 232.481C1153.32 232.579 1152.88 232.627 1152.29 232.627C1151.22 232.627 1150.68 232.14 1150.68 231.164Z" fill="#F6CC4D"/>
<path d="M1336.53 326.737C1336.82 323.615 1337.11 320.346 1337.41 316.931C1337.8 313.516 1338.24 309.955 1338.73 306.247C1336.48 300.392 1333.3 295.66 1329.2 292.05C1325.09 288.342 1319.97 286.488 1313.81 286.488C1307.75 286.488 1302.62 288.244 1298.42 291.757C1294.22 295.172 1290.85 299.417 1288.31 304.49C1285.77 309.564 1283.91 314.931 1282.74 320.59C1281.66 326.152 1281.12 331.079 1281.12 335.373C1281.12 340.642 1281.42 345.862 1282 351.033C1282.69 356.205 1283.71 360.888 1285.08 365.084C1286.55 369.279 1288.45 372.694 1290.8 375.329C1293.14 377.866 1296.07 379.134 1299.59 379.134C1308.19 378.842 1315.18 376.89 1320.55 373.28C1325.93 369.67 1330.22 365.279 1333.45 360.107L1336.53 326.737ZM1387.68 395.234C1387.68 395.429 1387.63 395.673 1387.53 395.966C1387.53 396.161 1387.53 396.356 1387.53 396.551C1387.53 397.039 1387.53 397.429 1387.53 397.722C1387.63 398.015 1387.68 398.308 1387.68 398.6C1387.68 399.478 1387.34 400.21 1386.65 400.796C1386.07 401.284 1384.45 401.869 1381.82 402.552L1342.54 415.285C1341.46 415.676 1340.04 416.164 1338.29 416.749C1336.53 417.334 1334.82 417.627 1333.16 417.627C1331.79 417.627 1330.57 417.286 1329.49 416.603C1328.51 415.92 1328.03 414.651 1328.03 412.797C1328.03 411.041 1328.03 409.626 1328.03 408.553C1328.12 407.479 1328.17 406.504 1328.17 405.626C1328.27 404.65 1328.37 403.625 1328.47 402.552C1328.66 401.479 1328.86 400.064 1329.05 398.308C1321.72 404.162 1314.15 408.846 1306.33 412.358C1298.62 415.871 1290.46 417.627 1281.86 417.627C1272.48 417.627 1264.12 415.383 1256.79 410.895C1249.56 406.504 1243.46 400.601 1238.47 393.185C1233.49 385.672 1229.68 377.134 1227.04 367.572C1224.5 357.912 1223.23 347.862 1223.23 337.422C1223.23 323.859 1225.43 311.516 1229.83 300.392C1234.32 289.171 1240.38 279.609 1248 271.706C1255.62 263.705 1264.51 257.558 1274.68 253.264C1284.84 248.873 1295.63 246.678 1307.07 246.678C1313.22 246.678 1319.09 248.288 1324.66 251.508C1330.32 254.728 1335.65 258.875 1340.63 263.949C1340.92 259.167 1341.27 253.996 1341.66 248.434C1342.05 242.775 1342.44 237.067 1342.83 231.31C1343.22 225.456 1343.61 219.699 1344 214.04C1344.39 208.38 1344.73 203.209 1345.03 198.525C1345.03 197.647 1345.32 196.964 1345.91 196.476C1346.59 195.891 1348.25 195.257 1350.89 194.574L1392.08 184.768C1393.15 184.572 1394.57 184.133 1396.33 183.45C1398.09 182.767 1399.8 182.426 1401.46 182.426C1402.73 182.426 1403.9 182.718 1404.97 183.304C1406.15 183.889 1406.73 185.011 1406.73 186.67C1406.73 186.865 1406.68 187.304 1406.59 187.987C1406.59 188.573 1406.59 188.963 1406.59 189.158L1387.68 395.234Z" fill="#F6CC4D"/>
<path d="M1507.86 246.678C1517.15 246.678 1525.55 248.434 1533.07 251.947C1540.7 255.362 1547.19 259.851 1552.57 265.412C1558.04 270.876 1562.24 277.023 1565.17 283.854C1568.1 290.684 1569.57 297.514 1569.57 304.344C1569.57 310.394 1567.71 316.492 1564 322.639C1560.29 328.689 1555.06 334.153 1548.32 339.032C1541.67 343.91 1533.66 347.862 1524.28 350.887C1514.9 353.912 1504.59 355.424 1493.35 355.424C1487.49 355.424 1481.34 354.838 1474.89 353.668C1475.28 357.863 1476.5 361.474 1478.55 364.498C1480.6 367.523 1483.19 370.011 1486.32 371.963C1489.45 373.914 1492.96 375.378 1496.87 376.354C1500.88 377.232 1504.98 377.671 1509.18 377.671C1513.87 377.671 1518.37 377.28 1522.67 376.5C1527.06 375.622 1531.27 374.5 1535.27 373.134C1539.28 371.768 1543.14 370.255 1546.85 368.596C1550.56 366.938 1554.08 365.279 1557.4 363.62C1558.28 363.425 1559.02 363.279 1559.6 363.181C1560.29 362.986 1560.92 362.888 1561.51 362.888C1561.51 362.888 1561.46 363.669 1561.36 365.23C1561.36 366.791 1561.36 368.987 1561.36 371.816C1561.36 374.646 1561.31 378.061 1561.21 382.062C1561.21 386.062 1561.17 390.502 1561.07 395.38C1561.36 395.868 1561.56 396.356 1561.65 396.844C1561.75 397.332 1561.8 397.722 1561.8 398.015C1561.8 399.186 1560.73 400.454 1558.58 401.82C1556.43 403.186 1553.59 404.601 1550.08 406.065C1546.66 407.528 1542.7 408.943 1538.2 410.309C1533.81 411.675 1529.31 412.895 1524.72 413.968C1520.13 415.139 1515.68 416.017 1511.38 416.603C1507.08 417.286 1503.32 417.627 1500.1 417.627C1489.54 417.627 1479.28 415.773 1469.32 412.065C1459.45 408.455 1450.65 403.235 1442.93 396.405C1435.31 389.575 1429.21 381.281 1424.61 371.524C1420.02 361.766 1417.73 350.789 1417.73 338.592C1417.73 325.81 1419.92 313.858 1424.32 302.734C1428.72 291.513 1434.87 281.756 1442.79 273.462C1450.8 265.168 1460.33 258.631 1471.37 253.85C1482.41 249.069 1494.58 246.678 1507.86 246.678ZM1506.11 285.61C1502.1 285.61 1498.39 286.488 1494.97 288.244C1491.64 289.903 1488.57 292.343 1485.73 295.562C1483 298.685 1480.6 302.49 1478.55 306.979C1476.5 311.369 1474.84 316.248 1473.57 321.615C1483.63 319.858 1491.99 318.004 1498.63 316.053C1505.27 314.101 1510.6 312.15 1514.61 310.199C1518.61 308.149 1521.45 306.149 1523.11 304.198C1524.77 302.149 1525.6 300.197 1525.6 298.343C1525.6 296.587 1524.91 294.928 1523.55 293.367C1522.28 291.806 1520.66 290.44 1518.71 289.269C1516.76 288.098 1514.61 287.22 1512.26 286.634C1510.01 285.951 1507.96 285.61 1506.11 285.61Z" fill="#F6CC4D"/>
<path d="M1707.78 290.879C1705.73 290.684 1703.43 290.489 1700.89 290.293C1698.35 290.001 1695.67 289.854 1692.83 289.854C1688.53 289.854 1684.14 290.245 1679.64 291.025C1675.24 291.708 1671.14 293.123 1667.33 295.27C1663.52 297.416 1660.25 300.392 1657.51 304.198C1654.77 307.906 1653.01 312.735 1652.23 318.687C1651.55 325.908 1650.96 331.86 1650.47 336.543C1650.08 341.129 1649.79 344.935 1649.59 347.96C1649.4 350.887 1649.2 353.277 1649.01 355.131C1648.91 356.888 1648.81 358.546 1648.72 360.107C1648.72 360.498 1648.62 361.571 1648.42 363.327C1648.32 365.084 1648.13 367.133 1647.84 369.475C1647.54 371.816 1647.25 374.353 1646.96 377.085C1646.76 379.817 1646.52 382.354 1646.22 384.696C1645.93 387.038 1645.69 389.087 1645.49 390.843C1645.39 392.6 1645.34 393.673 1645.34 394.063C1645.34 394.844 1645.34 395.527 1645.34 396.112C1645.44 396.6 1645.49 397.088 1645.49 397.576C1645.49 398.356 1645.1 399.039 1644.32 399.625C1643.63 400.113 1642.02 400.698 1639.48 401.381L1600.64 415.285C1599.57 415.676 1598.15 416.164 1596.39 416.749C1594.63 417.334 1592.92 417.627 1591.26 417.627C1589.89 417.627 1588.67 417.286 1587.6 416.603C1586.62 415.92 1586.13 414.749 1586.13 413.09L1598.74 268.047C1599.03 264.827 1599.37 262.631 1599.76 261.46C1600.25 260.192 1601.37 259.363 1603.13 258.972C1612.02 257.216 1621.21 255.46 1630.69 253.703C1640.17 251.849 1649.35 249.508 1658.24 246.678C1659.02 246.678 1659.46 246.824 1659.56 247.117C1659.76 247.312 1659.85 247.654 1659.85 248.142C1659.85 248.337 1659.81 248.63 1659.71 249.02C1659.71 249.41 1659.56 250.288 1659.27 251.654C1659.07 253.02 1658.73 255.118 1658.24 257.948C1657.85 260.68 1657.27 264.534 1656.48 269.51C1660.98 265.998 1665.91 262.778 1671.29 259.85C1676.76 256.923 1682.23 254.435 1687.7 252.386C1693.17 250.239 1698.45 248.581 1703.53 247.41C1708.61 246.141 1713.06 245.507 1716.87 245.507L1707.78 290.879Z" fill="#F6CC4D"/>
<path d="M114.148 544.192V530.857L147.632 478.18H159.145V496.639H152.331L131.223 529.997V530.623H178.805V544.192H114.148ZM152.645 558.271V540.125L152.958 534.22V478.18H168.858V558.271H152.645Z" fill="#F6CC4D"/>
<path d="M239.329 547.165L192.531 500.51L202.791 490.147L249.629 536.919L239.329 547.165ZM202.791 547.165L192.531 536.919L239.329 490.147L249.629 500.51L202.791 547.165Z" fill="#F6CC4D"/>
<path d="M263.845 544.192V530.857L297.328 478.18H308.842V496.639H302.028L280.919 529.997V530.623H328.501V544.192H263.845ZM302.341 558.271V540.125L302.654 534.22V478.18H318.554V558.271H302.341Z" fill="#F6CC4D"/>
<path d="M436.559 506.22H419.406C419.092 504.004 418.453 502.035 417.487 500.315C416.521 498.568 415.281 497.082 413.766 495.857C412.252 494.631 410.503 493.693 408.519 493.041C406.56 492.389 404.433 492.063 402.135 492.063C397.984 492.063 394.368 493.093 391.287 495.153C388.207 497.186 385.818 500.158 384.121 504.069C382.424 507.954 381.575 512.673 381.575 518.226C381.575 523.935 382.424 528.732 384.121 532.617C385.844 536.502 388.246 539.434 391.327 541.416C394.407 543.397 397.971 544.388 402.018 544.388C404.289 544.388 406.391 544.088 408.323 543.489C410.281 542.889 412.017 542.016 413.531 540.868C415.046 539.695 416.299 538.274 417.291 536.606C418.309 534.937 419.014 533.034 419.406 530.896L436.559 530.974C436.115 534.65 435.005 538.196 433.23 541.611C431.481 545.001 429.118 548.038 426.141 550.723C423.191 553.383 419.667 555.494 415.568 557.059C411.495 558.597 406.887 559.366 401.744 559.366C394.59 559.366 388.194 557.749 382.554 554.517C376.941 551.284 372.503 546.604 369.239 540.477C366.002 534.351 364.383 526.933 364.383 518.226C364.383 509.492 366.028 502.062 369.318 495.935C372.607 489.808 377.072 485.141 382.711 481.935C388.35 478.702 394.694 477.085 401.744 477.085C406.391 477.085 410.699 477.737 414.667 479.041C418.662 480.344 422.199 482.248 425.28 484.75C428.361 487.227 430.867 490.264 432.799 493.862C434.757 497.46 436.01 501.579 436.559 506.22Z" fill="#F6CC4D"/>
<path d="M465.558 559.405C461.72 559.405 458.3 558.74 455.297 557.411C452.295 556.055 449.919 554.06 448.17 551.427C446.447 548.768 445.585 545.457 445.585 541.494C445.585 538.157 446.199 535.354 447.426 533.086C448.653 530.818 450.324 528.993 452.439 527.611C454.553 526.229 456.955 525.187 459.644 524.483C462.36 523.779 465.205 523.283 468.182 522.997C471.68 522.632 474.5 522.293 476.641 521.98C478.782 521.641 480.335 521.146 481.301 520.494C482.267 519.842 482.75 518.877 482.75 517.6V517.365C482.75 514.889 481.967 512.972 480.4 511.617C478.86 510.261 476.667 509.583 473.821 509.583C470.819 509.583 468.43 510.248 466.654 511.578C464.879 512.881 463.704 514.524 463.13 516.505L447.7 515.254C448.483 511.604 450.024 508.449 452.321 505.79C454.619 503.104 457.582 501.045 461.211 499.611C464.866 498.151 469.095 497.421 473.899 497.421C477.241 497.421 480.439 497.812 483.494 498.594C486.575 499.376 489.303 500.589 491.679 502.231C494.081 503.874 495.974 505.985 497.357 508.566C498.741 511.121 499.433 514.185 499.433 517.756V558.271H483.612V549.941H483.142C482.176 551.818 480.883 553.474 479.265 554.908C477.646 556.316 475.701 557.424 473.429 558.232C471.158 559.014 468.534 559.405 465.558 559.405ZM470.336 547.908C472.79 547.908 474.957 547.425 476.837 546.461C478.716 545.47 480.191 544.14 481.262 542.472C482.332 540.803 482.867 538.913 482.867 536.801V530.427C482.345 530.766 481.627 531.079 480.714 531.365C479.826 531.626 478.821 531.874 477.698 532.108C476.575 532.317 475.453 532.513 474.33 532.695C473.208 532.852 472.189 532.995 471.276 533.125C469.317 533.412 467.607 533.868 466.145 534.494C464.683 535.12 463.548 535.967 462.738 537.036C461.929 538.079 461.524 539.382 461.524 540.947C461.524 543.215 462.347 544.949 463.991 546.148C465.662 547.321 467.777 547.908 470.336 547.908Z" fill="#F6CC4D"/>
<path d="M512.376 558.271V498.203H528.55V508.684H529.176C530.273 504.955 532.114 502.14 534.698 500.237C537.283 498.307 540.259 497.343 543.627 497.343C544.463 497.343 545.363 497.395 546.329 497.499C547.295 497.603 548.144 497.747 548.875 497.929V512.712C548.092 512.477 547.008 512.268 545.624 512.086C544.241 511.903 542.974 511.812 541.826 511.812C539.372 511.812 537.178 512.347 535.246 513.416C533.341 514.458 531.826 515.918 530.704 517.795C529.607 519.673 529.059 521.837 529.059 524.287V558.271H512.376Z" fill="#F6CC4D"/>
<path d="M583.337 558.271V478.18H614.98C621.037 478.18 626.206 479.262 630.488 481.426C634.796 483.564 638.073 486.601 640.318 490.538C642.589 494.449 643.725 499.05 643.725 504.343C643.725 509.661 642.576 514.237 640.279 518.069C637.981 521.876 634.652 524.796 630.292 526.829C625.958 528.863 620.711 529.879 614.549 529.879H593.363V516.27H611.808C615.045 516.27 617.734 515.827 619.875 514.941C622.016 514.054 623.609 512.725 624.653 510.952C625.724 509.179 626.259 506.976 626.259 504.343C626.259 501.684 625.724 499.441 624.653 497.616C623.609 495.791 622.003 494.41 619.836 493.471C617.695 492.507 614.993 492.024 611.73 492.024H600.294V558.271H583.337ZM626.65 521.823L646.584 558.271H627.864L608.362 521.823H626.65Z" fill="#F6CC4D"/>
<path d="M681.839 559.444C675.652 559.444 670.326 558.193 665.861 555.69C661.423 553.161 658.003 549.589 655.601 544.975C653.199 540.334 651.998 534.846 651.998 528.511C651.998 522.332 653.199 516.909 655.601 512.242C658.003 507.576 661.384 503.939 665.744 501.332C670.13 498.724 675.273 497.421 681.173 497.421C685.142 497.421 688.836 498.06 692.256 499.337C695.703 500.589 698.705 502.479 701.264 505.008C703.848 507.537 705.859 510.717 707.294 514.55C708.73 518.356 709.448 522.814 709.448 527.924V532.5H658.655V522.175H693.744C693.744 519.777 693.222 517.652 692.178 515.801C691.134 513.95 689.685 512.503 687.831 511.46C686.003 510.391 683.876 509.857 681.448 509.857C678.915 509.857 676.67 510.443 674.712 511.617C672.78 512.764 671.266 514.315 670.169 516.27C669.072 518.2 668.511 520.35 668.485 522.723V532.539C668.485 535.511 669.033 538.079 670.13 540.243C671.252 542.407 672.832 544.075 674.868 545.248C676.905 546.422 679.32 547.008 682.113 547.008C683.967 547.008 685.664 546.747 687.204 546.226C688.745 545.705 690.063 544.922 691.16 543.88C692.256 542.837 693.092 541.559 693.666 540.047L709.096 541.064C708.313 544.766 706.707 547.999 704.279 550.762C701.877 553.5 698.77 555.638 694.958 557.176C691.173 558.688 686.8 559.444 681.839 559.444Z" fill="#F6CC4D"/>
<path d="M737.018 523.544V558.271H720.335V498.203H736.235V508.801H736.94C738.271 505.307 740.504 502.544 743.637 500.51C746.77 498.451 750.568 497.421 755.033 497.421C759.21 497.421 762.852 498.333 765.959 500.158C769.066 501.983 771.481 504.59 773.204 507.98C774.927 511.343 775.789 515.358 775.789 520.025V558.271H759.106V522.997C759.132 519.321 758.192 516.453 756.286 514.393C754.38 512.308 751.756 511.265 748.414 511.265C746.169 511.265 744.185 511.747 742.462 512.712C740.765 513.676 739.433 515.084 738.467 516.935C737.527 518.76 737.044 520.963 737.018 523.544Z" fill="#F6CC4D"/>
<path d="M820.932 498.203V510.717H784.708V498.203H820.932ZM792.932 483.812H809.615V539.813C809.615 541.351 809.85 542.55 810.32 543.41C810.79 544.245 811.442 544.831 812.278 545.17C813.139 545.509 814.131 545.679 815.254 545.679C816.037 545.679 816.82 545.613 817.604 545.483C818.387 545.327 818.987 545.209 819.405 545.131L822.029 557.528C821.194 557.789 820.019 558.088 818.504 558.427C816.99 558.792 815.15 559.014 812.983 559.092C808.962 559.249 805.437 558.714 802.409 557.489C799.406 556.263 797.07 554.36 795.399 551.779C793.728 549.198 792.906 545.939 792.932 542.003V483.812Z" fill="#F6CC4D"/>
<path d="M848.953 559.405C845.115 559.405 841.695 558.74 838.692 557.411C835.69 556.055 833.314 554.06 831.565 551.427C829.842 548.768 828.98 545.457 828.98 541.494C828.98 538.157 829.594 535.354 830.821 533.086C832.048 530.818 833.719 528.993 835.834 527.611C837.948 526.229 840.35 525.187 843.039 524.483C845.754 523.779 848.6 523.283 851.577 522.997C855.075 522.632 857.895 522.293 860.036 521.98C862.176 521.641 863.73 521.146 864.696 520.494C865.662 519.842 866.145 518.877 866.145 517.6V517.365C866.145 514.889 865.362 512.972 863.795 511.617C862.255 510.261 860.062 509.583 857.216 509.583C854.214 509.583 851.825 510.248 850.049 511.578C848.274 512.881 847.099 514.524 846.525 516.505L831.095 515.254C831.878 511.604 833.419 508.449 835.716 505.79C838.014 503.104 840.977 501.045 844.606 499.611C848.261 498.151 852.49 497.421 857.294 497.421C860.636 497.421 863.834 497.812 866.889 498.594C869.97 499.376 872.698 500.589 875.074 502.231C877.476 503.874 879.368 505.985 880.752 508.566C882.136 511.121 882.828 514.185 882.828 517.756V558.271H867.006V549.941H866.537C865.571 551.818 864.278 553.474 862.659 554.908C861.041 556.316 859.096 557.424 856.824 558.232C854.553 559.014 851.929 559.405 848.953 559.405ZM853.731 547.908C856.185 547.908 858.352 547.425 860.231 546.461C862.111 545.47 863.586 544.14 864.657 542.472C865.727 540.803 866.262 538.913 866.262 536.801V530.427C865.74 530.766 865.022 531.079 864.108 531.365C863.221 531.626 862.216 531.874 861.093 532.108C859.97 532.317 858.848 532.513 857.725 532.695C856.602 532.852 855.584 532.995 854.67 533.125C852.712 533.412 851.002 533.868 849.54 534.494C848.078 535.12 846.942 535.967 846.133 537.036C845.324 538.079 844.919 539.382 844.919 540.947C844.919 543.215 845.741 544.949 847.386 546.148C849.057 547.321 851.172 547.908 853.731 547.908Z" fill="#F6CC4D"/>
<path d="M912.454 478.18V558.271H895.771V478.18H912.454Z" fill="#F6CC4D"/>
<path d="M975.935 559.444C970.4 559.444 965.623 558.453 961.602 556.472C957.581 554.491 954.488 551.805 952.321 548.416C950.18 545.001 949.109 541.194 949.109 536.997C949.109 533.868 949.736 531.092 950.989 528.667C952.242 526.242 953.991 524.013 956.237 521.98C958.482 519.92 961.093 517.874 964.069 515.84L979.616 505.633C981.627 504.356 983.102 503.013 984.042 501.605C984.982 500.171 985.452 498.62 985.452 496.952C985.452 495.361 984.812 493.888 983.533 492.533C982.253 491.177 980.439 490.512 978.089 490.538C976.523 490.538 975.165 490.89 974.016 491.594C972.867 492.272 971.967 493.171 971.314 494.292C970.687 495.387 970.374 496.613 970.374 497.968C970.374 499.637 970.844 501.332 971.784 503.052C972.724 504.773 973.977 506.598 975.544 508.527C977.11 510.43 978.82 512.49 980.674 514.706L1018.7 558.271H1001.31L969.591 522.997C967.502 520.624 965.414 518.147 963.325 515.566C961.263 512.959 959.539 510.196 958.156 507.276C956.772 504.33 956.08 501.136 956.08 497.695C956.08 493.81 956.981 490.317 958.782 487.214C960.61 484.112 963.168 481.661 966.458 479.862C969.748 478.037 973.586 477.125 977.972 477.125C982.253 477.125 985.948 477.998 989.054 479.745C992.187 481.465 994.589 483.76 996.26 486.627C997.957 489.469 998.806 492.598 998.806 496.013C998.806 499.793 997.866 503.222 995.986 506.298C994.132 509.348 991.522 512.086 988.154 514.511L971.784 526.282C969.565 527.898 967.92 529.554 966.85 531.248C965.805 532.917 965.283 534.52 965.283 536.058C965.283 537.961 965.753 539.669 966.693 541.181C967.633 542.693 968.964 543.893 970.688 544.779C972.411 545.639 974.434 546.07 976.758 546.07C979.577 546.07 982.358 545.431 985.099 544.153C987.867 542.85 990.373 541.012 992.618 538.639C994.89 536.241 996.704 533.399 998.062 530.114C999.419 526.829 1000.1 523.192 1000.1 519.203H1013.92C1013.92 524.105 1013.39 528.524 1012.32 532.46C1011.25 536.371 1009.76 539.786 1007.85 542.706C1005.95 545.6 1003.77 547.973 1001.31 549.824C1000.53 550.319 999.772 550.788 999.041 551.232C998.31 551.675 997.553 552.144 996.769 552.64C993.793 555.038 990.464 556.772 986.783 557.841C983.128 558.91 979.512 559.444 975.935 559.444Z" fill="#F6CC4D"/>
<path d="M1048.43 492.142V478.18H1114.3V492.142H1089.75V558.271H1072.99V492.142H1048.43Z" fill="#F6CC4D"/>
<path d="M1118.59 558.271V498.203H1134.77V508.684H1135.39C1136.49 504.955 1138.33 502.14 1140.91 500.237C1143.5 498.307 1146.48 497.343 1149.84 497.343C1150.68 497.343 1151.58 497.395 1152.55 497.499C1153.51 497.603 1154.36 497.747 1155.09 497.929V512.712C1154.31 512.477 1153.22 512.268 1151.84 512.086C1150.46 511.903 1149.19 511.812 1148.04 511.812C1145.59 511.812 1143.39 512.347 1141.46 513.416C1139.56 514.458 1138.04 515.918 1136.92 517.795C1135.82 519.673 1135.28 521.837 1135.28 524.287V558.271H1118.59Z" fill="#F6CC4D"/>
<path d="M1179.15 559.405C1175.31 559.405 1171.89 558.74 1168.89 557.411C1165.88 556.055 1163.51 554.06 1161.76 551.427C1160.04 548.768 1159.17 545.457 1159.17 541.494C1159.17 538.157 1159.79 535.354 1161.01 533.086C1162.24 530.818 1163.91 528.993 1166.03 527.611C1168.14 526.229 1170.54 525.187 1173.23 524.483C1175.95 523.779 1178.79 523.283 1181.77 522.997C1185.27 522.632 1188.09 522.293 1190.23 521.98C1192.37 521.641 1193.92 521.146 1194.89 520.494C1195.86 519.842 1196.34 518.877 1196.34 517.6V517.365C1196.34 514.889 1195.56 512.972 1193.99 511.617C1192.45 510.261 1190.26 509.583 1187.41 509.583C1184.41 509.583 1182.02 510.248 1180.24 511.578C1178.47 512.881 1177.29 514.524 1176.72 516.505L1161.29 515.254C1162.07 511.604 1163.61 508.449 1165.91 505.79C1168.21 503.104 1171.17 501.045 1174.8 499.611C1178.45 498.151 1182.68 497.421 1187.49 497.421C1190.83 497.421 1194.03 497.812 1197.08 498.594C1200.16 499.376 1202.89 500.589 1205.27 502.231C1207.67 503.874 1209.56 505.985 1210.95 508.566C1212.33 511.121 1213.02 514.185 1213.02 517.756V558.271H1197.2V549.941H1196.73C1195.76 551.818 1194.47 553.474 1192.85 554.908C1191.23 556.316 1189.29 557.424 1187.02 558.232C1184.75 559.014 1182.12 559.405 1179.15 559.405ZM1183.92 547.908C1186.38 547.908 1188.55 547.425 1190.42 546.461C1192.3 545.47 1193.78 544.14 1194.85 542.472C1195.92 540.803 1196.46 538.913 1196.46 536.801V530.427C1195.93 530.766 1195.22 531.079 1194.3 531.365C1193.41 531.626 1192.41 531.874 1191.29 532.108C1190.16 532.317 1189.04 532.513 1187.92 532.695C1186.8 532.852 1185.78 532.995 1184.86 533.125C1182.91 533.412 1181.2 533.868 1179.73 534.494C1178.27 535.12 1177.14 535.967 1176.33 537.036C1175.52 538.079 1175.11 539.382 1175.11 540.947C1175.11 543.215 1175.93 544.949 1177.58 546.148C1179.25 547.321 1181.37 547.908 1183.92 547.908Z" fill="#F6CC4D"/>
<path d="M1279.89 498.203L1258.86 558.271H1240.06L1219.03 498.203H1236.66L1249.15 541.181H1249.77L1262.23 498.203H1279.89Z" fill="#F6CC4D"/>
<path d="M1313.9 559.444C1307.71 559.444 1302.39 558.193 1297.92 555.69C1293.49 553.161 1290.07 549.589 1287.66 544.975C1285.26 540.334 1284.06 534.846 1284.06 528.511C1284.06 522.332 1285.26 516.909 1287.66 512.242C1290.07 507.576 1293.45 503.939 1297.81 501.332C1302.19 498.724 1307.34 497.421 1313.24 497.421C1317.2 497.421 1320.9 498.06 1324.32 499.337C1327.77 500.589 1330.77 502.479 1333.33 505.008C1335.91 507.537 1337.92 510.717 1339.36 514.55C1340.79 518.356 1341.51 522.814 1341.51 527.924V532.5H1290.72V522.175H1325.81C1325.81 519.777 1325.29 517.652 1324.24 515.801C1323.2 513.95 1321.75 512.503 1319.89 511.46C1318.07 510.391 1315.94 509.857 1313.51 509.857C1310.98 509.857 1308.73 510.443 1306.77 511.617C1304.84 512.764 1303.33 514.315 1302.23 516.27C1301.14 518.2 1300.57 520.35 1300.55 522.723V532.539C1300.55 535.511 1301.1 538.079 1302.19 540.243C1303.32 542.407 1304.9 544.075 1306.93 545.248C1308.97 546.422 1311.38 547.008 1314.18 547.008C1316.03 547.008 1317.73 546.747 1319.27 546.226C1320.81 545.705 1322.13 544.922 1323.22 543.88C1324.32 542.837 1325.15 541.559 1325.73 540.047L1341.16 541.064C1340.38 544.766 1338.77 547.999 1336.34 550.762C1333.94 553.5 1330.83 555.638 1327.02 557.176C1323.24 558.688 1318.86 559.444 1313.9 559.444Z" fill="#F6CC4D"/>
<path d="M1369.08 478.18V558.271H1352.4V478.18H1369.08Z" fill="#F6CC4D"/>
<path d="M1408.28 558.271V478.18H1439.93C1446.01 478.18 1451.19 479.341 1455.47 481.661C1459.75 483.955 1463.02 487.149 1465.26 491.242C1467.53 495.309 1468.67 500.002 1468.67 505.32C1468.67 510.639 1467.52 515.332 1465.22 519.399C1462.93 523.466 1459.6 526.634 1455.24 528.902C1450.9 531.17 1445.66 532.304 1439.49 532.304H1419.33V518.734H1436.75C1440.02 518.734 1442.71 518.174 1444.82 517.052C1446.96 515.905 1448.55 514.328 1449.6 512.321C1450.67 510.287 1451.2 507.954 1451.2 505.32C1451.2 502.661 1450.67 500.341 1449.6 498.359C1448.55 496.352 1446.96 494.801 1444.82 493.706C1442.68 492.585 1439.96 492.024 1436.67 492.024H1425.24V558.271H1408.28Z" fill="#F6CC4D"/>
<path d="M1496.05 478.18V558.271H1479.37V478.18H1496.05Z" fill="#F6CC4D"/>
<path d="M1526.57 559.405C1522.73 559.405 1519.31 558.74 1516.31 557.411C1513.31 556.055 1510.93 554.06 1509.18 551.427C1507.46 548.768 1506.6 545.457 1506.6 541.494C1506.6 538.157 1507.21 535.354 1508.44 533.086C1509.67 530.818 1511.34 528.993 1513.45 527.611C1515.57 526.229 1517.97 525.187 1520.66 524.483C1523.37 523.779 1526.22 523.283 1529.19 522.997C1532.69 522.632 1535.51 522.293 1537.65 521.98C1539.79 521.641 1541.35 521.146 1542.31 520.494C1543.28 519.842 1543.76 518.877 1543.76 517.6V517.365C1543.76 514.889 1542.98 512.972 1541.41 511.617C1539.87 510.261 1537.68 509.583 1534.83 509.583C1531.83 509.583 1529.44 510.248 1527.67 511.578C1525.89 512.881 1524.72 514.524 1524.14 516.505L1508.71 515.254C1509.5 511.604 1511.04 508.449 1513.33 505.79C1515.63 503.104 1518.6 501.045 1522.22 499.611C1525.88 498.151 1530.11 497.421 1534.91 497.421C1538.25 497.421 1541.45 497.812 1544.51 498.594C1547.59 499.376 1550.32 500.589 1552.69 502.231C1555.09 503.874 1556.99 505.985 1558.37 508.566C1559.75 511.121 1560.45 514.185 1560.45 517.756V558.271H1544.62V549.941H1544.15C1543.19 551.818 1541.9 553.474 1540.28 554.908C1538.66 556.316 1536.71 557.424 1534.44 558.232C1532.17 559.014 1529.55 559.405 1526.57 559.405ZM1531.35 547.908C1533.8 547.908 1535.97 547.425 1537.85 546.461C1539.73 545.47 1541.2 544.14 1542.28 542.472C1543.35 540.803 1543.88 538.913 1543.88 536.801V530.427C1543.36 530.766 1542.64 531.079 1541.73 531.365C1540.84 531.626 1539.83 531.874 1538.71 532.108C1537.59 532.317 1536.47 532.513 1535.34 532.695C1534.22 532.852 1533.2 532.995 1532.29 533.125C1530.33 533.412 1528.62 533.868 1527.16 534.494C1525.7 535.12 1524.56 535.967 1523.75 537.036C1522.94 538.079 1522.54 539.382 1522.54 540.947C1522.54 543.215 1523.36 544.949 1525 546.148C1526.68 547.321 1528.79 547.908 1531.35 547.908Z" fill="#F6CC4D"/>
<path d="M1590.07 523.544V558.271H1573.39V498.203H1589.29V508.801H1589.99C1591.33 505.307 1593.56 502.544 1596.69 500.51C1599.82 498.451 1603.62 497.421 1608.09 497.421C1612.26 497.421 1615.91 498.333 1619.01 500.158C1622.12 501.983 1624.53 504.59 1626.26 507.98C1627.98 511.343 1628.84 515.358 1628.84 520.025V558.271H1612.16V522.997C1612.19 519.321 1611.25 516.453 1609.34 514.393C1607.43 512.308 1604.81 511.265 1601.47 511.265C1599.22 511.265 1597.24 511.747 1595.52 512.712C1593.82 513.676 1592.49 515.084 1591.52 516.935C1590.58 518.76 1590.1 520.963 1590.07 523.544Z" fill="#F6CC4D"/>
<path d="M1658.67 523.544V558.271H1641.99V498.203H1657.89V508.801H1658.6C1659.93 505.307 1662.16 502.544 1665.29 500.51C1668.42 498.451 1672.22 497.421 1676.69 497.421C1680.87 497.421 1684.51 498.333 1687.61 500.158C1690.72 501.983 1693.14 504.59 1694.86 507.98C1696.58 511.343 1697.44 515.358 1697.44 520.025V558.271H1680.76V522.997C1680.79 519.321 1679.85 516.453 1677.94 514.393C1676.04 512.308 1673.41 511.265 1670.07 511.265C1667.82 511.265 1665.84 511.747 1664.12 512.712C1662.42 513.676 1661.09 515.084 1660.12 516.935C1659.18 518.76 1658.7 520.963 1658.67 523.544Z" fill="#F6CC4D"/>
<path d="M1738.01 559.444C1731.82 559.444 1726.49 558.193 1722.03 555.69C1717.59 553.161 1714.17 549.589 1711.77 544.975C1709.37 540.334 1708.16 534.846 1708.16 528.511C1708.16 522.332 1709.37 516.909 1711.77 512.242C1714.17 507.576 1717.55 503.939 1721.91 501.332C1726.3 498.724 1731.44 497.421 1737.34 497.421C1741.31 497.421 1745 498.06 1748.42 499.337C1751.87 500.589 1754.87 502.479 1757.43 505.008C1760.02 507.537 1762.03 510.717 1763.46 514.55C1764.9 518.356 1765.62 522.814 1765.62 527.924V532.5H1714.82V522.175H1749.91C1749.91 519.777 1749.39 517.652 1748.34 515.801C1747.3 513.95 1745.85 512.503 1744 511.46C1742.17 510.391 1740.04 509.857 1737.61 509.857C1735.08 509.857 1732.84 510.443 1730.88 511.617C1728.95 512.764 1727.43 514.315 1726.34 516.27C1725.24 518.2 1724.68 520.35 1724.65 522.723V532.539C1724.65 535.511 1725.2 538.079 1726.3 540.243C1727.42 542.407 1729 544.075 1731.04 545.248C1733.07 546.422 1735.49 547.008 1738.28 547.008C1740.13 547.008 1741.83 546.747 1743.37 546.226C1744.91 545.705 1746.23 544.922 1747.33 543.88C1748.42 542.837 1749.26 541.559 1749.83 540.047L1765.26 541.064C1764.48 544.766 1762.87 547.999 1760.45 550.762C1758.04 553.5 1754.94 555.638 1751.13 557.176C1747.34 558.688 1742.97 559.444 1738.01 559.444Z" fill="#F6CC4D"/>
<path d="M1776.5 558.271V498.203H1792.68V508.684H1793.3C1794.4 504.955 1796.24 502.14 1798.82 500.237C1801.41 498.307 1804.39 497.343 1807.75 497.343C1808.59 497.343 1809.49 497.395 1810.46 497.499C1811.42 497.603 1812.27 497.747 1813 497.929V512.712C1812.22 512.477 1811.13 512.268 1809.75 512.086C1808.37 511.903 1807.1 511.812 1805.95 511.812C1803.5 511.812 1801.3 512.347 1799.37 513.416C1797.47 514.458 1795.95 515.918 1794.83 517.795C1793.73 519.673 1793.19 521.837 1793.19 524.287V558.271H1776.5Z" fill="#F6CC4D"/>
</svg>
