<svg width="1929" height="730" viewBox="0 0 1929 730" fill="none" xmlns="http://www.w3.org/2000/svg">
<path d="M428.754 234.008C429.238 232.265 429.77 230.862 430.351 229.797C430.932 228.635 432.239 227.812 434.272 227.328L477.114 217.452C477.307 217.452 477.549 217.404 477.84 217.307C478.13 217.21 478.372 217.162 478.566 217.162C479.921 217.162 480.841 217.743 481.325 218.905C481.906 220.067 482.196 221.18 482.196 222.245C482.196 222.439 482.148 222.826 482.051 223.407C482.051 223.988 482.003 224.375 481.906 224.569L421.783 407.261C420.234 411.231 418.927 414.474 417.862 416.991C416.894 419.412 415.877 421.445 414.812 423.091C413.844 424.64 412.682 425.947 411.327 427.012C410.068 428.077 408.325 429.142 406.099 430.207C403.969 431.272 401.258 432.482 397.966 433.838C394.674 435.29 390.511 437.226 385.477 439.646C383.734 440.518 382.379 440.954 381.41 440.954C379.861 440.954 378.7 440.373 377.925 439.211C377.15 438.049 376.521 436.742 376.037 435.29L351.204 346.848L320.125 410.892C319.641 412.054 318.528 413.603 316.785 415.539C315.043 417.476 313.058 419.46 310.831 421.493C308.701 423.527 306.523 425.511 304.296 427.448C302.166 429.287 300.423 430.788 299.068 431.95C297.809 433.015 296.454 434.08 295.002 435.145C293.646 436.209 292.242 437.178 290.79 438.049C289.338 438.92 287.934 439.598 286.579 440.082C285.32 440.663 284.11 440.954 282.948 440.954C280.431 440.954 278.785 439.55 278.01 436.742L221.663 238.074C221.469 237.3 221.227 236.525 220.937 235.751C220.743 234.976 220.646 234.25 220.646 233.572C220.646 231.152 221.227 229.119 222.389 227.473C223.551 225.827 225.584 224.423 228.489 223.261C231.393 222.1 235.266 221.18 240.107 220.502C244.947 219.728 251.095 219.098 258.55 218.614C262.036 218.13 264.94 217.791 267.264 217.598C269.684 217.404 271.717 217.307 273.363 217.307C276.171 217.307 278.01 217.743 278.882 218.614C279.753 219.486 280.528 220.938 281.205 222.971L311.122 338.134L335.955 295.438L325.934 251.726C325.354 249.402 325.112 247.659 325.208 246.497C325.208 244.271 325.789 242.48 326.951 241.124C328.113 239.769 330.049 238.655 332.76 237.784C335.471 236.913 339.005 236.138 343.361 235.46C347.815 234.783 353.237 234.008 359.627 233.137C362.434 232.75 364.855 232.459 366.888 232.265C368.921 232.072 370.664 231.975 372.116 231.975C375.02 231.975 377.005 232.411 378.07 233.282C379.135 234.153 379.91 235.557 380.394 237.494L400.144 326.952L428.754 234.008Z" fill="#F6CC4D"/>
<path d="M486.989 369.503C488.247 356.239 489.506 343.12 490.765 330.147C492.023 317.174 493.137 303.861 494.105 290.21C494.298 287.015 494.589 284.837 494.976 283.675C495.46 282.416 496.574 281.593 498.316 281.206C506.546 279.56 515.162 277.866 524.166 276.123C533.17 274.284 541.884 271.96 550.307 269.153C550.597 269.056 551.033 269.007 551.614 269.007C552.679 269.007 553.211 269.395 553.211 270.169L540.141 411.618C539.851 414.813 539.512 417.04 539.125 418.298C538.737 419.46 537.672 420.235 535.93 420.622C527.7 423.139 519.374 425.947 510.951 429.045C502.528 432.143 493.621 435.29 484.23 438.485C483.939 438.582 483.503 438.63 482.923 438.63C481.858 438.63 481.325 438.146 481.325 437.178C481.325 437.081 481.422 435.774 481.616 433.257C481.809 430.739 482.051 427.496 482.342 423.527C482.729 419.557 483.116 415.103 483.503 410.166C483.891 405.228 484.278 400.291 484.665 395.353C485.149 390.415 485.585 385.671 485.972 381.121C486.36 376.571 486.698 372.698 486.989 369.503ZM497.881 253.613C498.171 249.45 498.365 246.255 498.462 244.029C498.655 241.802 498.8 240.156 498.897 239.091C498.994 237.929 499.042 237.203 499.042 236.913C499.042 236.622 499.042 236.429 499.042 236.332C499.139 236.138 499.188 235.848 499.188 235.46C499.285 234.976 499.381 234.057 499.478 232.701C499.575 231.249 499.72 229.167 499.914 226.456C500.107 223.746 500.398 220.018 500.785 215.274C500.979 212.079 501.269 209.901 501.657 208.739C502.141 207.48 503.254 206.657 504.997 206.27C513.226 204.624 521.843 202.93 530.847 201.187C539.851 199.348 548.564 197.024 556.987 194.217C557.278 194.12 557.713 194.071 558.294 194.071C558.585 194.652 558.972 195.039 559.456 195.233L559.892 195.524L556.697 235.315C556.406 238.51 556.019 240.737 555.535 241.995C555.148 243.254 554.131 244.029 552.485 244.319C544.256 245.868 535.93 247.562 527.507 249.402C519.084 251.241 510.176 253.081 500.785 254.92C500.495 255.017 500.059 255.066 499.478 255.066C498.413 255.066 497.881 254.582 497.881 253.613Z" fill="#F6CC4D"/>
<path d="M582.111 308.218C583.273 294.954 584.193 281.836 584.87 268.862C585.645 255.889 586.468 242.576 587.339 228.925C587.533 225.73 587.823 223.552 588.211 222.39C588.695 221.132 589.808 220.309 591.551 219.921C600.555 218.275 609.559 216.63 618.563 214.984C627.663 213.241 636.764 210.966 645.865 208.158C646.155 208.061 646.591 208.013 647.172 208.013C648.237 208.013 648.769 208.497 648.769 209.465L629.89 416.846V419.315C629.89 420.186 629.551 420.912 628.873 421.493C628.196 421.977 626.598 422.558 624.081 423.236L586.032 437.178C584.967 437.662 583.563 438.146 581.821 438.63C580.078 439.211 578.384 439.501 576.738 439.501C575.382 439.501 574.172 439.162 573.107 438.485C572.139 437.807 571.655 436.645 571.655 434.999V434.128C572.429 424.349 573.156 414.813 573.833 405.519C574.608 396.127 575.382 386.446 576.157 376.474C577.028 366.502 577.948 355.949 578.916 344.815C579.884 333.681 580.949 321.482 582.111 308.218Z" fill="#F6CC4D"/>
<path d="M772.356 348.445C772.646 345.347 772.937 342.104 773.227 338.715C773.614 335.327 774.05 331.793 774.534 328.114C772.307 322.305 769.161 317.609 765.094 314.027C761.028 310.348 755.945 308.508 749.846 308.508C743.843 308.508 738.76 310.251 734.597 313.737C730.434 317.125 727.094 321.337 724.577 326.371C722.059 331.406 720.22 336.73 719.058 342.346C717.993 347.864 717.461 352.754 717.461 357.014C717.461 362.242 717.751 367.421 718.332 372.553C719.01 377.684 720.026 382.331 721.382 386.494C722.834 390.657 724.722 394.046 727.045 396.66C729.369 399.177 732.274 400.436 735.759 400.436C744.279 400.145 751.201 398.209 756.526 394.627C761.851 391.045 766.111 386.688 769.306 381.557L772.356 348.445ZM823.039 416.411C823.039 416.604 822.991 416.846 822.894 417.137C822.894 417.33 822.894 417.524 822.894 417.718C822.894 418.202 822.894 418.589 822.894 418.879C822.991 419.17 823.039 419.46 823.039 419.751C823.039 420.622 822.7 421.348 822.023 421.929C821.442 422.413 819.844 422.994 817.23 423.672L778.31 436.306C777.245 436.694 775.841 437.178 774.098 437.759C772.356 438.339 770.661 438.63 769.015 438.63C767.66 438.63 766.45 438.291 765.385 437.613C764.417 436.936 763.933 435.677 763.933 433.838C763.933 432.095 763.933 430.691 763.933 429.626C764.029 428.561 764.078 427.593 764.078 426.721C764.175 425.753 764.271 424.737 764.368 423.672C764.562 422.607 764.756 421.203 764.949 419.46C757.688 425.269 750.185 429.916 742.439 433.402C734.791 436.887 726.707 438.63 718.187 438.63C708.892 438.63 700.615 436.403 693.353 431.95C686.189 427.593 680.138 421.735 675.2 414.377C670.263 406.922 666.487 398.451 663.873 388.963C661.355 379.378 660.097 369.406 660.097 359.047C660.097 345.589 662.275 333.342 666.632 322.305C671.086 311.171 677.088 301.683 684.64 293.841C692.192 285.902 701.002 279.802 711.071 275.542C721.14 271.186 731.838 269.007 743.165 269.007C749.265 269.007 755.074 270.605 760.592 273.8C766.208 276.995 771.484 281.109 776.422 286.144C776.712 281.4 777.051 276.269 777.438 270.75C777.826 265.135 778.213 259.471 778.6 253.759C778.988 247.95 779.375 242.238 779.762 236.622C780.149 231.007 780.488 225.876 780.779 221.228C780.779 220.357 781.069 219.679 781.65 219.195C782.328 218.614 783.974 217.985 786.588 217.307L827.396 207.577C828.461 207.384 829.865 206.948 831.607 206.27C833.35 205.592 835.044 205.254 836.69 205.254C837.949 205.254 839.111 205.544 840.176 206.125C841.337 206.706 841.918 207.819 841.918 209.465C841.918 209.659 841.87 210.094 841.773 210.772C841.773 211.353 841.773 211.74 841.773 211.934L823.039 416.411Z" fill="#F6CC4D"/>
<path d="M997.599 419.46C997.503 420.332 997.309 421.203 997.018 422.074C996.825 422.849 996.196 423.478 995.131 423.962C994.743 424.156 992.807 424.882 989.322 426.141C985.933 427.302 981.964 428.706 977.413 430.352C972.96 431.901 968.506 433.45 964.052 434.999C959.696 436.645 956.355 437.904 954.032 438.775C952.87 439.259 951.418 439.743 949.675 440.227C948.029 440.808 946.383 441.099 944.738 441.099C943.382 441.099 942.172 440.76 941.107 440.082C940.139 439.404 939.655 438.146 939.655 436.306C939.655 432.046 939.751 428.174 939.945 424.688C940.236 421.106 940.574 417.379 940.962 413.506C941.349 409.633 941.736 405.373 942.124 400.726C942.608 395.982 943.043 390.367 943.431 383.88C943.915 375.36 944.447 367.179 945.028 359.337C945.609 351.398 946.19 343.169 946.771 334.649L948.804 309.815C949.094 305.749 949.385 301.634 949.675 297.471C949.966 293.211 950.256 288.855 950.547 284.401L952.144 266.684C952.144 266.49 951.854 266.393 951.273 266.393C950.498 266.393 949.191 266.587 947.352 266.974C945.512 267.265 943.334 267.652 940.816 268.136C938.299 268.62 935.492 269.153 932.393 269.733C929.392 270.218 926.294 270.702 923.099 271.186C922.324 271.186 921.55 271.04 920.775 270.75C920.098 270.363 919.759 269.927 919.759 269.443C919.759 269.056 919.856 268.765 920.049 268.572L943.576 227.473C948.901 226.311 954.613 225.149 960.712 223.988C966.909 222.729 973.54 221.616 980.608 220.647C987.676 219.679 995.179 218.905 1003.12 218.324C1011.06 217.646 1019.48 217.307 1028.39 217.307C1038.46 217.501 1048.23 218.517 1057.72 220.357C1067.31 222.1 1075.78 225.101 1083.14 229.361C1090.59 233.524 1096.55 239.236 1101 246.497C1105.55 253.662 1107.83 262.763 1107.83 273.8C1107.83 279.899 1106.76 285.515 1104.63 290.646C1102.6 295.777 1099.93 300.424 1096.64 304.587C1093.45 308.654 1089.91 312.284 1086.04 315.479C1082.17 318.577 1078.44 321.24 1074.86 323.467C1071.37 325.693 1068.28 327.485 1065.56 328.84C1062.85 330.099 1061.01 330.921 1060.05 331.309C1060.05 331.502 1060.09 331.744 1060.19 332.035C1060.38 332.325 1060.72 332.906 1061.21 333.778C1061.69 334.552 1062.37 335.714 1063.24 337.263C1064.21 338.715 1065.42 340.748 1066.87 343.362C1068.42 345.686 1070.26 348.784 1072.39 352.657C1074.52 356.529 1077.04 361.128 1079.94 366.453C1082.94 371.681 1086.38 377.539 1090.25 384.025C1094.13 390.512 1098.58 397.483 1103.61 404.938C1105.26 406.39 1107.15 407.31 1109.28 407.697C1111.41 407.987 1113.39 408.181 1115.23 408.278C1117.07 408.278 1118.62 408.375 1119.88 408.568C1121.14 408.665 1121.77 409.246 1121.77 410.311C1121.77 411.086 1120.94 412.005 1119.3 413.07C1117.75 414.039 1115.91 415.055 1113.78 416.12C1111.65 417.185 1109.47 418.202 1107.24 419.17C1105.11 420.138 1103.47 420.912 1102.31 421.493C1099.98 422.655 1097.56 423.769 1095.05 424.834C1092.53 425.899 1089.82 427.109 1086.91 428.464C1084.01 429.723 1080.76 431.223 1077.18 432.966C1073.7 434.709 1069.73 436.79 1065.27 439.211C1064.11 439.889 1063 440.324 1061.93 440.518C1060.97 440.808 1060.05 440.954 1059.17 440.954C1057.43 440.954 1055.93 440.518 1054.67 439.646C1053.41 438.872 1052.35 437.904 1051.48 436.742C1050.61 435.58 1049.88 434.37 1049.3 433.111C1048.82 431.95 1048.38 430.981 1047.99 430.207L1004.72 339.006L997.599 419.46ZM1006.46 321.143C1011.4 321.143 1016.53 319.884 1021.85 317.367C1027.18 314.85 1032.02 311.607 1036.37 307.637C1040.73 303.668 1044.31 299.166 1047.12 294.131C1049.93 289.097 1051.33 284.014 1051.33 278.883C1051.33 264.844 1042.91 257.825 1026.06 257.825C1022.87 257.825 1020.21 258.067 1018.08 258.551C1015.95 258.938 1014.01 259.229 1012.27 259.422L1006.46 321.143Z" fill="#F6CC4D"/>
<path d="M1137.31 369.503C1138.56 356.239 1139.82 343.12 1141.08 330.147C1142.34 317.174 1143.45 303.861 1144.42 290.21C1144.62 287.015 1144.91 284.837 1145.29 283.675C1145.78 282.416 1146.89 281.593 1148.63 281.206C1156.86 279.56 1165.48 277.866 1174.48 276.123C1183.49 274.284 1192.2 271.96 1200.62 269.153C1200.91 269.056 1201.35 269.007 1201.93 269.007C1203 269.007 1203.53 269.395 1203.53 270.169L1190.46 411.618C1190.17 414.813 1189.83 417.04 1189.44 418.298C1189.05 419.46 1187.99 420.235 1186.25 420.622C1178.02 423.139 1169.69 425.947 1161.27 429.045C1152.84 432.143 1143.94 435.29 1134.55 438.485C1134.26 438.582 1133.82 438.63 1133.24 438.63C1132.17 438.63 1131.64 438.146 1131.64 437.178C1131.64 437.081 1131.74 435.774 1131.93 433.257C1132.13 430.739 1132.37 427.496 1132.66 423.527C1133.05 419.557 1133.43 415.103 1133.82 410.166C1134.21 405.228 1134.59 400.291 1134.98 395.353C1135.47 390.415 1135.9 385.671 1136.29 381.121C1136.68 376.571 1137.02 372.698 1137.31 369.503ZM1148.2 253.613C1148.49 249.45 1148.68 246.255 1148.78 244.029C1148.97 241.802 1149.12 240.156 1149.21 239.091C1149.31 237.929 1149.36 237.203 1149.36 236.913C1149.36 236.622 1149.36 236.429 1149.36 236.332C1149.46 236.138 1149.5 235.848 1149.5 235.46C1149.6 234.976 1149.7 234.057 1149.79 232.701C1149.89 231.249 1150.04 229.167 1150.23 226.456C1150.42 223.746 1150.71 220.018 1151.1 215.274C1151.3 212.079 1151.59 209.901 1151.97 208.739C1152.46 207.48 1153.57 206.657 1155.31 206.27C1163.54 204.624 1172.16 202.93 1181.16 201.187C1190.17 199.348 1198.88 197.024 1207.3 194.217C1207.59 194.12 1208.03 194.071 1208.61 194.071C1208.9 194.652 1209.29 195.039 1209.77 195.233L1210.21 195.524L1207.01 235.315C1206.72 238.51 1206.34 240.737 1205.85 241.995C1205.46 243.254 1204.45 244.029 1202.8 244.319C1194.57 245.868 1186.25 247.562 1177.82 249.402C1169.4 251.241 1160.49 253.081 1151.1 254.92C1150.81 255.017 1150.38 255.066 1149.79 255.066C1148.73 255.066 1148.2 254.582 1148.2 253.613Z" fill="#F6CC4D"/>
<path d="M1332.34 348.445C1332.63 345.347 1332.92 342.104 1333.21 338.715C1333.6 335.327 1334.04 331.793 1334.52 328.114C1332.29 322.305 1329.15 317.609 1325.08 314.027C1321.02 310.348 1315.93 308.508 1309.83 308.508C1303.83 308.508 1298.75 310.251 1294.58 313.737C1290.42 317.125 1287.08 321.337 1284.56 326.371C1282.05 331.406 1280.21 336.73 1279.05 342.346C1277.98 347.864 1277.45 352.754 1277.45 357.014C1277.45 362.242 1277.74 367.421 1278.32 372.553C1279 377.684 1280.01 382.331 1281.37 386.494C1282.82 390.657 1284.71 394.046 1287.03 396.66C1289.36 399.177 1292.26 400.436 1295.75 400.436C1304.27 400.145 1311.19 398.209 1316.51 394.627C1321.84 391.045 1326.1 386.688 1329.29 381.557L1332.34 348.445ZM1383.03 416.411C1383.03 416.604 1382.98 416.846 1382.88 417.137C1382.88 417.33 1382.88 417.524 1382.88 417.718C1382.88 418.202 1382.88 418.589 1382.88 418.879C1382.98 419.17 1383.03 419.46 1383.03 419.751C1383.03 420.622 1382.69 421.348 1382.01 421.929C1381.43 422.413 1379.83 422.994 1377.22 423.672L1338.3 436.306C1337.23 436.694 1335.83 437.178 1334.09 437.759C1332.34 438.339 1330.65 438.63 1329 438.63C1327.65 438.63 1326.44 438.291 1325.37 437.613C1324.4 436.936 1323.92 435.677 1323.92 433.838C1323.92 432.095 1323.92 430.691 1323.92 429.626C1324.02 428.561 1324.06 427.593 1324.06 426.721C1324.16 425.753 1324.26 424.737 1324.36 423.672C1324.55 422.607 1324.74 421.203 1324.94 419.46C1317.67 425.269 1310.17 429.916 1302.43 433.402C1294.78 436.887 1286.69 438.63 1278.17 438.63C1268.88 438.63 1260.6 436.403 1253.34 431.95C1246.18 427.593 1240.12 421.735 1235.19 414.377C1230.25 406.922 1226.47 398.451 1223.86 388.963C1221.34 379.378 1220.08 369.406 1220.08 359.047C1220.08 345.589 1222.26 333.342 1226.62 322.305C1231.07 311.171 1237.08 301.683 1244.63 293.841C1252.18 285.902 1260.99 279.802 1271.06 275.542C1281.13 271.186 1291.82 269.007 1303.15 269.007C1309.25 269.007 1315.06 270.605 1320.58 273.8C1326.19 276.995 1331.47 281.109 1336.41 286.144C1336.7 281.4 1337.04 276.269 1337.43 270.75C1337.81 265.135 1338.2 259.471 1338.59 253.759C1338.97 247.95 1339.36 242.238 1339.75 236.622C1340.14 231.007 1340.48 225.876 1340.77 221.228C1340.77 220.357 1341.06 219.679 1341.64 219.195C1342.31 218.614 1343.96 217.985 1346.57 217.307L1387.38 207.577C1388.45 207.384 1389.85 206.948 1391.59 206.27C1393.34 205.592 1395.03 205.254 1396.68 205.254C1397.94 205.254 1399.1 205.544 1400.16 206.125C1401.32 206.706 1401.91 207.819 1401.91 209.465C1401.91 209.659 1401.86 210.094 1401.76 210.772C1401.76 211.353 1401.76 211.74 1401.76 211.934L1383.03 416.411Z" fill="#F6CC4D"/>
<path d="M1502.11 269.007C1511.31 269.007 1519.63 270.75 1527.09 274.235C1534.64 277.624 1541.08 282.078 1546.4 287.596C1551.83 293.018 1555.99 299.117 1558.89 305.894C1561.8 312.672 1563.25 319.449 1563.25 326.226C1563.25 332.229 1561.41 338.28 1557.73 344.379C1554.05 350.382 1548.87 355.803 1542.19 360.644C1535.61 365.485 1527.67 369.406 1518.38 372.407C1509.08 375.409 1498.87 376.909 1487.73 376.909C1481.92 376.909 1475.82 376.328 1469.43 375.167C1469.82 379.33 1471.03 382.912 1473.07 385.913C1475.1 388.915 1477.66 391.383 1480.76 393.32C1483.86 395.256 1487.35 396.708 1491.22 397.677C1495.19 398.548 1499.25 398.984 1503.42 398.984C1508.06 398.984 1512.52 398.596 1516.78 397.822C1521.13 396.95 1525.3 395.837 1529.27 394.482C1533.24 393.126 1537.06 391.625 1540.74 389.98C1544.42 388.334 1547.9 386.688 1551.2 385.042C1552.07 384.848 1552.79 384.703 1553.37 384.606C1554.05 384.413 1554.68 384.316 1555.26 384.316C1555.26 384.316 1555.21 385.09 1555.12 386.639C1555.12 388.188 1555.12 390.367 1555.12 393.175C1555.12 395.982 1555.07 399.371 1554.97 403.34C1554.97 407.31 1554.92 411.715 1554.83 416.556C1555.12 417.04 1555.31 417.524 1555.41 418.008C1555.5 418.492 1555.55 418.879 1555.55 419.17C1555.55 420.332 1554.49 421.59 1552.36 422.946C1550.23 424.301 1547.42 425.705 1543.94 427.157C1540.55 428.609 1536.63 430.013 1532.17 431.369C1527.82 432.724 1523.36 433.934 1518.81 434.999C1514.26 436.161 1509.86 437.032 1505.6 437.613C1501.34 438.291 1497.61 438.63 1494.41 438.63C1483.96 438.63 1473.79 436.79 1463.92 433.111C1454.14 429.529 1445.42 424.349 1437.78 417.572C1430.22 410.795 1424.17 402.566 1419.62 392.884C1415.07 383.202 1412.8 372.311 1412.8 360.208C1412.8 347.526 1414.98 335.666 1419.33 324.628C1423.69 313.495 1429.79 303.813 1437.63 295.583C1445.57 287.354 1455.01 280.867 1465.95 276.123C1476.89 271.379 1488.94 269.007 1502.11 269.007ZM1500.37 307.637C1496.4 307.637 1492.72 308.508 1489.33 310.251C1486.04 311.897 1482.99 314.317 1480.18 317.512C1477.47 320.611 1475.1 324.386 1473.07 328.84C1471.03 333.197 1469.39 338.038 1468.13 343.362C1478.1 341.62 1486.38 339.78 1492.96 337.844C1499.54 335.908 1504.82 333.971 1508.79 332.035C1512.76 330.002 1515.57 328.017 1517.21 326.081C1518.86 324.048 1519.68 322.111 1519.68 320.272C1519.68 318.529 1519 316.883 1517.65 315.334C1516.39 313.785 1514.79 312.43 1512.86 311.268C1510.92 310.106 1508.79 309.235 1506.47 308.654C1504.24 307.976 1502.21 307.637 1500.37 307.637Z" fill="#F6CC4D"/>
<path d="M1700.2 312.865C1698.16 312.672 1695.89 312.478 1693.37 312.284C1690.85 311.994 1688.19 311.849 1685.38 311.849C1681.12 311.849 1676.77 312.236 1672.31 313.01C1667.96 313.688 1663.89 315.092 1660.12 317.222C1656.34 319.352 1653.1 322.305 1650.39 326.081C1647.67 329.76 1645.93 334.552 1645.16 340.458C1644.48 347.622 1643.9 353.528 1643.41 358.175C1643.03 362.726 1642.74 366.502 1642.54 369.503C1642.35 372.407 1642.16 374.779 1641.96 376.619C1641.87 378.362 1641.77 380.007 1641.67 381.557C1641.67 381.944 1641.57 383.009 1641.38 384.752C1641.28 386.494 1641.09 388.527 1640.8 390.851C1640.51 393.175 1640.22 395.692 1639.93 398.403C1639.74 401.114 1639.49 403.631 1639.2 405.954C1638.91 408.278 1638.67 410.311 1638.48 412.054C1638.38 413.796 1638.33 414.861 1638.33 415.249C1638.33 416.023 1638.33 416.701 1638.33 417.282C1638.43 417.766 1638.48 418.25 1638.48 418.734C1638.48 419.509 1638.09 420.186 1637.31 420.767C1636.64 421.251 1635.04 421.832 1632.52 422.51L1594.04 436.306C1592.97 436.694 1591.57 437.178 1589.83 437.759C1588.08 438.339 1586.39 438.63 1584.74 438.63C1583.39 438.63 1582.18 438.291 1581.11 437.613C1580.14 436.936 1579.66 435.774 1579.66 434.128L1592.15 290.21C1592.44 287.015 1592.78 284.837 1593.17 283.675C1593.65 282.416 1594.76 281.593 1596.51 281.206C1605.32 279.463 1614.42 277.721 1623.81 275.978C1633.2 274.139 1642.3 271.815 1651.11 269.007C1651.89 269.007 1652.32 269.153 1652.42 269.443C1652.61 269.637 1652.71 269.975 1652.71 270.46C1652.71 270.653 1652.66 270.944 1652.56 271.331C1652.56 271.718 1652.42 272.59 1652.13 273.945C1651.93 275.3 1651.6 277.382 1651.11 280.19C1650.72 282.9 1650.14 286.725 1649.37 291.662C1653.82 288.177 1658.71 284.982 1664.04 282.078C1669.46 279.173 1674.88 276.704 1680.3 274.671C1685.72 272.541 1690.95 270.895 1695.99 269.733C1701.02 268.475 1705.43 267.846 1709.2 267.846L1700.2 312.865Z" fill="#F6CC4D"/>
<path d="M434.427 525.657V517.557L454.735 485.564H461.718V496.775H457.585L444.783 517.035V517.415H473.641V525.657H434.427ZM457.775 534.207V523.187L457.965 519.6V485.564H467.608V534.207H457.775Z" fill="#F6CC4D"/>
<path d="M510.349 527.462L481.966 499.126L488.189 492.832L516.596 521.239L510.349 527.462ZM488.189 527.462L481.966 521.239L510.349 492.832L516.596 499.126L488.189 527.462Z" fill="#F6CC4D"/>
<path d="M525.218 525.657V517.557L545.525 485.564H552.508V496.775H548.375L535.573 517.035V517.415H564.431V525.657H525.218ZM548.565 534.207V523.187L548.755 519.6V485.564H558.398V534.207H548.565Z" fill="#F6CC4D"/>
<path d="M629.968 502.594H619.565C619.375 501.248 618.987 500.053 618.401 499.007C617.815 497.947 617.063 497.044 616.145 496.3C615.226 495.556 614.165 494.986 612.962 494.59C611.774 494.194 610.484 493.996 609.09 493.996C606.573 493.996 604.38 494.621 602.511 495.872C600.643 497.107 599.194 498.912 598.165 501.288C597.135 503.647 596.621 506.513 596.621 509.886C596.621 513.353 597.135 516.267 598.165 518.626C599.21 520.986 600.666 522.767 602.535 523.97C604.403 525.174 606.565 525.776 609.019 525.776C610.397 525.776 611.671 525.593 612.843 525.229C614.031 524.865 615.084 524.335 616.002 523.638C616.92 522.925 617.68 522.062 618.282 521.049C618.9 520.036 619.327 518.88 619.565 517.581L629.968 517.629C629.699 519.861 629.026 522.015 627.949 524.089C626.888 526.148 625.455 527.992 623.65 529.623C621.861 531.238 619.723 532.521 617.237 533.471C614.767 534.405 611.972 534.872 608.853 534.872C604.514 534.872 600.635 533.891 597.215 531.927C593.81 529.964 591.118 527.121 589.139 523.4C587.176 519.679 586.194 515.174 586.194 509.886C586.194 504.581 587.191 500.068 589.186 496.347C591.182 492.626 593.889 489.792 597.31 487.844C600.73 485.881 604.578 484.899 608.853 484.899C611.671 484.899 614.284 485.295 616.691 486.087C619.113 486.878 621.259 488.034 623.128 489.554C624.996 491.059 626.516 492.903 627.688 495.088C628.875 497.274 629.635 499.775 629.968 502.594Z" fill="#F6CC4D"/>
<path d="M647.556 534.896C645.228 534.896 643.154 534.492 641.333 533.685C639.512 532.861 638.071 531.65 637.01 530.051C635.965 528.436 635.443 526.425 635.443 524.018C635.443 521.991 635.815 520.289 636.559 518.911C637.303 517.534 638.317 516.425 639.599 515.586C640.882 514.747 642.339 514.113 643.97 513.686C645.616 513.258 647.342 512.958 649.147 512.783C651.269 512.562 652.979 512.356 654.278 512.166C655.576 511.96 656.518 511.659 657.104 511.263C657.69 510.867 657.983 510.282 657.983 509.506V509.363C657.983 507.859 657.508 506.695 656.558 505.872C655.624 505.048 654.294 504.637 652.568 504.637C650.747 504.637 649.298 505.04 648.221 505.848C647.144 506.64 646.432 507.637 646.083 508.841L636.725 508.081C637.2 505.864 638.135 503.948 639.528 502.333C640.921 500.702 642.719 499.451 644.92 498.58C647.136 497.693 649.702 497.25 652.615 497.25C654.642 497.25 656.582 497.487 658.434 497.962C660.303 498.437 661.957 499.174 663.398 500.171C664.855 501.169 666.003 502.451 666.842 504.019C667.682 505.571 668.101 507.431 668.101 509.601V534.207H658.506V529.148H658.22C657.635 530.288 656.851 531.294 655.869 532.165C654.887 533.02 653.708 533.693 652.33 534.184C650.953 534.659 649.361 534.896 647.556 534.896ZM650.454 527.913C651.942 527.913 653.256 527.62 654.396 527.034C655.537 526.433 656.431 525.625 657.08 524.612C657.73 523.598 658.054 522.45 658.054 521.168V517.296C657.738 517.502 657.302 517.692 656.748 517.866C656.21 518.025 655.6 518.175 654.919 518.318C654.238 518.444 653.557 518.563 652.876 518.674C652.196 518.769 651.578 518.856 651.024 518.935C649.836 519.109 648.799 519.386 647.912 519.766C647.026 520.146 646.337 520.661 645.846 521.31C645.355 521.944 645.11 522.735 645.11 523.685C645.11 525.063 645.608 526.116 646.606 526.844C647.619 527.557 648.902 527.913 650.454 527.913Z" fill="#F6CC4D"/>
<path d="M675.951 534.207V497.725H685.76V504.09H686.14C686.806 501.826 687.922 500.116 689.489 498.96C691.057 497.788 692.862 497.202 694.905 497.202C695.412 497.202 695.958 497.234 696.544 497.297C697.13 497.361 697.644 497.448 698.088 497.559V506.537C697.612 506.394 696.955 506.268 696.116 506.157C695.277 506.046 694.509 505.99 693.812 505.99C692.324 505.99 690.994 506.315 689.822 506.964C688.666 507.598 687.748 508.484 687.067 509.624C686.402 510.765 686.069 512.079 686.069 513.567V534.207H675.951Z" fill="#F6CC4D"/>
<path d="M718.989 534.207V485.564H738.18C741.854 485.564 744.989 486.221 747.586 487.535C750.199 488.834 752.186 490.679 753.547 493.07C754.925 495.445 755.614 498.24 755.614 501.454C755.614 504.684 754.917 507.463 753.524 509.791C752.13 512.103 750.111 513.876 747.467 515.111C744.839 516.346 741.656 516.964 737.919 516.964H725.069V508.698H736.256C738.22 508.698 739.851 508.429 741.149 507.891C742.448 507.352 743.413 506.545 744.047 505.468C744.696 504.391 745.021 503.053 745.021 501.454C745.021 499.839 744.696 498.477 744.047 497.369C743.413 496.26 742.44 495.421 741.125 494.851C739.827 494.265 738.188 493.972 736.209 493.972H729.273V534.207H718.989ZM745.258 512.071L757.348 534.207H745.994L734.166 512.071H745.258Z" fill="#F6CC4D"/>
<path d="M778.73 534.92C774.977 534.92 771.747 534.16 769.039 532.64C766.348 531.104 764.273 528.934 762.817 526.132C761.36 523.313 760.631 519.98 760.631 516.132C760.631 512.38 761.36 509.086 762.817 506.252C764.273 503.417 766.324 501.208 768.968 499.625C771.628 498.042 774.748 497.25 778.326 497.25C780.733 497.25 782.974 497.638 785.048 498.414C787.138 499.174 788.959 500.322 790.511 501.858C792.079 503.394 793.298 505.325 794.169 507.653C795.04 509.965 795.475 512.673 795.475 515.776V518.555H764.669V512.285H785.951C785.951 510.828 785.634 509.537 785 508.413C784.367 507.289 783.488 506.41 782.364 505.777C781.256 505.127 779.965 504.803 778.493 504.803C776.957 504.803 775.595 505.159 774.407 505.872C773.236 506.568 772.317 507.511 771.652 508.698C770.987 509.87 770.647 511.176 770.631 512.617V518.579C770.631 520.384 770.963 521.944 771.628 523.258C772.309 524.572 773.267 525.586 774.502 526.298C775.737 527.011 777.202 527.367 778.896 527.367C780.021 527.367 781.05 527.209 781.984 526.892C782.918 526.575 783.718 526.1 784.383 525.467C785.048 524.833 785.555 524.057 785.903 523.139L795.261 523.757C794.786 526.005 793.812 527.969 792.34 529.647C790.883 531.31 788.999 532.608 786.687 533.542C784.391 534.461 781.739 534.92 778.73 534.92Z" fill="#F6CC4D"/>
<path d="M812.196 513.116V534.207H802.078V497.725H811.721V504.162H812.149C812.956 502.04 814.31 500.361 816.21 499.126C818.11 497.875 820.414 497.25 823.122 497.25C825.655 497.25 827.864 497.804 829.749 498.912C831.633 500.021 833.097 501.604 834.143 503.663C835.188 505.705 835.71 508.144 835.71 510.978V534.207H825.592V512.783C825.608 510.551 825.038 508.809 823.882 507.558C822.726 506.291 821.135 505.658 819.108 505.658C817.746 505.658 816.543 505.951 815.498 506.537C814.468 507.123 813.661 507.978 813.075 509.102C812.505 510.21 812.212 511.548 812.196 513.116Z" fill="#F6CC4D"/>
<path d="M863.09 497.725V505.325H841.12V497.725H863.09ZM846.107 488.984H856.226V522.997C856.226 523.931 856.368 524.659 856.653 525.182C856.938 525.688 857.334 526.045 857.841 526.251C858.363 526.456 858.965 526.559 859.646 526.559C860.121 526.559 860.596 526.52 861.071 526.441C861.546 526.346 861.91 526.274 862.163 526.227L863.755 533.756C863.248 533.914 862.536 534.097 861.617 534.302C860.699 534.524 859.582 534.659 858.268 534.706C855.83 534.801 853.692 534.477 851.855 533.732C850.034 532.988 848.617 531.832 847.604 530.265C846.59 528.697 846.092 526.718 846.107 524.327V488.984Z" fill="#F6CC4D"/>
<path d="M880.084 534.896C877.756 534.896 875.682 534.492 873.861 533.685C872.04 532.861 870.599 531.65 869.538 530.051C868.493 528.436 867.971 526.425 867.971 524.018C867.971 521.991 868.343 520.289 869.087 518.911C869.831 517.534 870.845 516.425 872.127 515.586C873.41 514.747 874.867 514.113 876.498 513.686C878.144 513.258 879.87 512.958 881.675 512.783C883.797 512.562 885.507 512.356 886.806 512.166C888.104 511.96 889.046 511.659 889.632 511.263C890.218 510.867 890.511 510.282 890.511 509.506V509.363C890.511 507.859 890.036 506.695 889.086 505.872C888.152 505.048 886.822 504.637 885.096 504.637C883.275 504.637 881.826 505.04 880.749 505.848C879.672 506.64 878.96 507.637 878.611 508.841L869.253 508.081C869.728 505.864 870.663 503.948 872.056 502.333C873.449 500.702 875.247 499.451 877.448 498.58C879.664 497.693 882.23 497.25 885.143 497.25C887.17 497.25 889.11 497.487 890.962 497.962C892.831 498.437 894.485 499.174 895.926 500.171C897.383 501.169 898.531 502.451 899.37 504.019C900.21 505.571 900.629 507.431 900.629 509.601V534.207H891.034V529.148H890.748C890.163 530.288 889.379 531.294 888.397 532.165C887.415 533.02 886.236 533.693 884.858 534.184C883.481 534.659 881.889 534.896 880.084 534.896ZM882.982 527.913C884.47 527.913 885.784 527.62 886.925 527.034C888.065 526.433 888.959 525.625 889.608 524.612C890.258 523.598 890.582 522.45 890.582 521.168V517.296C890.266 517.502 889.83 517.692 889.276 517.866C888.738 518.025 888.128 518.175 887.447 518.318C886.766 518.444 886.085 518.563 885.404 518.674C884.724 518.769 884.106 518.856 883.552 518.935C882.364 519.109 881.327 519.386 880.44 519.766C879.554 520.146 878.865 520.661 878.374 521.31C877.883 521.944 877.638 522.735 877.638 523.685C877.638 525.063 878.136 526.116 879.134 526.844C880.147 527.557 881.43 527.913 882.982 527.913Z" fill="#F6CC4D"/>
<path d="M918.597 485.564V534.207H908.479V485.564H918.597Z" fill="#F6CC4D"/>
<path d="M957.099 534.92C953.742 534.92 950.844 534.318 948.406 533.115C945.967 531.911 944.091 530.28 942.776 528.222C941.478 526.148 940.829 523.836 940.829 521.286C940.829 519.386 941.209 517.7 941.969 516.227C942.729 514.755 943.79 513.401 945.152 512.166C946.513 510.915 948.097 509.672 949.902 508.437L959.331 502.238C960.55 501.462 961.445 500.646 962.015 499.791C962.585 498.92 962.87 497.978 962.87 496.965C962.87 495.999 962.482 495.104 961.706 494.281C960.93 493.458 959.83 493.054 958.405 493.07C957.455 493.07 956.631 493.283 955.935 493.711C955.238 494.123 954.692 494.669 954.296 495.35C953.916 496.015 953.726 496.759 953.726 497.582C953.726 498.596 954.011 499.625 954.581 500.67C955.151 501.715 955.911 502.824 956.861 503.995C957.811 505.151 958.848 506.402 959.973 507.748L983.035 534.207H972.49L953.251 512.783C951.984 511.342 950.717 509.838 949.451 508.271C948.2 506.687 947.155 505.009 946.315 503.235C945.476 501.446 945.057 499.506 945.057 497.416C945.057 495.057 945.603 492.935 946.695 491.051C947.804 489.166 949.356 487.678 951.351 486.585C953.346 485.477 955.673 484.923 958.334 484.923C960.931 484.923 963.171 485.453 965.055 486.514C966.955 487.559 968.412 488.953 969.426 490.694C970.455 492.42 970.97 494.321 970.97 496.395C970.97 498.691 970.399 500.773 969.259 502.641C968.135 504.494 966.552 506.157 964.509 507.629L954.581 514.779C953.235 515.76 952.237 516.766 951.588 517.795C950.955 518.808 950.638 519.782 950.638 520.716C950.638 521.872 950.923 522.909 951.493 523.828C952.063 524.746 952.871 525.475 953.916 526.013C954.961 526.536 956.188 526.797 957.597 526.797C959.307 526.797 960.994 526.409 962.656 525.633C964.335 524.841 965.855 523.725 967.217 522.284C968.594 520.827 969.695 519.101 970.518 517.106C971.342 515.111 971.753 512.902 971.753 510.479H980.138C980.138 513.456 979.813 516.14 979.164 518.531C978.515 520.906 977.612 522.981 976.456 524.754C975.3 526.512 973.978 527.953 972.49 529.077C972.015 529.378 971.555 529.663 971.112 529.932C970.669 530.201 970.209 530.486 969.734 530.787C967.929 532.244 965.91 533.297 963.678 533.946C961.461 534.595 959.268 534.92 957.099 534.92Z" fill="#F6CC4D"/>
<path d="M1001.07 494.043V485.564H1041.02V494.043H1026.13V534.207H1015.96V494.043H1001.07Z" fill="#F6CC4D"/>
<path d="M1043.62 534.207V497.725H1053.43V504.09H1053.81C1054.47 501.826 1055.59 500.116 1057.16 498.96C1058.73 497.788 1060.53 497.202 1062.57 497.202C1063.08 497.202 1063.63 497.234 1064.21 497.297C1064.8 497.361 1065.31 497.448 1065.76 497.559V506.537C1065.28 506.394 1064.62 506.268 1063.78 506.157C1062.95 506.046 1062.18 505.99 1061.48 505.99C1059.99 505.99 1058.66 506.315 1057.49 506.964C1056.33 507.598 1055.42 508.484 1054.74 509.624C1054.07 510.765 1053.74 512.079 1053.74 513.567V534.207H1043.62Z" fill="#F6CC4D"/>
<path d="M1080.35 534.896C1078.02 534.896 1075.94 534.492 1074.12 533.685C1072.3 532.861 1070.86 531.65 1069.8 530.051C1068.75 528.436 1068.23 526.425 1068.23 524.018C1068.23 521.991 1068.6 520.289 1069.35 518.911C1070.09 517.534 1071.11 516.425 1072.39 515.586C1073.67 514.747 1075.13 514.113 1076.76 513.686C1078.41 513.258 1080.13 512.958 1081.94 512.783C1084.06 512.562 1085.77 512.356 1087.07 512.166C1088.37 511.96 1089.31 511.659 1089.89 511.263C1090.48 510.867 1090.77 510.282 1090.77 509.506V509.363C1090.77 507.859 1090.3 506.695 1089.35 505.872C1088.41 505.048 1087.08 504.637 1085.36 504.637C1083.54 504.637 1082.09 505.04 1081.01 505.848C1079.93 506.64 1079.22 507.637 1078.87 508.841L1069.51 508.081C1069.99 505.864 1070.92 503.948 1072.32 502.333C1073.71 500.702 1075.51 499.451 1077.71 498.58C1079.93 497.693 1082.49 497.25 1085.4 497.25C1087.43 497.25 1089.37 497.487 1091.22 497.962C1093.09 498.437 1094.75 499.174 1096.19 500.171C1097.64 501.169 1098.79 502.451 1099.63 504.019C1100.47 505.571 1100.89 507.431 1100.89 509.601V534.207H1091.3V529.148H1091.01C1090.42 530.288 1089.64 531.294 1088.66 532.165C1087.68 533.02 1086.5 533.693 1085.12 534.184C1083.74 534.659 1082.15 534.896 1080.35 534.896ZM1083.24 527.913C1084.73 527.913 1086.05 527.62 1087.19 527.034C1088.33 526.433 1089.22 525.625 1089.87 524.612C1090.52 523.598 1090.84 522.45 1090.84 521.168V517.296C1090.53 517.502 1090.09 517.692 1089.54 517.866C1089 518.025 1088.39 518.175 1087.71 518.318C1087.03 518.444 1086.35 518.563 1085.67 518.674C1084.99 518.769 1084.37 518.856 1083.81 518.935C1082.63 519.109 1081.59 519.386 1080.7 519.766C1079.82 520.146 1079.13 520.661 1078.64 521.31C1078.14 521.944 1077.9 522.735 1077.9 523.685C1077.9 525.063 1078.4 526.116 1079.4 526.844C1080.41 527.557 1081.69 527.913 1083.24 527.913Z" fill="#F6CC4D"/>
<path d="M1141.45 497.725L1128.69 534.207H1117.29L1104.54 497.725H1115.22L1122.8 523.828H1123.18L1130.73 497.725H1141.45Z" fill="#F6CC4D"/>
<path d="M1162.07 534.92C1158.32 534.92 1155.09 534.16 1152.38 532.64C1149.69 531.104 1147.62 528.934 1146.16 526.132C1144.7 523.313 1143.98 519.98 1143.98 516.132C1143.98 512.38 1144.7 509.086 1146.16 506.252C1147.62 503.417 1149.67 501.208 1152.31 499.625C1154.97 498.042 1158.09 497.25 1161.67 497.25C1164.08 497.25 1166.32 497.638 1168.39 498.414C1170.48 499.174 1172.3 500.322 1173.86 501.858C1175.42 503.394 1176.64 505.325 1177.51 507.653C1178.38 509.965 1178.82 512.673 1178.82 515.776V518.555H1148.01V512.285H1169.3C1169.3 510.828 1168.98 509.537 1168.35 508.413C1167.71 507.289 1166.83 506.41 1165.71 505.777C1164.6 505.127 1163.31 504.803 1161.84 504.803C1160.3 504.803 1158.94 505.159 1157.75 505.872C1156.58 506.568 1155.66 507.511 1155 508.698C1154.33 509.87 1153.99 511.176 1153.98 512.617V518.579C1153.98 520.384 1154.31 521.944 1154.97 523.258C1155.65 524.572 1156.61 525.586 1157.85 526.298C1159.08 527.011 1160.55 527.367 1162.24 527.367C1163.37 527.367 1164.39 527.209 1165.33 526.892C1166.26 526.575 1167.06 526.1 1167.73 525.467C1168.39 524.833 1168.9 524.057 1169.25 523.139L1178.61 523.757C1178.13 526.005 1177.16 527.969 1175.68 529.647C1174.23 531.31 1172.34 532.608 1170.03 533.542C1167.74 534.461 1165.08 534.92 1162.07 534.92Z" fill="#F6CC4D"/>
<path d="M1195.54 485.564V534.207H1185.42V485.564H1195.54Z" fill="#F6CC4D"/>
<path d="M1219.32 534.207V485.564H1238.51C1242.2 485.564 1245.34 486.269 1247.94 487.678C1250.53 489.071 1252.51 491.011 1253.87 493.497C1255.25 495.967 1255.94 498.817 1255.94 502.048C1255.94 505.278 1255.24 508.128 1253.85 510.598C1252.46 513.068 1250.44 514.992 1247.79 516.37C1245.17 517.747 1241.98 518.436 1238.25 518.436H1226.01V510.194H1236.58C1238.56 510.194 1240.19 509.854 1241.48 509.173C1242.77 508.476 1243.74 507.518 1244.37 506.299C1245.02 505.064 1245.35 503.647 1245.35 502.048C1245.35 500.433 1245.02 499.023 1244.37 497.82C1243.74 496.601 1242.77 495.659 1241.48 494.993C1240.18 494.313 1238.53 493.972 1236.54 493.972H1229.6V534.207H1219.32Z" fill="#F6CC4D"/>
<path d="M1272.55 485.564V534.207H1262.43V485.564H1272.55Z" fill="#F6CC4D"/>
<path d="M1291.06 534.896C1288.73 534.896 1286.66 534.492 1284.83 533.685C1283.01 532.861 1281.57 531.65 1280.51 530.051C1279.47 528.436 1278.94 526.425 1278.94 524.018C1278.94 521.991 1279.32 520.289 1280.06 518.911C1280.8 517.534 1281.82 516.425 1283.1 515.586C1284.38 514.747 1285.84 514.113 1287.47 513.686C1289.12 513.258 1290.84 512.958 1292.65 512.783C1294.77 512.562 1296.48 512.356 1297.78 512.166C1299.08 511.96 1300.02 511.659 1300.61 511.263C1301.19 510.867 1301.48 510.282 1301.48 509.506V509.363C1301.48 507.859 1301.01 506.695 1300.06 505.872C1299.13 505.048 1297.8 504.637 1296.07 504.637C1294.25 504.637 1292.8 505.04 1291.72 505.848C1290.65 506.64 1289.93 507.637 1289.59 508.841L1280.23 508.081C1280.7 505.864 1281.64 503.948 1283.03 502.333C1284.42 500.702 1286.22 499.451 1288.42 498.58C1290.64 497.693 1293.2 497.25 1296.12 497.25C1298.14 497.25 1300.08 497.487 1301.94 497.962C1303.8 498.437 1305.46 499.174 1306.9 500.171C1308.36 501.169 1309.5 502.451 1310.34 504.019C1311.18 505.571 1311.6 507.431 1311.6 509.601V534.207H1302.01V529.148H1301.72C1301.14 530.288 1300.35 531.294 1299.37 532.165C1298.39 533.02 1297.21 533.693 1295.83 534.184C1294.45 534.659 1292.86 534.896 1291.06 534.896ZM1293.96 527.913C1295.44 527.913 1296.76 527.62 1297.9 527.034C1299.04 526.433 1299.93 525.625 1300.58 524.612C1301.23 523.598 1301.56 522.45 1301.56 521.168V517.296C1301.24 517.502 1300.8 517.692 1300.25 517.866C1299.71 518.025 1299.1 518.175 1298.42 518.318C1297.74 518.444 1297.06 518.563 1296.38 518.674C1295.7 518.769 1295.08 518.856 1294.53 518.935C1293.34 519.109 1292.3 519.386 1291.41 519.766C1290.53 520.146 1289.84 520.661 1289.35 521.31C1288.86 521.944 1288.61 522.735 1288.61 523.685C1288.61 525.063 1289.11 526.116 1290.11 526.844C1291.12 527.557 1292.4 527.913 1293.96 527.913Z" fill="#F6CC4D"/>
<path d="M1329.57 513.116V534.207H1319.45V497.725H1329.1V504.162H1329.52C1330.33 502.04 1331.68 500.361 1333.59 499.126C1335.49 497.875 1337.79 497.25 1340.5 497.25C1343.03 497.25 1345.24 497.804 1347.12 498.912C1349.01 500.021 1350.47 501.604 1351.52 503.663C1352.56 505.705 1353.09 508.144 1353.09 510.978V534.207H1342.97V512.783C1342.98 510.551 1342.41 508.809 1341.26 507.558C1340.1 506.291 1338.51 505.658 1336.48 505.658C1335.12 505.658 1333.92 505.951 1332.87 506.537C1331.84 507.123 1331.04 507.978 1330.45 509.102C1329.88 510.21 1329.59 511.548 1329.57 513.116Z" fill="#F6CC4D"/>
<path d="M1371.18 513.116V534.207H1361.06V497.725H1370.7V504.162H1371.13C1371.94 502.04 1373.29 500.361 1375.19 499.126C1377.09 497.875 1379.4 497.25 1382.1 497.25C1384.64 497.25 1386.85 497.804 1388.73 498.912C1390.61 500.021 1392.08 501.604 1393.12 503.663C1394.17 505.705 1394.69 508.144 1394.69 510.978V534.207H1384.57V512.783C1384.59 510.551 1384.02 508.809 1382.86 507.558C1381.71 506.291 1380.12 505.658 1378.09 505.658C1376.73 505.658 1375.52 505.951 1374.48 506.537C1373.45 507.123 1372.64 507.978 1372.06 509.102C1371.49 510.21 1371.19 511.548 1371.18 513.116Z" fill="#F6CC4D"/>
<path d="M1419.29 534.92C1415.54 534.92 1412.31 534.16 1409.6 532.64C1406.91 531.104 1404.84 528.934 1403.38 526.132C1401.92 523.313 1401.19 519.98 1401.19 516.132C1401.19 512.38 1401.92 509.086 1403.38 506.252C1404.84 503.417 1406.89 501.208 1409.53 499.625C1412.19 498.042 1415.31 497.25 1418.89 497.25C1421.3 497.25 1423.54 497.638 1425.61 498.414C1427.7 499.174 1429.52 500.322 1431.07 501.858C1432.64 503.394 1433.86 505.325 1434.73 507.653C1435.6 509.965 1436.04 512.673 1436.04 515.776V518.555H1405.23V512.285H1426.51C1426.51 510.828 1426.2 509.537 1425.56 508.413C1424.93 507.289 1424.05 506.41 1422.93 505.777C1421.82 505.127 1420.53 504.803 1419.06 504.803C1417.52 504.803 1416.16 505.159 1414.97 505.872C1413.8 506.568 1412.88 507.511 1412.21 508.698C1411.55 509.87 1411.21 511.176 1411.19 512.617V518.579C1411.19 520.384 1411.53 521.944 1412.19 523.258C1412.87 524.572 1413.83 525.586 1415.06 526.298C1416.3 527.011 1417.76 527.367 1419.46 527.367C1420.58 527.367 1421.61 527.209 1422.55 526.892C1423.48 526.575 1424.28 526.1 1424.95 525.467C1425.61 524.833 1426.12 524.057 1426.47 523.139L1435.82 523.757C1435.35 526.005 1434.37 527.969 1432.9 529.647C1431.45 531.31 1429.56 532.608 1427.25 533.542C1424.95 534.461 1422.3 534.92 1419.29 534.92Z" fill="#F6CC4D"/>
<path d="M1442.64 534.207V497.725H1452.45V504.09H1452.83C1453.49 501.826 1454.61 500.116 1456.18 498.96C1457.75 497.788 1459.55 497.202 1461.59 497.202C1462.1 497.202 1462.65 497.234 1463.23 497.297C1463.82 497.361 1464.33 497.448 1464.78 497.559V506.537C1464.3 506.394 1463.64 506.268 1462.81 506.157C1461.97 506.046 1461.2 505.99 1460.5 505.99C1459.01 505.99 1457.68 506.315 1456.51 506.964C1455.36 507.598 1454.44 508.484 1453.76 509.624C1453.09 510.765 1452.76 512.079 1452.76 513.567V534.207H1442.64Z" fill="#F6CC4D"/>
</svg>
