<?xml version="1.0" encoding="utf-8"?>
<!-- Generator: Adobe Illustrator 26.1.0, SVG Export Plug-In . SVG Version: 6.00 Build 0)  -->
<svg version="1.1" id="Capa_1" xmlns="http://www.w3.org/2000/svg" xmlns:xlink="http://www.w3.org/1999/xlink" x="0px" y="0px"
	 viewBox="0 0 1472.7 368.4" style="enable-background:new 0 0 1472.7 368.4;" xml:space="preserve">
<style type="text/css">
	.st0{fill:#F6CC4D;}
</style>
<g>
	<path class="st0" d="M215.1,52.6c0.5-1.7,1-3.1,1.6-4.1c0.6-1.1,1.8-1.9,3.8-2.4l41.6-9.6c0.2,0,0.4,0,0.7-0.1
		c0.3-0.1,0.5-0.1,0.7-0.1c1.3,0,2.2,0.6,2.7,1.7c0.6,1.1,0.8,2.2,0.8,3.2c0,0.2,0,0.6-0.1,1.1c0,0.6,0,0.9-0.1,1.1l-58.4,177.6
		c-1.5,3.9-2.8,7-3.8,9.5c-0.9,2.4-1.9,4.3-3,5.9c-0.9,1.5-2.1,2.8-3.4,3.8c-1.2,1-2.9,2.1-5.1,3.1c-2.1,1-4.7,2.2-7.9,3.5
		c-3.2,1.4-7.2,3.3-12.1,5.6c-1.7,0.8-3,1.3-4,1.3c-1.5,0-2.6-0.6-3.4-1.7c-0.8-1.1-1.4-2.4-1.8-3.8l-24.1-86l-30.2,62.3
		c-0.5,1.1-1.6,2.6-3.2,4.5c-1.7,1.9-3.6,3.8-5.8,5.8c-2.1,2-4.2,3.9-6.4,5.8c-2.1,1.8-3.8,3.2-5.1,4.4c-1.2,1-2.5,2.1-4,3.1
		c-1.3,1-2.7,2-4.1,2.8c-1.4,0.8-2.8,1.5-4.1,2c-1.2,0.6-2.4,0.8-3.5,0.8c-2.4,0-4-1.4-4.8-4.1L13.8,56.6c-0.2-0.8-0.4-1.5-0.7-2.3
		c-0.2-0.8-0.3-1.5-0.3-2.1c0-2.4,0.6-4.3,1.7-5.9c1.1-1.6,3.1-3,5.9-4.1c2.8-1.1,6.6-2,11.3-2.7c4.7-0.8,10.7-1.4,17.9-1.8
		c3.4-0.5,6.2-0.8,8.5-1c2.4-0.2,4.3-0.3,5.9-0.3c2.7,0,4.5,0.4,5.4,1.3c0.8,0.8,1.6,2.3,2.3,4.2l29.1,112l24.1-41.5l-9.7-42.5
		c-0.6-2.3-0.8-4-0.7-5.1c0-2.2,0.6-3.9,1.7-5.2c1.1-1.3,3-2.4,5.6-3.2c2.6-0.8,6.1-1.6,10.3-2.3c4.3-0.7,9.6-1.4,15.8-2.3
		c2.7-0.4,5.1-0.7,7.1-0.8c2-0.2,3.7-0.3,5.1-0.3c2.8,0,4.8,0.4,5.8,1.3c1,0.8,1.8,2.2,2.3,4.1l19.2,87L215.1,52.6z"/>
	<path class="st0" d="M271.7,184.4c1.2-12.9,2.4-25.6,3.7-38.3c1.2-12.6,2.3-25.6,3.2-38.8c0.2-3.1,0.5-5.2,0.8-6.4
		c0.5-1.2,1.6-2,3.2-2.4c8-1.6,16.4-3.2,25.1-4.9c8.8-1.8,17.2-4,25.4-6.8c0.3-0.1,0.7-0.1,1.3-0.1c1,0,1.6,0.4,1.6,1.1l-12.7,137.5
		c-0.3,3.1-0.6,5.3-1,6.5c-0.4,1.1-1.4,1.9-3.1,2.3c-8,2.4-16.1,5.2-24.3,8.2s-16.8,6.1-26,9.2c-0.3,0.1-0.7,0.1-1.3,0.1
		c-1,0-1.6-0.5-1.6-1.4c0-0.1,0.1-1.4,0.3-3.8c0.2-2.4,0.4-5.6,0.7-9.5c0.4-3.9,0.8-8.2,1.1-13c0.4-4.8,0.8-9.6,1.1-14.4
		c0.5-4.8,0.9-9.4,1.3-13.8C271.1,191.2,271.5,187.5,271.7,184.4z M282.3,71.7c0.3-4,0.5-7.2,0.6-9.3c0.2-2.2,0.3-3.8,0.4-4.8
		c0.1-1.1,0.1-1.8,0.1-2.1c0-0.3,0-0.5,0-0.6c0.1-0.2,0.1-0.5,0.1-0.8c0.1-0.5,0.2-1.4,0.3-2.7c0.1-1.4,0.2-3.4,0.4-6.1
		c0.2-2.6,0.5-6.3,0.8-10.9c0.2-3.1,0.5-5.2,0.8-6.4c0.5-1.2,1.6-2,3.2-2.4c8-1.6,16.4-3.2,25.1-4.9c8.8-1.8,17.2-4,25.4-6.8
		c0.3-0.1,0.7-0.1,1.3-0.1c0.3,0.6,0.7,0.9,1.1,1.1l0.4,0.3l-3.1,38.7c-0.3,3.1-0.7,5.3-1.1,6.5c-0.4,1.2-1.4,2-3,2.3
		c-8,1.5-16.1,3.2-24.3,4.9c-8.2,1.8-16.8,3.6-26,5.4c-0.3,0.1-0.7,0.1-1.3,0.1C282.9,73.1,282.3,72.6,282.3,71.7z"/>
	<path class="st0" d="M364.2,124.8c1.1-12.9,2-25.6,2.7-38.3c0.8-12.6,1.6-25.6,2.4-38.8c0.2-3.1,0.5-5.2,0.8-6.4
		c0.5-1.2,1.6-2,3.2-2.4c8.8-1.6,17.5-3.2,26.3-4.8c8.8-1.7,17.7-3.9,26.5-6.6c0.3-0.1,0.7-0.1,1.3-0.1c1,0,1.6,0.5,1.6,1.4
		l-18.4,201.6v2.4c0,0.8-0.3,1.6-1,2.1c-0.7,0.5-2.2,1-4.7,1.7l-37,13.6c-1,0.5-2.4,0.9-4.1,1.4c-1.7,0.6-3.3,0.8-4.9,0.8
		c-1.3,0-2.5-0.3-3.5-1c-0.9-0.7-1.4-1.8-1.4-3.4v-0.8c0.8-9.5,1.5-18.8,2.1-27.8c0.8-9.1,1.5-18.5,2.3-28.2
		c0.8-9.7,1.7-20,2.7-30.8C362,149.5,363.1,137.7,364.2,124.8z"/>
	<path class="st0" d="M549.1,163.9c0.3-3,0.6-6.2,0.8-9.5c0.4-3.3,0.8-6.7,1.3-10.3c-2.2-5.6-5.2-10.2-9.2-13.7
		c-4-3.6-8.9-5.4-14.8-5.4c-5.8,0-10.8,1.7-14.8,5.1c-4,3.3-7.3,7.4-9.7,12.3c-2.4,4.9-4.2,10.1-5.4,15.5c-1,5.4-1.6,10.1-1.6,14.3
		c0,5.1,0.3,10.1,0.8,15.1c0.7,5,1.6,9.5,3,13.6c1.4,4,3.2,7.3,5.5,9.9c2.3,2.4,5.1,3.7,8.5,3.7c8.3-0.3,15-2.2,20.2-5.6
		c5.2-3.5,9.3-7.7,12.4-12.7L549.1,163.9z M598.4,230c0,0.2,0,0.4-0.1,0.7c0,0.2,0,0.4,0,0.6c0,0.5,0,0.8,0,1.1
		c0.1,0.3,0.1,0.6,0.1,0.8c0,0.8-0.3,1.6-1,2.1c-0.6,0.5-2.1,1-4.7,1.7l-37.8,12.3c-1,0.4-2.4,0.8-4.1,1.4c-1.7,0.6-3.3,0.8-4.9,0.8
		c-1.3,0-2.5-0.3-3.5-1c-0.9-0.7-1.4-1.9-1.4-3.7c0-1.7,0-3.1,0-4.1c0.1-1,0.1-2,0.1-2.8c0.1-0.9,0.2-1.9,0.3-3
		c0.2-1,0.4-2.4,0.6-4.1c-7.1,5.6-14.4,10.2-21.9,13.6c-7.4,3.4-15.3,5.1-23.6,5.1c-9,0-17.1-2.2-24.1-6.5
		c-7-4.2-12.8-9.9-17.6-17.1c-4.8-7.2-8.5-15.5-11-24.7c-2.4-9.3-3.7-19-3.7-29.1c0-13.1,2.1-25,6.4-35.7
		c4.3-10.8,10.2-20,17.5-27.7c7.3-7.7,15.9-13.6,25.7-17.8c9.8-4.2,20.2-6.4,31.2-6.4c5.9,0,11.6,1.6,16.9,4.7
		c5.5,3.1,10.6,7.1,15.4,12c0.3-4.6,0.6-9.6,1-15c0.4-5.5,0.8-11,1.1-16.5c0.4-5.6,0.8-11.2,1.1-16.7c0.4-5.5,0.7-10.4,1-15
		c0-0.8,0.3-1.5,0.8-2c0.7-0.6,2.3-1.2,4.8-1.8l39.7-9.5c1-0.2,2.4-0.6,4.1-1.3c1.7-0.7,3.3-1,4.9-1c1.2,0,2.4,0.3,3.4,0.8
		c1.1,0.6,1.7,1.6,1.7,3.2c0,0.2,0,0.6-0.1,1.3c0,0.6,0,0.9,0,1.1L598.4,230z"/>
	<path class="st0" d="M768.1,232.9c-0.1,0.8-0.3,1.7-0.6,2.5c-0.2,0.8-0.8,1.4-1.8,1.8c-0.4,0.2-2.3,0.9-5.6,2.1
		c-3.3,1.1-7.2,2.5-11.6,4.1c-4.3,1.5-8.7,3-13,4.5c-4.2,1.6-7.5,2.8-9.7,3.7c-1.1,0.5-2.5,0.9-4.2,1.4c-1.6,0.6-3.2,0.8-4.8,0.8
		c-1.3,0-2.5-0.3-3.5-1c-0.9-0.7-1.4-1.9-1.4-3.7c0-4.1,0.1-7.9,0.3-11.3c0.3-3.5,0.6-7.1,1-10.9c0.4-3.8,0.8-7.9,1.1-12.4
		c0.5-4.6,0.9-10.1,1.3-16.4c0.5-8.3,1-16.2,1.6-23.9c0.6-7.7,1.1-15.7,1.7-24l2-24.1c0.3-4,0.6-8,0.8-12c0.3-4.1,0.6-8.4,0.8-12.7
		l1.6-17.2c0-0.2-0.3-0.3-0.8-0.3c-0.8,0-2,0.2-3.8,0.6c-1.8,0.3-3.9,0.7-6.4,1.1c-2.4,0.5-5.2,1-8.2,1.6c-2.9,0.5-5.9,0.9-9,1.4
		c-0.8,0-1.5-0.1-2.3-0.4c-0.7-0.4-1-0.8-1-1.3c0-0.4,0.1-0.7,0.3-0.8l22.9-40c5.2-1.1,10.7-2.3,16.7-3.4c6-1.2,12.5-2.3,19.3-3.2
		c6.9-0.9,14.2-1.7,21.9-2.3c7.7-0.7,15.9-1,24.6-1c9.8,0.2,19.3,1.2,28.5,3c9.3,1.7,17.6,4.6,24.7,8.8c7.2,4,13,9.6,17.4,16.7
		c4.4,7,6.6,15.8,6.6,26.5c0,5.9-1,11.4-3.1,16.4c-2,5-4.6,9.5-7.8,13.6c-3.1,4-6.5,7.5-10.3,10.6c-3.8,3-7.4,5.6-10.9,7.8
		c-3.4,2.2-6.4,3.9-9,5.2c-2.6,1.2-4.4,2-5.4,2.4c0,0.2,0,0.4,0.1,0.7c0.2,0.3,0.5,0.8,1,1.7c0.5,0.8,1.1,1.9,2,3.4
		c0.9,1.4,2.1,3.4,3.5,5.9c1.5,2.3,3.3,5.3,5.4,9c2.1,3.8,4.5,8.2,7.3,13.4c2.9,5.1,6.3,10.8,10,17.1c3.8,6.3,8.1,13.1,13,20.3
		c1.6,1.4,3.4,2.3,5.5,2.7c2.1,0.3,4,0.5,5.8,0.6c1.8,0,3.3,0.1,4.5,0.3c1.2,0.1,1.8,0.7,1.8,1.7c0,0.8-0.8,1.6-2.4,2.7
		c-1.5,0.9-3.3,1.9-5.4,3c-2.1,1-4.2,2-6.3,3c-2.1,0.9-3.7,1.7-4.8,2.3c-2.3,1.1-4.6,2.2-7.1,3.2c-2.4,1-5.1,2.2-7.9,3.5
		c-2.8,1.2-6,2.7-9.5,4.4c-3.4,1.7-7.2,3.7-11.6,6.1c-1.1,0.7-2.2,1.1-3.2,1.3c-0.9,0.3-1.8,0.4-2.7,0.4c-1.7,0-3.2-0.4-4.4-1.3
		c-1.2-0.8-2.3-1.7-3.1-2.8c-0.8-1.1-1.6-2.3-2.1-3.5c-0.5-1.1-0.9-2.1-1.3-2.8L775,154.7L768.1,232.9z M776.7,137.3
		c4.8,0,9.8-1.2,15-3.7c5.2-2.4,9.9-5.6,14.1-9.5c4.2-3.9,7.7-8.2,10.4-13.1c2.7-4.9,4.1-9.8,4.1-14.8c0-13.6-8.2-20.5-24.6-20.5
		c-3.1,0-5.7,0.2-7.8,0.7c-2.1,0.4-4,0.7-5.6,0.8L776.7,137.3z"/>
	<path class="st0" d="M903.9,184.4c1.2-12.9,2.5-25.6,3.7-38.3s2.3-25.6,3.2-38.8c0.2-3.1,0.5-5.2,0.8-6.4c0.5-1.2,1.6-2,3.2-2.4
		c8-1.6,16.4-3.2,25.1-4.9c8.8-1.8,17.2-4,25.4-6.8c0.3-0.1,0.7-0.1,1.3-0.1c1,0,1.5,0.4,1.5,1.1l-12.7,137.5
		c-0.3,3.1-0.6,5.3-1,6.5c-0.4,1.1-1.4,1.9-3.1,2.3c-8,2.4-16.1,5.2-24.3,8.2c-8.2,3-16.8,6.1-26,9.2c-0.3,0.1-0.7,0.1-1.3,0.1
		c-1,0-1.6-0.5-1.6-1.4c0-0.1,0.1-1.4,0.3-3.8c0.2-2.4,0.4-5.6,0.7-9.5c0.4-3.9,0.8-8.2,1.1-13c0.4-4.8,0.8-9.6,1.1-14.4
		c0.5-4.8,0.9-9.4,1.3-13.8C903.3,191.2,903.6,187.5,903.9,184.4z M914.5,71.7c0.3-4,0.5-7.2,0.6-9.3c0.2-2.2,0.3-3.8,0.4-4.8
		c0.1-1.1,0.1-1.8,0.1-2.1c0-0.3,0-0.5,0-0.6c0.1-0.2,0.1-0.5,0.1-0.8c0.1-0.5,0.2-1.4,0.3-2.7c0.1-1.4,0.2-3.4,0.4-6.1
		c0.2-2.6,0.5-6.3,0.8-10.9c0.2-3.1,0.5-5.2,0.8-6.4c0.5-1.2,1.6-2,3.2-2.4c8-1.6,16.4-3.2,25.1-4.9c8.8-1.8,17.2-4,25.4-6.8
		c0.3-0.1,0.7-0.1,1.3-0.1c0.3,0.6,0.7,0.9,1.1,1.1l0.4,0.3l-3.1,38.7c-0.3,3.1-0.7,5.3-1.1,6.5c-0.4,1.2-1.4,2-3,2.3
		c-8,1.5-16.1,3.2-24.3,4.9c-8.2,1.8-16.8,3.6-26,5.4c-0.3,0.1-0.7,0.1-1.3,0.1C915,73.1,914.5,72.6,914.5,71.7z"/>
	<path class="st0" d="M1093.5,163.9c0.3-3,0.6-6.2,0.8-9.5c0.4-3.3,0.8-6.7,1.3-10.3c-2.2-5.6-5.2-10.2-9.2-13.7
		c-3.9-3.6-8.9-5.4-14.8-5.4c-5.8,0-10.8,1.7-14.8,5.1c-4,3.3-7.3,7.4-9.7,12.3c-2.4,4.9-4.2,10.1-5.4,15.5
		c-1,5.4-1.5,10.1-1.5,14.3c0,5.1,0.3,10.1,0.8,15.1c0.7,5,1.6,9.5,3,13.6c1.4,4,3.2,7.3,5.5,9.9c2.3,2.4,5.1,3.7,8.5,3.7
		c8.3-0.3,15-2.2,20.2-5.6c5.2-3.5,9.3-7.7,12.4-12.7L1093.5,163.9z M1142.8,230c0,0.2-0.1,0.4-0.1,0.7c0,0.2,0,0.4,0,0.6
		c0,0.5,0,0.8,0,1.1c0.1,0.3,0.1,0.6,0.1,0.8c0,0.8-0.3,1.6-1,2.1c-0.6,0.5-2.1,1-4.7,1.7l-37.8,12.3c-1,0.4-2.4,0.8-4.1,1.4
		c-1.7,0.6-3.3,0.8-4.9,0.8c-1.3,0-2.5-0.3-3.5-1c-1-0.7-1.4-1.9-1.4-3.7c0-1.7,0-3.1,0-4.1c0.1-1,0.2-2,0.2-2.8
		c0.1-0.9,0.2-1.9,0.3-3c0.2-1,0.4-2.4,0.6-4.1c-7.1,5.6-14.3,10.2-21.9,13.6c-7.4,3.4-15.3,5.1-23.6,5.1c-9,0-17.1-2.2-24.1-6.5
		c-7-4.2-12.8-9.9-17.7-17.1c-4.8-7.2-8.5-15.5-11-24.7c-2.4-9.3-3.7-19-3.7-29.1c0-13.1,2.1-25,6.3-35.7
		c4.3-10.8,10.2-20,17.5-27.7c7.3-7.7,15.9-13.6,25.7-17.8c9.8-4.2,20.2-6.4,31.2-6.4c5.9,0,11.6,1.6,16.9,4.7
		c5.5,3.1,10.6,7.1,15.4,12c0.3-4.6,0.6-9.6,1-15c0.4-5.5,0.8-11,1.1-16.5c0.4-5.6,0.8-11.2,1.1-16.7c0.4-5.5,0.7-10.4,1-15
		c0-0.8,0.3-1.5,0.8-2c0.7-0.6,2.3-1.2,4.8-1.8l39.7-9.5c1-0.2,2.4-0.6,4.1-1.3c1.7-0.7,3.3-1,4.9-1c1.2,0,2.4,0.3,3.4,0.8
		c1.1,0.6,1.7,1.6,1.7,3.2c0,0.2,0,0.6-0.1,1.3c0,0.6,0,0.9,0,1.1L1142.8,230z"/>
	<path class="st0" d="M1258.5,86.7c8.9,0,17,1.7,24.3,5.1c7.3,3.3,13.6,7.6,18.8,13c5.3,5.3,9.3,11.2,12.1,17.8
		c2.8,6.6,4.2,13.2,4.2,19.8c0,5.8-1.8,11.7-5.4,17.6c-3.6,5.8-8.6,11.1-15.1,15.8c-6.4,4.7-14.1,8.5-23.2,11.4
		c-9,2.9-19,4.4-29.8,4.4c-5.6,0-11.6-0.6-17.8-1.7c0.4,4,1.5,7.5,3.5,10.4c2,2.9,4.5,5.3,7.5,7.2c3,1.9,6.4,3.3,10.2,4.2
		c3.9,0.8,7.8,1.3,11.9,1.3c4.5,0,8.9-0.4,13-1.1c4.2-0.8,8.3-1.9,12.1-3.2c3.9-1.3,7.6-2.8,11.2-4.4c3.6-1.6,7-3.2,10.2-4.8
		c0.8-0.2,1.5-0.3,2.1-0.4c0.7-0.2,1.3-0.3,1.8-0.3c0,0,0,0.8-0.1,2.3c0,1.5,0,3.6,0,6.4c0,2.7,0,6-0.1,9.9c0,3.9,0,8.1-0.1,12.8
		c0.3,0.5,0.5,0.9,0.6,1.4c0.1,0.5,0.1,0.8,0.1,1.1c0,1.1-1,2.4-3.1,3.7c-2.1,1.3-4.8,2.7-8.2,4.1c-3.3,1.4-7.1,2.8-11.4,4.1
		c-4.2,1.3-8.6,2.5-13,3.5c-4.4,1.1-8.7,2-12.9,2.5c-4.1,0.7-7.8,1-10.9,1c-10.2,0-20-1.8-29.6-5.4c-9.5-3.5-18-8.5-25.4-15.1
		c-7.3-6.6-13.2-14.6-17.6-24c-4.4-9.4-6.6-20-6.6-31.8c0-12.3,2.1-23.9,6.3-34.6c4.2-10.8,10.2-20.2,17.8-28.2
		c7.7-8,16.9-14.3,27.5-18.9C1234,89,1245.7,86.7,1258.5,86.7z M1256.8,124.2c-3.9,0-7.4,0.8-10.7,2.5c-3.2,1.6-6.2,4-8.9,7.1
		c-2.6,3-4.9,6.7-6.9,11c-2,4.2-3.6,8.9-4.8,14.1c9.7-1.7,17.7-3.5,24.1-5.4c6.4-1.9,11.5-3.8,15.4-5.6c3.9-2,6.6-3.9,8.2-5.8
		c1.6-2,2.4-3.9,2.4-5.6c0-1.7-0.7-3.3-2-4.8c-1.2-1.5-2.8-2.8-4.7-4c-1.9-1.1-4-2-6.2-2.5C1260.6,124.5,1258.6,124.2,1256.8,124.2z
		"/>
	<path class="st0" d="M1451.1,129.3c-2-0.2-4.2-0.4-6.6-0.6c-2.4-0.3-5-0.4-7.8-0.4c-4.1,0-8.4,0.4-12.7,1.1
		c-4.2,0.7-8.2,2-11.9,4.1c-3.7,2.1-6.8,4.9-9.5,8.6c-2.6,3.6-4.3,8.2-5.1,14c-0.7,7-1.2,12.7-1.7,17.2c-0.4,4.4-0.7,8.1-0.9,11
		c-0.2,2.8-0.4,5.1-0.6,6.9c-0.1,1.7-0.2,3.3-0.3,4.8c0,0.4-0.1,1.4-0.3,3.1c-0.1,1.7-0.3,3.7-0.6,5.9c-0.3,2.3-0.6,4.7-0.8,7.3
		c-0.2,2.6-0.4,5.1-0.7,7.3c-0.3,2.3-0.5,4.2-0.7,5.9c-0.1,1.7-0.1,2.7-0.1,3.1c0,0.8,0,1.4,0,2c0.1,0.5,0.1,0.9,0.1,1.4
		c0,0.8-0.4,1.4-1.1,2c-0.7,0.5-2.2,1-4.7,1.7l-37.4,13.4c-1,0.4-2.4,0.8-4.1,1.4c-1.7,0.6-3.3,0.8-4.9,0.8c-1.3,0-2.5-0.3-3.5-1
		c-0.9-0.7-1.4-1.8-1.4-3.4l12.1-139.9c0.3-3.1,0.6-5.2,1-6.4c0.5-1.2,1.6-2,3.2-2.4c8.6-1.7,17.4-3.4,26.5-5.1
		c9.1-1.8,18-4,26.5-6.8c0.8,0,1.2,0.1,1.3,0.4c0.2,0.2,0.3,0.5,0.3,1c0,0.2,0,0.5-0.1,0.8c0,0.4-0.1,1.2-0.4,2.5
		c-0.2,1.3-0.5,3.3-1,6.1c-0.4,2.6-0.9,6.4-1.7,11.2c4.3-3.4,9.1-6.5,14.3-9.3c5.3-2.8,10.5-5.2,15.8-7.2c5.3-2.1,10.3-3.7,15.2-4.8
		c4.9-1.2,9.2-1.8,12.8-1.8L1451.1,129.3z"/>
	<path class="st0" d="M45.3,342.4v-10.6l26.7-42h9.2v14.7h-5.4l-16.8,26.6v0.5h37.9v10.8H45.3z M75.9,353.7v-14.5l0.2-4.7v-44.7
		h12.7v63.9H75.9z"/>
	<path class="st0" d="M145,344.8l-37.3-37.2l8.2-8.3l37.3,37.3L145,344.8z M115.9,344.8l-8.2-8.2l37.3-37.3l8.2,8.3L115.9,344.8z"/>
	<path class="st0" d="M164.5,342.4v-10.6l26.7-42h9.2v14.7h-5.4l-16.8,26.6v0.5H216v10.8H164.5z M195.2,353.7v-14.5l0.2-4.7v-44.7
		h12.7v63.9H195.2z"/>
	<path class="st0" d="M302,312.1h-13.7c-0.2-1.8-0.8-3.3-1.5-4.7c-0.8-1.4-1.8-2.6-3-3.6c-1.2-1-2.6-1.7-4.2-2.2
		c-1.6-0.5-3.3-0.8-5.1-0.8c-3.3,0-6.2,0.8-8.6,2.5c-2.5,1.6-4.4,4-5.7,7.1c-1.4,3.1-2,6.9-2,11.3c0,4.6,0.7,8.4,2,11.5
		c1.4,3.1,3.3,5.4,5.7,7c2.5,1.6,5.3,2.4,8.5,2.4c1.8,0,3.5-0.2,5-0.7c1.6-0.5,2.9-1.2,4.1-2.1c1.2-0.9,2.2-2.1,3-3.4
		c0.8-1.3,1.4-2.8,1.7-4.6l13.7,0.1c-0.4,2.9-1.2,5.8-2.7,8.5c-1.4,2.7-3.3,5.1-5.6,7.3c-2.3,2.1-5.2,3.8-8.4,5.1
		c-3.2,1.2-6.9,1.8-11,1.8c-5.7,0-10.8-1.3-15.3-3.9c-4.5-2.6-8-6.3-10.6-11.2c-2.6-4.9-3.9-10.8-3.9-17.7c0-7,1.3-12.9,3.9-17.8
		c2.6-4.9,6.2-8.6,10.7-11.2c4.5-2.6,9.5-3.9,15.2-3.9c3.7,0,7.1,0.5,10.3,1.6c3.2,1,6,2.6,8.5,4.6c2.5,2,4.4,4.4,6,7.3
		C300.6,305.1,301.6,308.4,302,312.1z"/>
	<path class="st0" d="M325.1,354.6c-3.1,0-5.8-0.5-8.2-1.6c-2.4-1.1-4.3-2.7-5.7-4.8c-1.4-2.1-2.1-4.8-2.1-7.9
		c0-2.7,0.5-4.9,1.5-6.7c1-1.8,2.3-3.3,4-4.4c1.7-1.1,3.6-1.9,5.7-2.5c2.2-0.6,4.4-1,6.8-1.2c2.8-0.3,5-0.6,6.7-0.8
		c1.7-0.3,2.9-0.7,3.7-1.2c0.8-0.5,1.2-1.3,1.2-2.3V321c0-2-0.6-3.5-1.9-4.6c-1.2-1.1-3-1.6-5.2-1.6c-2.4,0-4.3,0.5-5.7,1.6
		c-1.4,1-2.3,2.3-2.8,3.9l-12.3-1c0.6-2.9,1.8-5.4,3.7-7.5c1.8-2.1,4.2-3.8,7.1-4.9c2.9-1.2,6.3-1.7,10.1-1.7c2.7,0,5.2,0.3,7.6,0.9
		c2.5,0.6,4.6,1.6,6.5,2.9c1.9,1.3,3.4,3,4.5,5.1c1.1,2,1.7,4.5,1.7,7.3v32.3h-12.6V347h-0.4c-0.8,1.5-1.8,2.8-3.1,4
		c-1.3,1.1-2.8,2-4.6,2.7C329.6,354.2,327.5,354.6,325.1,354.6z M328.9,345.4c2,0,3.7-0.4,5.2-1.2c1.5-0.8,2.7-1.9,3.5-3.2
		c0.9-1.3,1.3-2.8,1.3-4.5v-5.1c-0.4,0.3-1,0.5-1.7,0.7c-0.7,0.2-1.5,0.4-2.4,0.6c-0.9,0.2-1.8,0.3-2.7,0.5
		c-0.9,0.1-1.7,0.2-2.4,0.3c-1.6,0.2-2.9,0.6-4.1,1.1c-1.2,0.5-2.1,1.2-2.7,2c-0.6,0.8-1,1.9-1,3.1c0,1.8,0.7,3.2,2,4.1
		C325.2,344.9,326.9,345.4,328.9,345.4z"/>
	<path class="st0" d="M362.4,353.7v-47.9h12.9v8.4h0.5c0.9-3,2.3-5.2,4.4-6.7c2.1-1.5,4.4-2.3,7.1-2.3c0.7,0,1.4,0,2.2,0.1
		c0.8,0.1,1.4,0.2,2,0.3v11.8c-0.6-0.2-1.5-0.4-2.6-0.5c-1.1-0.1-2.1-0.2-3-0.2c-2,0-3.7,0.4-5.2,1.3c-1.5,0.8-2.7,2-3.6,3.5
		c-0.9,1.5-1.3,3.2-1.3,5.2v27.1H362.4z"/>
	<path class="st0" d="M418.9,353.7v-63.9h25.2c4.8,0,8.9,0.9,12.4,2.6c3.4,1.7,6,4.1,7.8,7.3c1.8,3.1,2.7,6.8,2.7,11
		c0,4.2-0.9,7.9-2.7,10.9c-1.8,3-4.5,5.4-8,7c-3.5,1.6-7.6,2.4-12.5,2.4h-16.9v-10.9h14.7c2.6,0,4.7-0.4,6.4-1.1s3-1.8,3.8-3.2
		c0.9-1.4,1.3-3.2,1.3-5.3c0-2.1-0.4-3.9-1.3-5.4c-0.8-1.5-2.1-2.6-3.8-3.3c-1.7-0.8-3.9-1.2-6.5-1.2h-9.1v52.8H418.9z M453.4,324.6
		l15.9,29.1h-14.9l-15.5-29.1H453.4z"/>
	<path class="st0" d="M497.4,354.6c-4.9,0-9.2-1-12.7-3c-3.5-2-6.3-4.9-8.2-8.5c-1.9-3.7-2.9-8.1-2.9-13.1c0-4.9,1-9.3,2.9-13
		c1.9-3.7,4.6-6.6,8.1-8.7c3.5-2.1,7.6-3.1,12.3-3.1c3.2,0,6.1,0.5,8.8,1.5c2.7,1,5.1,2.5,7.2,4.5c2.1,2,3.7,4.6,4.8,7.6
		c1.1,3,1.7,6.6,1.7,10.7v3.6h-40.4v-8.2h27.9c0-1.9-0.4-3.6-1.2-5.1c-0.8-1.5-2-2.6-3.5-3.5c-1.5-0.9-3.2-1.3-5.1-1.3
		c-2,0-3.8,0.5-5.4,1.4c-1.5,0.9-2.7,2.2-3.6,3.7c-0.9,1.5-1.3,3.3-1.3,5.1v7.8c0,2.4,0.4,4.4,1.3,6.1c0.9,1.7,2.2,3.1,3.8,4
		c1.6,0.9,3.5,1.4,5.8,1.4c1.5,0,2.8-0.2,4.1-0.6c1.2-0.4,2.3-1,3.2-1.9c0.9-0.8,1.5-1.9,2-3.1l12.3,0.8c-0.6,3-1.9,5.5-3.8,7.7
		c-1.9,2.2-4.4,3.9-7.4,5.1C504.8,354,501.3,354.6,497.4,354.6z"/>
	<path class="st0" d="M541.3,326v27.7H528v-47.9h12.7v8.5h0.6c1.1-2.8,2.8-5,5.3-6.6c2.5-1.6,5.5-2.5,9.1-2.5c3.3,0,6.2,0.7,8.7,2.2
		c2.5,1.5,4.4,3.5,5.8,6.2c1.4,2.7,2.1,5.9,2.1,9.6v30.5h-13.3v-28.1c0-2.9-0.7-5.2-2.2-6.9c-1.5-1.7-3.6-2.5-6.3-2.5
		c-1.8,0-3.4,0.4-4.7,1.2c-1.4,0.8-2.4,1.9-3.2,3.4C541.7,322.1,541.3,323.9,541.3,326z"/>
	<path class="st0" d="M608.2,305.7v10h-28.8v-10H608.2z M585.9,294.3h13.3v44.7c0,1.2,0.2,2.2,0.6,2.9c0.4,0.7,0.9,1.1,1.6,1.4
		c0.7,0.3,1.5,0.4,2.4,0.4c0.6,0,1.2-0.1,1.9-0.2c0.6-0.1,1.1-0.2,1.4-0.3l2.1,9.9c-0.7,0.2-1.6,0.4-2.8,0.7
		c-1.2,0.3-2.7,0.5-4.4,0.5c-3.2,0.1-6-0.3-8.4-1.3c-2.4-1-4.3-2.5-5.6-4.6c-1.3-2.1-2-4.7-2-7.8V294.3z"/>
	<path class="st0" d="M630.5,354.6c-3.1,0-5.8-0.5-8.2-1.6c-2.4-1.1-4.3-2.7-5.7-4.8c-1.4-2.1-2.1-4.8-2.1-7.9
		c0-2.7,0.5-4.9,1.5-6.7c1-1.8,2.3-3.3,4-4.4c1.7-1.1,3.6-1.9,5.7-2.5c2.2-0.6,4.4-1,6.8-1.2c2.8-0.3,5-0.6,6.7-0.8
		c1.7-0.3,2.9-0.7,3.7-1.2c0.8-0.5,1.2-1.3,1.2-2.3V321c0-2-0.6-3.5-1.9-4.6c-1.2-1.1-3-1.6-5.2-1.6c-2.4,0-4.3,0.5-5.7,1.6
		c-1.4,1-2.4,2.3-2.8,3.9l-12.3-1c0.6-2.9,1.9-5.4,3.7-7.5c1.8-2.1,4.2-3.8,7.1-4.9c2.9-1.2,6.3-1.7,10.1-1.7c2.7,0,5.2,0.3,7.6,0.9
		c2.5,0.6,4.6,1.6,6.5,2.9c1.9,1.3,3.4,3,4.5,5.1c1.1,2,1.7,4.5,1.7,7.3v32.3h-12.6V347h-0.4c-0.8,1.5-1.8,2.8-3.1,4
		c-1.3,1.1-2.8,2-4.6,2.7C634.9,354.2,632.8,354.6,630.5,354.6z M634.3,345.4c2,0,3.7-0.4,5.2-1.2c1.5-0.8,2.7-1.9,3.5-3.2
		c0.9-1.3,1.3-2.8,1.3-4.5v-5.1c-0.4,0.3-1,0.5-1.7,0.7c-0.7,0.2-1.5,0.4-2.4,0.6c-0.9,0.2-1.8,0.3-2.7,0.5
		c-0.9,0.1-1.7,0.2-2.4,0.3c-1.6,0.2-2.9,0.6-4.1,1.1c-1.2,0.5-2.1,1.2-2.7,2c-0.6,0.8-1,1.9-1,3.1c0,1.8,0.7,3.2,2,4.1
		C630.5,344.9,632.2,345.4,634.3,345.4z"/>
	<path class="st0" d="M681,289.8v63.9h-13.3v-63.9H681z"/>
	<path class="st0" d="M731.6,354.6c-4.4,0-8.2-0.8-11.4-2.4c-3.2-1.6-5.7-3.7-7.4-6.4c-1.7-2.7-2.6-5.8-2.6-9.1
		c0-2.5,0.5-4.7,1.5-6.6c1-1.9,2.4-3.7,4.2-5.3c1.8-1.6,3.9-3.3,6.2-4.9l12.4-8.1c1.6-1,2.8-2.1,3.5-3.2c0.7-1.1,1.1-2.4,1.1-3.7
		c0-1.3-0.5-2.4-1.5-3.5c-1-1.1-2.5-1.6-4.3-1.6c-1.2,0-2.3,0.3-3.2,0.8c-0.9,0.5-1.6,1.3-2.2,2.2c-0.5,0.9-0.7,1.9-0.7,2.9
		c0,1.3,0.4,2.7,1.1,4.1c0.7,1.4,1.7,2.8,3,4.4c1.2,1.5,2.6,3.2,4.1,4.9l30.3,34.7h-13.8l-25.3-28.1c-1.7-1.9-3.3-3.9-5-5.9
		c-1.6-2.1-3-4.3-4.1-6.6c-1.1-2.4-1.7-4.9-1.7-7.6c0-3.1,0.7-5.9,2.2-8.4c1.5-2.5,3.5-4.4,6.1-5.9c2.6-1.5,5.7-2.2,9.2-2.2
		c3.4,0,6.4,0.7,8.8,2.1c2.5,1.4,4.4,3.2,5.7,5.5c1.4,2.3,2,4.8,2,7.5c0,3-0.7,5.8-2.2,8.2c-1.5,2.4-3.6,4.6-6.2,6.5l-13,9.4
		c-1.8,1.3-3.1,2.6-3.9,4c-0.8,1.3-1.2,2.6-1.2,3.8c0,1.5,0.4,2.9,1.1,4.1c0.7,1.2,1.8,2.2,3.2,2.9c1.4,0.7,3,1,4.8,1
		c2.2,0,4.5-0.5,6.6-1.5c2.2-1,4.2-2.5,6-4.4c1.8-1.9,3.3-4.2,4.3-6.8s1.6-5.5,1.6-8.7h11c0,3.9-0.4,7.4-1.3,10.6
		c-0.9,3.1-2,5.8-3.6,8.2c-1.5,2.3-3.3,4.2-5.2,5.7c-0.6,0.4-1.2,0.8-1.8,1.1c-0.6,0.4-1.2,0.7-1.8,1.1c-2.4,1.9-5,3.3-8,4.1
		C737.3,354.2,734.4,354.6,731.6,354.6z"/>
	<path class="st0" d="M789.3,300.9v-11.1h52.4v11.1h-19.5v52.7h-13.3v-52.7H789.3z"/>
	<path class="st0" d="M845.2,353.7v-47.9h12.9v8.4h0.5c0.9-3,2.3-5.2,4.4-6.7c2.1-1.5,4.4-2.3,7.1-2.3c0.7,0,1.4,0,2.2,0.1
		c0.8,0.1,1.4,0.2,2,0.3v11.8c-0.6-0.2-1.5-0.4-2.6-0.5c-1.1-0.1-2.1-0.2-3-0.2c-2,0-3.7,0.4-5.2,1.3c-1.5,0.8-2.7,2-3.6,3.5
		c-0.9,1.5-1.3,3.2-1.3,5.2v27.1H845.2z"/>
	<path class="st0" d="M893.4,354.6c-3,0-5.8-0.5-8.2-1.6c-2.4-1.1-4.3-2.7-5.7-4.8c-1.4-2.1-2.1-4.8-2.1-7.9c0-2.7,0.5-4.9,1.5-6.7
		c1-1.8,2.3-3.3,4-4.4c1.7-1.1,3.6-1.9,5.7-2.5c2.2-0.6,4.4-1,6.8-1.2c2.8-0.3,5-0.6,6.7-0.8c1.7-0.3,2.9-0.7,3.7-1.2
		c0.8-0.5,1.2-1.3,1.2-2.3V321c0-2-0.6-3.5-1.9-4.6c-1.2-1.1-3-1.6-5.2-1.6c-2.4,0-4.3,0.5-5.7,1.6c-1.4,1-2.3,2.3-2.8,3.9l-12.3-1
		c0.6-2.9,1.8-5.4,3.7-7.5c1.8-2.1,4.2-3.8,7.1-4.9c2.9-1.2,6.3-1.7,10.1-1.7c2.7,0,5.2,0.3,7.6,0.9c2.4,0.6,4.6,1.6,6.5,2.9
		c1.9,1.3,3.4,3,4.5,5.1c1.1,2,1.7,4.5,1.7,7.3v32.3h-12.6V347h-0.4c-0.8,1.5-1.8,2.8-3.1,4c-1.3,1.1-2.8,2-4.7,2.7
		C897.9,354.2,895.8,354.6,893.4,354.6z M897.2,345.4c1.9,0,3.7-0.4,5.2-1.2c1.5-0.8,2.7-1.9,3.5-3.2s1.3-2.8,1.3-4.5v-5.1
		c-0.4,0.3-1,0.5-1.7,0.7c-0.7,0.2-1.5,0.4-2.4,0.6c-0.9,0.2-1.8,0.3-2.7,0.5c-0.9,0.1-1.7,0.2-2.4,0.3c-1.6,0.2-2.9,0.6-4.1,1.1
		c-1.2,0.5-2.1,1.2-2.7,2c-0.7,0.8-1,1.9-1,3.1c0,1.8,0.7,3.2,2,4.1C893.5,344.9,895.2,345.4,897.2,345.4z"/>
	<path class="st0" d="M973.7,305.7l-16.7,47.9h-15l-16.8-47.9h14l9.9,34.3h0.5l9.9-34.3H973.7z"/>
	<path class="st0" d="M1000.7,354.6c-4.9,0-9.2-1-12.7-3c-3.5-2-6.3-4.9-8.2-8.5c-1.9-3.7-2.9-8.1-2.9-13.1c0-4.9,0.9-9.3,2.9-13
		c1.9-3.7,4.6-6.6,8.1-8.7c3.5-2.1,7.6-3.1,12.3-3.1c3.2,0,6.1,0.5,8.8,1.5c2.7,1,5.1,2.5,7.2,4.5c2.1,2,3.7,4.6,4.8,7.6
		c1.1,3,1.7,6.6,1.7,10.7v3.6h-40.5v-8.2h27.9c0-1.9-0.4-3.6-1.2-5.1c-0.8-1.5-2-2.6-3.5-3.5c-1.5-0.9-3.2-1.3-5.1-1.3
		c-2,0-3.8,0.5-5.4,1.4c-1.5,0.9-2.7,2.2-3.6,3.7c-0.9,1.5-1.3,3.3-1.3,5.1v7.8c0,2.4,0.4,4.4,1.3,6.1c0.9,1.7,2.2,3.1,3.8,4
		c1.6,0.9,3.5,1.4,5.8,1.4c1.5,0,2.8-0.2,4.1-0.6c1.2-0.4,2.3-1,3.1-1.9c0.9-0.8,1.5-1.9,2-3.1l12.3,0.8c-0.6,3-1.9,5.5-3.8,7.7
		c-1.9,2.2-4.4,3.9-7.4,5.1C1008.2,354,1004.7,354.6,1000.7,354.6z"/>
	<path class="st0" d="M1044.7,289.8v63.9h-13.3v-63.9H1044.7z"/>
	<path class="st0" d="M1075.9,353.7v-63.9h25.2c4.8,0,9,0.9,12.4,2.8c3.4,1.8,6,4.4,7.8,7.6c1.8,3.2,2.7,7,2.7,11.2
		c0,4.2-0.9,8-2.7,11.2c-1.8,3.2-4.5,5.8-8,7.6c-3.5,1.8-7.6,2.7-12.5,2.7h-16.1v-10.8h13.9c2.6,0,4.7-0.4,6.4-1.3
		c1.7-0.9,3-2.2,3.8-3.8c0.8-1.6,1.3-3.5,1.3-5.6c0-2.1-0.4-4-1.3-5.6c-0.8-1.6-2.1-2.8-3.8-3.7c-1.7-0.9-3.9-1.3-6.5-1.3h-9.1v52.8
		H1075.9z"/>
	<path class="st0" d="M1145.8,289.8v63.9h-13.3v-63.9H1145.8z"/>
	<path class="st0" d="M1170.1,354.6c-3.1,0-5.8-0.5-8.2-1.6c-2.4-1.1-4.3-2.7-5.7-4.8c-1.4-2.1-2.1-4.8-2.1-7.9
		c0-2.7,0.5-4.9,1.5-6.7c1-1.8,2.3-3.3,4-4.4c1.7-1.1,3.6-1.9,5.7-2.5c2.2-0.6,4.4-1,6.8-1.2c2.8-0.3,5-0.6,6.7-0.8
		c1.7-0.3,2.9-0.7,3.7-1.2c0.8-0.5,1.2-1.3,1.2-2.3V321c0-2-0.6-3.5-1.9-4.6c-1.2-1.1-3-1.6-5.2-1.6c-2.4,0-4.3,0.5-5.7,1.6
		c-1.4,1-2.3,2.3-2.8,3.9l-12.3-1c0.6-2.9,1.8-5.4,3.7-7.5c1.8-2.1,4.2-3.8,7.1-4.9c2.9-1.2,6.3-1.7,10.1-1.7c2.7,0,5.2,0.3,7.6,0.9
		c2.4,0.6,4.6,1.6,6.5,2.9c1.9,1.3,3.4,3,4.5,5.1c1.1,2,1.7,4.5,1.7,7.3v32.3h-12.6V347h-0.4c-0.8,1.5-1.8,2.8-3.1,4
		c-1.3,1.1-2.8,2-4.7,2.7C1174.6,354.2,1172.5,354.6,1170.1,354.6z M1173.9,345.4c2,0,3.7-0.4,5.2-1.2c1.5-0.8,2.7-1.9,3.5-3.2
		s1.3-2.8,1.3-4.5v-5.1c-0.4,0.3-1,0.5-1.7,0.7c-0.7,0.2-1.5,0.4-2.4,0.6c-0.9,0.2-1.8,0.3-2.7,0.5c-0.9,0.1-1.7,0.2-2.4,0.3
		c-1.6,0.2-2.9,0.6-4.1,1.1c-1.2,0.5-2.1,1.2-2.7,2c-0.7,0.8-1,1.9-1,3.1c0,1.8,0.7,3.2,2,4.1
		C1170.2,344.9,1171.9,345.4,1173.9,345.4z"/>
	<path class="st0" d="M1220.7,326v27.7h-13.3v-47.9h12.7v8.5h0.6c1.1-2.8,2.8-5,5.3-6.6c2.5-1.6,5.5-2.5,9.1-2.5
		c3.3,0,6.2,0.7,8.7,2.2c2.5,1.5,4.4,3.5,5.8,6.2c1.4,2.7,2.1,5.9,2.1,9.6v30.5h-13.3v-28.1c0-2.9-0.7-5.2-2.2-6.9
		c-1.5-1.7-3.6-2.5-6.3-2.5c-1.8,0-3.4,0.4-4.7,1.2c-1.4,0.8-2.4,1.9-3.2,3.4C1221.1,322.1,1220.7,323.9,1220.7,326z"/>
	<path class="st0" d="M1275.3,326v27.7H1262v-47.9h12.7v8.5h0.6c1.1-2.8,2.8-5,5.3-6.6c2.5-1.6,5.5-2.5,9.1-2.5
		c3.3,0,6.2,0.7,8.7,2.2c2.5,1.5,4.4,3.5,5.8,6.2c1.4,2.7,2,5.9,2,9.6v30.5h-13.3v-28.1c0-2.9-0.7-5.2-2.2-6.9
		c-1.5-1.7-3.6-2.5-6.3-2.5c-1.8,0-3.4,0.4-4.7,1.2c-1.4,0.8-2.4,1.9-3.2,3.4C1275.7,322.1,1275.3,323.9,1275.3,326z"/>
	<path class="st0" d="M1338.5,354.6c-4.9,0-9.2-1-12.7-3c-3.5-2-6.3-4.9-8.2-8.5c-1.9-3.7-2.9-8.1-2.9-13.1c0-4.9,1-9.3,2.9-13
		c1.9-3.7,4.6-6.6,8.1-8.7c3.5-2.1,7.6-3.1,12.3-3.1c3.2,0,6.1,0.5,8.8,1.5c2.8,1,5.1,2.5,7.2,4.5c2.1,2,3.7,4.6,4.8,7.6
		c1.1,3,1.7,6.6,1.7,10.7v3.6H1320v-8.2h27.9c0-1.9-0.4-3.6-1.2-5.1c-0.8-1.5-2-2.6-3.5-3.5c-1.5-0.9-3.2-1.3-5.1-1.3
		c-2,0-3.8,0.5-5.4,1.4c-1.5,0.9-2.7,2.2-3.6,3.7c-0.9,1.5-1.3,3.3-1.3,5.1v7.8c0,2.4,0.4,4.4,1.3,6.1c0.9,1.7,2.2,3.1,3.8,4
		c1.6,0.9,3.5,1.4,5.8,1.4c1.5,0,2.8-0.2,4.1-0.6c1.2-0.4,2.3-1,3.1-1.9c0.9-0.8,1.5-1.9,2-3.1l12.3,0.8c-0.6,3-1.9,5.5-3.8,7.7
		c-1.9,2.2-4.4,3.9-7.4,5.1C1345.9,354,1342.4,354.6,1338.5,354.6z"/>
	<path class="st0" d="M1369.1,353.7v-47.9h12.9v8.4h0.5c0.9-3,2.3-5.2,4.4-6.7c2.1-1.5,4.4-2.3,7.1-2.3c0.7,0,1.4,0,2.2,0.1
		c0.8,0.1,1.5,0.2,2,0.3v11.8c-0.6-0.2-1.5-0.4-2.6-0.5c-1.1-0.1-2.1-0.2-3-0.2c-2,0-3.7,0.4-5.2,1.3c-1.5,0.8-2.7,2-3.6,3.5
		c-0.9,1.5-1.3,3.2-1.3,5.2v27.1H1369.1z"/>
</g>
</svg>
